STARTFONT 2.1
COMMENT
COMMENT Converted from OpenType font "JF-Dot-jiskan16.ttf" by "otf2bdf 3.0".
COMMENT
FONT -FreeType-JF Dot jiskan16-Medium-R-Normal--17-120-100-100-P-163-ISO10646-1
SIZE 12 100 100
FONTBOUNDINGBOX 16 16 0 -2
STARTPROPERTIES 19
FOUNDRY "FreeType"
FAMILY_NAME "JF Dot jiskan16"
WEIGHT_NAME "Medium"
SLANT "R"
SETWIDTH_NAME "Normal"
ADD_STYLE_NAME ""
PIXEL_SIZE 17
POINT_SIZE 120
RESOLUTION_X 100
RESOLUTION_Y 100
SPACING "P"
AVERAGE_WIDTH 163
CHARSET_REGISTRY "ISO10646"
CHARSET_ENCODING "1"
FONT_ASCENT 13
FONT_DESCENT 2
COPYRIGHT "[J҇W 8x16/8x16rk] Copyright 1989 by Sony Corp."
_OTF_FONTFILE "JF-Dot-jiskan16.ttf"
_OTF_PSNAME "JF-Dot-jiskan16"
ENDPROPERTIES
CHARS 11086
STARTCHAR 0020
ENCODING 32
SWIDTH 480 0
DWIDTH 8 0
BBX 8 16 0 -2
BITMAP
00
00
00
00
00
00
00
00
00
00
00
00
00
00
00
00
ENDCHAR
STARTCHAR 0021
ENCODING 33
SWIDTH 480 0
DWIDTH 8 0
BBX 8 16 0 -2
BITMAP
00
38
38
38
38
38
38
10
10
10
10
00
00
10
38
10
ENDCHAR
STARTCHAR 0022
ENCODING 34
SWIDTH 480 0
DWIDTH 8 0
BBX 8 16 0 -2
BITMAP
6C
6C
24
24
48
00
00
00
00
00
00
00
00
00
00
00
ENDCHAR
STARTCHAR 0023
ENCODING 35
SWIDTH 480 0
DWIDTH 8 0
BBX 8 16 0 -2
BITMAP
00
12
12
12
7F
24
24
24
24
24
FE
48
48
48
48
00
ENDCHAR
STARTCHAR 0024
ENCODING 36
SWIDTH 480 0
DWIDTH 8 0
BBX 8 16 0 -2
BITMAP
10
38
54
92
96
90
50
38
14
12
D2
92
94
78
10
10
ENDCHAR
STARTCHAR 0025
ENCODING 37
SWIDTH 480 0
DWIDTH 8 0
BBX 8 16 0 -2
BITMAP
02
62
94
94
94
98
68
10
10
2C
32
52
52
52
8C
80
ENDCHAR
STARTCHAR 0026
ENCODING 38
SWIDTH 480 0
DWIDTH 8 0
BBX 8 16 0 -2
BITMAP
00
30
48
48
48
50
20
2E
54
54
94
88
8C
72
00
00
ENDCHAR
STARTCHAR 0027
ENCODING 39
SWIDTH 480 0
DWIDTH 8 0
BBX 8 16 0 -2
BITMAP
E0
E0
20
20
C0
00
00
00
00
00
00
00
00
00
00
00
ENDCHAR
STARTCHAR 0028
ENCODING 40
SWIDTH 480 0
DWIDTH 8 0
BBX 8 16 0 -2
BITMAP
02
04
08
08
10
10
10
10
10
10
10
10
08
08
04
02
ENDCHAR
STARTCHAR 0029
ENCODING 41
SWIDTH 480 0
DWIDTH 8 0
BBX 8 16 0 -2
BITMAP
80
40
20
20
10
10
10
10
10
10
10
10
20
20
40
80
ENDCHAR
STARTCHAR 002A
ENCODING 42
SWIDTH 480 0
DWIDTH 8 0
BBX 8 16 0 -2
BITMAP
00
00
00
10
38
92
D6
38
D6
92
38
10
00
00
00
00
ENDCHAR
STARTCHAR 002B
ENCODING 43
SWIDTH 480 0
DWIDTH 8 0
BBX 8 16 0 -2
BITMAP
00
00
00
10
10
10
10
FE
10
10
10
10
00
00
00
00
ENDCHAR
STARTCHAR 002C
ENCODING 44
SWIDTH 480 0
DWIDTH 8 0
BBX 8 16 0 -2
BITMAP
00
00
00
00
00
00
00
00
00
00
00
E0
E0
20
20
C0
ENDCHAR
STARTCHAR 002D
ENCODING 45
SWIDTH 480 0
DWIDTH 8 0
BBX 8 16 0 -2
BITMAP
00
00
00
00
00
00
00
FE
00
00
00
00
00
00
00
00
ENDCHAR
STARTCHAR 002E
ENCODING 46
SWIDTH 480 0
DWIDTH 8 0
BBX 8 16 0 -2
BITMAP
00
00
00
00
00
00
00
00
00
00
00
40
E0
E0
40
00
ENDCHAR
STARTCHAR 002F
ENCODING 47
SWIDTH 480 0
DWIDTH 8 0
BBX 8 16 0 -2
BITMAP
02
02
04
04
08
08
08
10
10
10
20
20
40
40
80
80
ENDCHAR
STARTCHAR 0030
ENCODING 48
SWIDTH 480 0
DWIDTH 8 0
BBX 8 16 0 -2
BITMAP
00
18
24
24
42
42
42
42
42
42
42
42
24
24
18
00
ENDCHAR
STARTCHAR 0031
ENCODING 49
SWIDTH 480 0
DWIDTH 8 0
BBX 8 16 0 -2
BITMAP
00
10
70
10
10
10
10
10
10
10
10
10
10
7C
00
00
ENDCHAR
STARTCHAR 0032
ENCODING 50
SWIDTH 480 0
DWIDTH 8 0
BBX 8 16 0 -2
BITMAP
00
18
24
42
62
02
04
08
08
10
20
22
42
7E
00
00
ENDCHAR
STARTCHAR 0033
ENCODING 51
SWIDTH 480 0
DWIDTH 8 0
BBX 8 16 0 -2
BITMAP
00
38
44
82
82
02
04
38
04
02
82
82
44
38
00
00
ENDCHAR
STARTCHAR 0034
ENCODING 52
SWIDTH 480 0
DWIDTH 8 0
BBX 8 16 0 -2
BITMAP
00
08
18
28
28
48
48
88
88
FE
08
08
08
3C
00
00
ENDCHAR
STARTCHAR 0035
ENCODING 53
SWIDTH 480 0
DWIDTH 8 0
BBX 8 16 0 -2
BITMAP
00
FC
80
80
80
B8
C4
82
02
02
C2
82
44
38
00
00
ENDCHAR
STARTCHAR 0036
ENCODING 54
SWIDTH 480 0
DWIDTH 8 0
BBX 8 16 0 -2
BITMAP
00
3C
42
46
80
80
B8
C4
82
82
82
82
44
38
00
00
ENDCHAR
STARTCHAR 0037
ENCODING 55
SWIDTH 480 0
DWIDTH 8 0
BBX 8 16 0 -2
BITMAP
00
FE
82
82
04
04
04
08
08
08
08
10
10
10
10
00
ENDCHAR
STARTCHAR 0038
ENCODING 56
SWIDTH 480 0
DWIDTH 8 0
BBX 8 16 0 -2
BITMAP
00
38
44
82
82
82
44
38
44
82
82
82
44
38
00
00
ENDCHAR
STARTCHAR 0039
ENCODING 57
SWIDTH 480 0
DWIDTH 8 0
BBX 8 16 0 -2
BITMAP
00
38
44
82
82
82
82
46
3A
02
02
82
44
38
00
00
ENDCHAR
STARTCHAR 003A
ENCODING 58
SWIDTH 480 0
DWIDTH 8 0
BBX 8 16 0 -2
BITMAP
00
00
00
00
00
38
38
00
00
00
00
00
38
38
00
00
ENDCHAR
STARTCHAR 003B
ENCODING 59
SWIDTH 480 0
DWIDTH 8 0
BBX 8 16 0 -2
BITMAP
00
00
00
00
00
38
38
00
00
00
00
38
38
18
10
30
ENDCHAR
STARTCHAR 003C
ENCODING 60
SWIDTH 480 0
DWIDTH 8 0
BBX 8 16 0 -2
BITMAP
02
04
04
08
08
10
10
20
20
10
10
08
08
04
04
02
ENDCHAR
STARTCHAR 003D
ENCODING 61
SWIDTH 480 0
DWIDTH 8 0
BBX 8 16 0 -2
BITMAP
00
00
00
00
00
FE
00
00
00
FE
00
00
00
00
00
00
ENDCHAR
STARTCHAR 003E
ENCODING 62
SWIDTH 480 0
DWIDTH 8 0
BBX 8 16 0 -2
BITMAP
80
40
40
20
20
10
10
08
08
10
10
20
20
40
40
80
ENDCHAR
STARTCHAR 003F
ENCODING 63
SWIDTH 480 0
DWIDTH 8 0
BBX 8 16 0 -2
BITMAP
00
38
44
82
C2
02
04
04
08
10
10
00
00
10
38
10
ENDCHAR
STARTCHAR 0040
ENCODING 64
SWIDTH 480 0
DWIDTH 8 0
BBX 8 16 0 -2
BITMAP
00
3C
42
82
9A
A6
A2
A2
A2
A6
9A
80
42
3C
00
00
ENDCHAR
STARTCHAR 0041
ENCODING 65
SWIDTH 480 0
DWIDTH 8 0
BBX 8 16 0 -2
BITMAP
00
10
28
28
28
44
44
44
44
7C
82
82
82
C6
00
00
ENDCHAR
STARTCHAR 0042
ENCODING 66
SWIDTH 480 0
DWIDTH 8 0
BBX 8 16 0 -2
BITMAP
00
F8
44
42
42
42
44
78
44
42
42
42
42
FC
00
00
ENDCHAR
STARTCHAR 0043
ENCODING 67
SWIDTH 480 0
DWIDTH 8 0
BBX 8 16 0 -2
BITMAP
00
3A
46
42
80
80
80
80
80
80
82
42
42
3C
00
00
ENDCHAR
STARTCHAR 0044
ENCODING 68
SWIDTH 480 0
DWIDTH 8 0
BBX 8 16 0 -2
BITMAP
00
F8
44
44
42
42
42
42
42
42
42
44
44
F8
00
00
ENDCHAR
STARTCHAR 0045
ENCODING 69
SWIDTH 480 0
DWIDTH 8 0
BBX 8 16 0 -2
BITMAP
00
FE
42
42
40
48
48
78
48
48
42
42
42
FE
00
00
ENDCHAR
STARTCHAR 0046
ENCODING 70
SWIDTH 480 0
DWIDTH 8 0
BBX 8 16 0 -2
BITMAP
00
FE
42
42
40
48
48
78
48
48
40
40
40
F0
00
00
ENDCHAR
STARTCHAR 0047
ENCODING 71
SWIDTH 480 0
DWIDTH 8 0
BBX 8 16 0 -2
BITMAP
00
1A
26
42
40
80
80
8F
82
82
82
42
66
1A
00
00
ENDCHAR
STARTCHAR 0048
ENCODING 72
SWIDTH 480 0
DWIDTH 8 0
BBX 8 16 0 -2
BITMAP
00
E7
42
42
42
42
7E
42
42
42
42
42
42
E7
00
00
ENDCHAR
STARTCHAR 0049
ENCODING 73
SWIDTH 480 0
DWIDTH 8 0
BBX 8 16 0 -2
BITMAP
00
FE
10
10
10
10
10
10
10
10
10
10
10
FE
00
00
ENDCHAR
STARTCHAR 004A
ENCODING 74
SWIDTH 480 0
DWIDTH 8 0
BBX 8 16 0 -2
BITMAP
00
1F
02
02
02
02
02
02
02
82
82
82
44
38
00
00
ENDCHAR
STARTCHAR 004B
ENCODING 75
SWIDTH 480 0
DWIDTH 8 0
BBX 8 16 0 -2
BITMAP
00
E6
44
44
48
48
70
50
48
48
44
44
42
E3
00
00
ENDCHAR
STARTCHAR 004C
ENCODING 76
SWIDTH 480 0
DWIDTH 8 0
BBX 8 16 0 -2
BITMAP
00
F0
40
40
40
40
40
40
40
40
42
42
42
FE
00
00
ENDCHAR
STARTCHAR 004D
ENCODING 77
SWIDTH 480 0
DWIDTH 8 0
BBX 8 16 0 -2
BITMAP
00
82
C6
AA
AA
AA
92
92
92
82
82
82
82
C6
00
00
ENDCHAR
STARTCHAR 004E
ENCODING 78
SWIDTH 480 0
DWIDTH 8 0
BBX 8 16 0 -2
BITMAP
00
87
C2
A2
A2
A2
92
92
92
8A
8A
8A
86
C2
00
00
ENDCHAR
STARTCHAR 004F
ENCODING 79
SWIDTH 480 0
DWIDTH 8 0
BBX 8 16 0 -2
BITMAP
00
38
44
82
82
82
82
82
82
82
82
82
44
38
00
00
ENDCHAR
STARTCHAR 0050
ENCODING 80
SWIDTH 480 0
DWIDTH 8 0
BBX 8 16 0 -2
BITMAP
00
F8
44
42
42
42
42
44
78
40
40
40
40
F0
00
00
ENDCHAR
STARTCHAR 0051
ENCODING 81
SWIDTH 480 0
DWIDTH 8 0
BBX 8 16 0 -2
BITMAP
00
38
44
44
82
82
82
82
82
82
BA
44
44
38
08
06
ENDCHAR
STARTCHAR 0052
ENCODING 82
SWIDTH 480 0
DWIDTH 8 0
BBX 8 16 0 -2
BITMAP
00
F8
44
42
42
42
44
78
48
44
44
44
42
E3
00
00
ENDCHAR
STARTCHAR 0053
ENCODING 83
SWIDTH 480 0
DWIDTH 8 0
BBX 8 16 0 -2
BITMAP
00
34
4C
84
80
80
60
18
04
82
82
82
C4
B8
00
00
ENDCHAR
STARTCHAR 0054
ENCODING 84
SWIDTH 480 0
DWIDTH 8 0
BBX 8 16 0 -2
BITMAP
00
FE
92
92
10
10
10
10
10
10
10
10
10
7C
00
00
ENDCHAR
STARTCHAR 0055
ENCODING 85
SWIDTH 480 0
DWIDTH 8 0
BBX 8 16 0 -2
BITMAP
00
E7
42
42
42
42
42
42
42
42
42
42
42
3C
00
00
ENDCHAR
STARTCHAR 0056
ENCODING 86
SWIDTH 480 0
DWIDTH 8 0
BBX 8 16 0 -2
BITMAP
00
C6
82
82
82
82
44
44
44
44
28
28
10
10
00
00
ENDCHAR
STARTCHAR 0057
ENCODING 87
SWIDTH 480 0
DWIDTH 8 0
BBX 8 16 0 -2
BITMAP
00
C6
82
82
82
92
92
92
AA
AA
AA
44
44
44
00
00
ENDCHAR
STARTCHAR 0058
ENCODING 88
SWIDTH 480 0
DWIDTH 8 0
BBX 8 16 0 -2
BITMAP
00
EE
44
44
28
28
10
28
28
28
44
44
82
C6
00
00
ENDCHAR
STARTCHAR 0059
ENCODING 89
SWIDTH 480 0
DWIDTH 8 0
BBX 8 16 0 -2
BITMAP
00
C6
82
44
44
44
28
28
10
10
10
10
10
7C
00
00
ENDCHAR
STARTCHAR 005A
ENCODING 90
SWIDTH 480 0
DWIDTH 8 0
BBX 8 16 0 -2
BITMAP
00
FE
84
88
08
10
10
10
20
20
42
42
82
FE
00
00
ENDCHAR
STARTCHAR 005B
ENCODING 91
SWIDTH 480 0
DWIDTH 8 0
BBX 8 16 0 -2
BITMAP
1E
10
10
10
10
10
10
10
10
10
10
10
10
10
10
1E
ENDCHAR
STARTCHAR 005C
ENCODING 92
SWIDTH 480 0
DWIDTH 8 0
BBX 8 16 0 -2
BITMAP
82
82
44
44
FE
28
10
FE
10
10
10
10
10
38
00
00
ENDCHAR
STARTCHAR 005D
ENCODING 93
SWIDTH 480 0
DWIDTH 8 0
BBX 8 16 0 -2
BITMAP
F0
10
10
10
10
10
10
10
10
10
10
10
10
10
10
F0
ENDCHAR
STARTCHAR 005E
ENCODING 94
SWIDTH 480 0
DWIDTH 8 0
BBX 8 16 0 -2
BITMAP
10
28
44
82
00
00
00
00
00
00
00
00
00
00
00
00
ENDCHAR
STARTCHAR 005F
ENCODING 95
SWIDTH 480 0
DWIDTH 8 0
BBX 8 16 0 -2
BITMAP
00
00
00
00
00
00
00
00
00
00
00
00
00
00
00
FE
ENDCHAR
STARTCHAR 0060
ENCODING 96
SWIDTH 480 0
DWIDTH 8 0
BBX 8 16 0 -2
BITMAP
30
30
20
20
10
00
00
00
00
00
00
00
00
00
00
00
ENDCHAR
STARTCHAR 0061
ENCODING 97
SWIDTH 480 0
DWIDTH 8 0
BBX 8 16 0 -2
BITMAP
00
00
00
00
00
3C
42
02
3E
42
82
82
86
7B
00
00
ENDCHAR
STARTCHAR 0062
ENCODING 98
SWIDTH 480 0
DWIDTH 8 0
BBX 8 16 0 -2
BITMAP
00
C0
40
40
40
78
44
42
42
42
42
42
44
78
00
00
ENDCHAR
STARTCHAR 0063
ENCODING 99
SWIDTH 480 0
DWIDTH 8 0
BBX 8 16 0 -2
BITMAP
00
00
00
00
00
3A
46
82
80
80
80
82
42
3C
00
00
ENDCHAR
STARTCHAR 0064
ENCODING 100
SWIDTH 480 0
DWIDTH 8 0
BBX 8 16 0 -2
BITMAP
00
06
04
04
04
3C
44
84
84
84
84
84
44
3E
00
00
ENDCHAR
STARTCHAR 0065
ENCODING 101
SWIDTH 480 0
DWIDTH 8 0
BBX 8 16 0 -2
BITMAP
00
00
00
00
00
38
44
82
FE
80
80
82
42
3C
00
00
ENDCHAR
STARTCHAR 0066
ENCODING 102
SWIDTH 480 0
DWIDTH 8 0
BBX 8 16 0 -2
BITMAP
00
0E
11
10
10
FE
10
10
10
10
10
10
10
7C
00
00
ENDCHAR
STARTCHAR 0067
ENCODING 103
SWIDTH 480 0
DWIDTH 8 0
BBX 8 16 0 -2
BITMAP
00
00
00
00
00
3B
44
44
44
38
40
78
84
82
82
7C
ENDCHAR
STARTCHAR 0068
ENCODING 104
SWIDTH 480 0
DWIDTH 8 0
BBX 8 16 0 -2
BITMAP
00
C0
40
40
40
5C
62
42
42
42
42
42
42
E7
00
00
ENDCHAR
STARTCHAR 0069
ENCODING 105
SWIDTH 480 0
DWIDTH 8 0
BBX 8 16 0 -2
BITMAP
18
18
00
00
00
78
08
08
08
08
08
08
08
FF
00
00
ENDCHAR
STARTCHAR 006A
ENCODING 106
SWIDTH 480 0
DWIDTH 8 0
BBX 8 16 0 -2
BITMAP
06
06
00
00
00
3E
02
02
02
02
02
02
82
82
44
38
ENDCHAR
STARTCHAR 006B
ENCODING 107
SWIDTH 480 0
DWIDTH 8 0
BBX 8 16 0 -2
BITMAP
00
C0
40
40
40
42
44
48
58
64
44
42
42
E3
00
00
ENDCHAR
STARTCHAR 006C
ENCODING 108
SWIDTH 480 0
DWIDTH 8 0
BBX 8 16 0 -2
BITMAP
00
78
08
08
08
08
08
08
08
08
08
08
08
FF
00
00
ENDCHAR
STARTCHAR 006D
ENCODING 109
SWIDTH 480 0
DWIDTH 8 0
BBX 8 16 0 -2
BITMAP
00
00
00
00
00
6C
92
92
92
92
92
92
92
DB
00
00
ENDCHAR
STARTCHAR 006E
ENCODING 110
SWIDTH 480 0
DWIDTH 8 0
BBX 8 16 0 -2
BITMAP
00
00
00
00
00
DC
62
42
42
42
42
42
42
E7
00
00
ENDCHAR
STARTCHAR 006F
ENCODING 111
SWIDTH 480 0
DWIDTH 8 0
BBX 8 16 0 -2
BITMAP
00
00
00
00
00
38
44
82
82
82
82
82
44
38
00
00
ENDCHAR
STARTCHAR 0070
ENCODING 112
SWIDTH 480 0
DWIDTH 8 0
BBX 8 16 0 -2
BITMAP
00
00
00
00
00
F8
44
42
42
42
42
44
78
40
40
F0
ENDCHAR
STARTCHAR 0071
ENCODING 113
SWIDTH 480 0
DWIDTH 8 0
BBX 8 16 0 -2
BITMAP
00
00
00
00
00
3E
44
84
84
84
84
44
3C
04
04
1E
ENDCHAR
STARTCHAR 0072
ENCODING 114
SWIDTH 480 0
DWIDTH 8 0
BBX 8 16 0 -2
BITMAP
00
00
00
00
00
EC
32
22
20
20
20
20
20
FC
00
00
ENDCHAR
STARTCHAR 0073
ENCODING 115
SWIDTH 480 0
DWIDTH 8 0
BBX 8 16 0 -2
BITMAP
00
00
00
00
00
3A
46
42
40
3C
02
82
C2
BC
00
00
ENDCHAR
STARTCHAR 0074
ENCODING 116
SWIDTH 480 0
DWIDTH 8 0
BBX 8 16 0 -2
BITMAP
00
00
20
20
20
FC
20
20
20
20
20
22
22
1C
00
00
ENDCHAR
STARTCHAR 0075
ENCODING 117
SWIDTH 480 0
DWIDTH 8 0
BBX 8 16 0 -2
BITMAP
00
00
00
00
00
C6
42
42
42
42
42
42
46
39
00
00
ENDCHAR
STARTCHAR 0076
ENCODING 118
SWIDTH 480 0
DWIDTH 8 0
BBX 8 16 0 -2
BITMAP
00
00
00
00
00
C6
82
82
44
44
44
28
28
10
00
00
ENDCHAR
STARTCHAR 0077
ENCODING 119
SWIDTH 480 0
DWIDTH 8 0
BBX 8 16 0 -2
BITMAP
00
00
00
00
00
92
92
92
92
AA
AA
44
44
44
00
00
ENDCHAR
STARTCHAR 0078
ENCODING 120
SWIDTH 480 0
DWIDTH 8 0
BBX 8 16 0 -2
BITMAP
00
00
00
00
00
EE
44
28
28
10
28
28
44
EE
00
00
ENDCHAR
STARTCHAR 0079
ENCODING 121
SWIDTH 480 0
DWIDTH 8 0
BBX 8 16 0 -2
BITMAP
00
00
00
00
00
E7
42
22
24
14
08
08
10
90
A0
40
ENDCHAR
STARTCHAR 007A
ENCODING 122
SWIDTH 480 0
DWIDTH 8 0
BBX 8 16 0 -2
BITMAP
00
00
00
00
00
7E
44
08
08
10
10
22
42
FE
00
00
ENDCHAR
STARTCHAR 007B
ENCODING 123
SWIDTH 480 0
DWIDTH 8 0
BBX 8 16 0 -2
BITMAP
06
08
08
08
08
08
10
20
10
08
08
08
08
08
08
06
ENDCHAR
STARTCHAR 007C
ENCODING 124
SWIDTH 480 0
DWIDTH 8 0
BBX 8 16 0 -2
BITMAP
10
10
10
10
10
10
10
10
10
10
10
10
10
10
10
10
ENDCHAR
STARTCHAR 007D
ENCODING 125
SWIDTH 480 0
DWIDTH 8 0
BBX 8 16 0 -2
BITMAP
C0
20
20
20
20
20
10
08
10
20
20
20
20
20
20
C0
ENDCHAR
STARTCHAR 007E
ENCODING 126
SWIDTH 480 0
DWIDTH 8 0
BBX 8 16 0 -2
BITMAP
60
92
0C
00
00
00
00
00
00
00
00
00
00
00
00
00
ENDCHAR
STARTCHAR 00A0
ENCODING 160
SWIDTH 960 0
DWIDTH 16 0
BBX 15 1 0 -2
BITMAP
AAAA
ENDCHAR
STARTCHAR 00A1
ENCODING 161
SWIDTH 960 0
DWIDTH 16 0
BBX 2 13 7 0
BITMAP
C0
C0
00
00
80
80
80
80
C0
C0
C0
C0
C0
ENDCHAR
STARTCHAR 00A2
ENCODING 162
SWIDTH 480 0
DWIDTH 8 0
BBX 7 13 0 -1
BITMAP
10
3C
52
92
90
90
90
90
90
92
52
3C
10
ENDCHAR
STARTCHAR 00A3
ENCODING 163
SWIDTH 480 0
DWIDTH 8 0
BBX 6 11 1 -1
BITMAP
18
24
20
20
20
F8
20
20
78
A4
40
ENDCHAR
STARTCHAR 00A4
ENCODING 164
SWIDTH 960 0
DWIDTH 16 0
BBX 12 12 2 0
BITMAP
8010
4020
2F40
1080
2040
2040
2040
2040
1080
2F40
4020
8010
ENDCHAR
STARTCHAR 00A5
ENCODING 165
SWIDTH 480 0
DWIDTH 8 0
BBX 7 14 0 -1
BITMAP
80
80
40
40
20
20
10
10
08
08
04
04
02
02
ENDCHAR
STARTCHAR 00A6
ENCODING 166
SWIDTH 960 0
DWIDTH 16 0
BBX 1 14 8 -1
BITMAP
80
80
80
80
80
80
00
00
80
80
80
80
80
80
ENDCHAR
STARTCHAR 00A7
ENCODING 167
SWIDTH 960 0
DWIDTH 16 0
BBX 8 14 4 -1
BITMAP
7C
C7
C3
E0
78
CE
83
C1
73
1E
07
C3
E3
3E
ENDCHAR
STARTCHAR 00A8
ENCODING 168
SWIDTH 960 0
DWIDTH 16 0
BBX 6 2 5 12
BITMAP
CC
CC
ENDCHAR
STARTCHAR 00A9
ENCODING 169
SWIDTH 960 0
DWIDTH 16 0
BBX 16 16 0 -2
BITMAP
03C0
0C30
1008
23D4
4432
4812
8811
8801
8801
8801
4812
4422
23C4
1008
0C30
03C0
ENDCHAR
STARTCHAR 00AA
ENCODING 170
SWIDTH 960 0
DWIDTH 16 0
BBX 6 7 5 7
BITMAP
70
48
04
7C
84
8C
74
ENDCHAR
STARTCHAR 00AB
ENCODING 171
SWIDTH 960 0
DWIDTH 16 0
BBX 8 7 7 1
BITMAP
11
22
44
88
44
22
11
ENDCHAR
STARTCHAR 00AC
ENCODING 172
SWIDTH 480 0
DWIDTH 8 0
BBX 7 4 0 3
BITMAP
FE
FE
06
06
ENDCHAR
STARTCHAR 00AD
ENCODING 173
SWIDTH 960 0
DWIDTH 16 0
BBX 7 1 1 6
BITMAP
FE
ENDCHAR
STARTCHAR 00AE
ENCODING 174
SWIDTH 960 0
DWIDTH 16 0
BBX 16 16 0 -2
BITMAP
03C0
0C30
1008
27C4
4422
4412
8421
87C1
8421
8421
4412
4412
2004
1008
0C30
03C0
ENDCHAR
STARTCHAR 00AF
ENCODING 175
SWIDTH 960 0
DWIDTH 16 0
BBX 8 1 4 11
BITMAP
FF
ENDCHAR
STARTCHAR 00B0
ENCODING 176
SWIDTH 960 0
DWIDTH 16 0
BBX 4 4 1 9
BITMAP
60
90
90
60
ENDCHAR
STARTCHAR 00B1
ENCODING 177
SWIDTH 960 0
DWIDTH 16 0
BBX 12 12 2 0
BITMAP
0400
0400
0400
0400
FFF0
0400
0400
0400
0400
0000
0000
FFF0
ENDCHAR
STARTCHAR 00B2
ENCODING 178
SWIDTH 960 0
DWIDTH 16 0
BBX 6 7 5 7
BITMAP
78
84
04
78
80
80
FC
ENDCHAR
STARTCHAR 00B3
ENCODING 179
SWIDTH 960 0
DWIDTH 16 0
BBX 6 7 5 7
BITMAP
78
84
04
78
04
84
78
ENDCHAR
STARTCHAR 00B4
ENCODING 180
SWIDTH 960 0
DWIDTH 16 0
BBX 3 3 7 11
BITMAP
60
40
80
ENDCHAR
STARTCHAR 00B5
ENCODING 181
SWIDTH 480 0
DWIDTH 8 0
BBX 7 9 0 -2
BITMAP
22
22
22
44
44
6C
54
82
80
ENDCHAR
STARTCHAR 00B6
ENCODING 182
SWIDTH 960 0
DWIDTH 16 0
BBX 16 16 0 -2
BITMAP
0000
07E0
0F20
1F20
1F20
1F20
0F20
0720
0120
0120
0120
0120
0120
0120
0120
0120
ENDCHAR
STARTCHAR 00B7
ENCODING 183
SWIDTH 960 0
DWIDTH 16 0
BBX 16 16 0 -2
BITMAP
0000
0000
0000
0000
0000
0180
03C0
03C0
0180
0000
0000
0000
0000
0000
0000
0000
ENDCHAR
STARTCHAR 00B8
ENCODING 184
SWIDTH 960 0
DWIDTH 16 0
BBX 16 16 0 -2
BITMAP
0000
0000
0000
0000
0000
0000
0000
0000
0000
0000
0000
0080
00C0
0020
0120
00C0
ENDCHAR
STARTCHAR 00B9
ENCODING 185
SWIDTH 960 0
DWIDTH 16 0
BBX 16 16 0 -2
BITMAP
0080
0180
0680
0080
0080
0080
07E0
0000
0000
0000
0000
0000
0000
0000
0000
0000
ENDCHAR
STARTCHAR 00BA
ENCODING 186
SWIDTH 960 0
DWIDTH 16 0
BBX 16 16 0 -2
BITMAP
0380
0440
0820
0820
0820
0440
0380
0000
0000
0000
0000
0000
0000
0000
0000
0000
ENDCHAR
STARTCHAR 00BB
ENCODING 187
SWIDTH 960 0
DWIDTH 16 0
BBX 16 16 0 -2
BITMAP
0000
0000
0000
0000
0000
0000
0110
0088
0044
0022
0044
0088
0110
0000
0000
0000
ENDCHAR
STARTCHAR 00BC
ENCODING 188
SWIDTH 960 0
DWIDTH 16 0
BBX 16 16 0 -2
BITMAP
0080
0180
0680
0080
0080
07F0
0000
7FFE
0040
00C0
0140
0240
0440
07F0
0040
0040
ENDCHAR
STARTCHAR 00BD
ENCODING 189
SWIDTH 960 0
DWIDTH 16 0
BBX 16 16 0 -2
BITMAP
0080
0180
0680
0080
0080
07F0
0000
7FFE
0000
03E0
0410
0010
03E0
0400
0400
07F0
ENDCHAR
STARTCHAR 00BE
ENCODING 190
SWIDTH 960 0
DWIDTH 16 0
BBX 16 16 0 -2
BITMAP
03E0
0410
01E0
0010
0410
03E0
0000
7FFE
0040
00C0
0140
0240
0440
07F0
0040
0040
ENDCHAR
STARTCHAR 00BF
ENCODING 191
SWIDTH 960 0
DWIDTH 16 0
BBX 16 16 0 -2
BITMAP
0000
0180
0180
0000
0000
0080
0080
0300
0C00
1010
1008
1008
0810
07E0
0000
0000
ENDCHAR
STARTCHAR 00C0
ENCODING 192
SWIDTH 960 0
DWIDTH 16 0
BBX 16 16 0 -2
BITMAP
0300
0100
0080
0100
0280
06C0
0440
0C60
0820
1FF0
1010
3018
2008
F83E
0000
0000
ENDCHAR
STARTCHAR 00C1
ENCODING 193
SWIDTH 960 0
DWIDTH 16 0
BBX 16 16 0 -2
BITMAP
0180
0100
0200
0100
0280
06C0
0440
0C60
0820
1FF0
1010
3018
2008
F87E
0000
0000
ENDCHAR
STARTCHAR 00C2
ENCODING 194
SWIDTH 960 0
DWIDTH 16 0
BBX 16 16 0 -2
BITMAP
0100
0280
0440
0100
0280
06C0
0440
0C60
0820
1FF0
1010
3018
2008
F83E
0000
0000
ENDCHAR
STARTCHAR 00C3
ENCODING 195
SWIDTH 960 0
DWIDTH 16 0
BBX 16 16 0 -2
BITMAP
0320
04C0
0100
0380
0280
06C0
0440
0C60
0820
1FF0
1010
3018
2008
F83E
0000
0000
ENDCHAR
STARTCHAR 00C4
ENCODING 196
SWIDTH 960 0
DWIDTH 16 0
BBX 16 16 0 -2
BITMAP
06C0
06C0
0100
0380
0280
06C0
0440
0C60
0820
1FF0
1010
3018
2008
F83E
0000
0000
ENDCHAR
STARTCHAR 00C5
ENCODING 197
SWIDTH 960 0
DWIDTH 16 0
BBX 16 16 0 -2
BITMAP
0180
0240
0180
0100
0280
06C0
0440
0C60
0820
1FF0
1010
3018
2008
F83E
0000
0000
ENDCHAR
STARTCHAR 00C6
ENCODING 198
SWIDTH 960 0
DWIDTH 16 0
BBX 16 16 0 -2
BITMAP
0000
03FC
0184
0382
0280
0690
0490
0CF0
0890
1F90
1080
3082
2084
71FC
0000
0000
ENDCHAR
STARTCHAR 00C7
ENCODING 199
SWIDTH 960 0
DWIDTH 16 0
BBX 16 16 0 -2
BITMAP
0000
03C8
0C28
1818
1008
3008
2000
2000
2000
3000
1008
1818
0C30
03C0
0080
0380
ENDCHAR
STARTCHAR 00C8
ENCODING 200
SWIDTH 960 0
DWIDTH 16 0
BBX 16 16 0 -2
BITMAP
0300
0100
0080
3FF8
0808
0804
0840
0840
0FC0
0840
0840
0804
0808
3FF8
0000
0000
ENDCHAR
STARTCHAR 00C9
ENCODING 201
SWIDTH 960 0
DWIDTH 16 0
BBX 16 16 0 -2
BITMAP
0180
0100
0200
3FF8
0808
0804
0840
0840
0FC0
0840
0840
0804
0808
3FF8
0000
0000
ENDCHAR
STARTCHAR 00CA
ENCODING 202
SWIDTH 960 0
DWIDTH 16 0
BBX 16 16 0 -2
BITMAP
0100
0280
0440
3FF8
0808
0804
0840
0840
0FC0
0840
0840
0804
0808
3FF8
0000
0000
ENDCHAR
STARTCHAR 00CB
ENCODING 203
SWIDTH 960 0
DWIDTH 16 0
BBX 16 16 0 -2
BITMAP
06C0
06C0
0000
3FF8
0808
0804
0840
0840
0FC0
0840
0840
0804
0808
3FF8
0000
0000
ENDCHAR
STARTCHAR 00CC
ENCODING 204
SWIDTH 960 0
DWIDTH 16 0
BBX 16 16 0 -2
BITMAP
0300
0100
0080
07C0
0100
0100
0100
0100
0100
0100
0100
0100
0100
07C0
0000
0000
ENDCHAR
STARTCHAR 00CD
ENCODING 205
SWIDTH 960 0
DWIDTH 16 0
BBX 16 16 0 -2
BITMAP
0180
0100
0200
07C0
0100
0100
0100
0100
0100
0100
0100
0100
0100
07C0
0000
0000
ENDCHAR
STARTCHAR 00CE
ENCODING 206
SWIDTH 960 0
DWIDTH 16 0
BBX 16 16 0 -2
BITMAP
0100
0280
0440
07C0
0100
0100
0100
0100
0100
0100
0100
0100
0100
07C0
0000
0000
ENDCHAR
STARTCHAR 00CF
ENCODING 207
SWIDTH 960 0
DWIDTH 16 0
BBX 16 16 0 -2
BITMAP
06C0
06C0
0000
07C0
0100
0100
0100
0100
0100
0100
0100
0100
0100
07C0
0000
0000
ENDCHAR
STARTCHAR 00D0
ENCODING 208
SWIDTH 960 0
DWIDTH 16 0
BBX 16 16 0 -2
BITMAP
0000
3FC0
0830
0818
0808
080C
0804
3E04
0804
080C
0808
0818
0830
3FC0
0000
0000
ENDCHAR
STARTCHAR 00D1
ENCODING 209
SWIDTH 960 0
DWIDTH 16 0
BBX 16 16 0 -2
BITMAP
0320
04C0
703E
1808
1C08
1608
1308
1188
10C8
1048
1068
1038
1018
7808
0000
0000
ENDCHAR
STARTCHAR 00D2
ENCODING 210
SWIDTH 960 0
DWIDTH 16 0
BBX 16 16 0 -2
BITMAP
0300
0100
0080
03C0
0C30
1818
1008
2004
2004
2004
1008
1818
0C30
03C0
0000
0000
ENDCHAR
STARTCHAR 00D3
ENCODING 211
SWIDTH 960 0
DWIDTH 16 0
BBX 16 16 0 -2
BITMAP
0180
0100
0200
03C0
0C30
1818
1008
2004
2004
2004
1008
1818
0C30
03C0
0000
0000
ENDCHAR
STARTCHAR 00D4
ENCODING 212
SWIDTH 960 0
DWIDTH 16 0
BBX 16 16 0 -2
BITMAP
0100
0280
0440
03C0
0C30
1818
1008
2004
2004
2004
1008
1818
0C30
03C0
0000
0000
ENDCHAR
STARTCHAR 00D5
ENCODING 213
SWIDTH 960 0
DWIDTH 16 0
BBX 16 16 0 -2
BITMAP
0320
04C0
0000
03C0
0C30
1818
1008
2004
2004
2004
1008
1818
0C30
03C0
0000
0000
ENDCHAR
STARTCHAR 00D6
ENCODING 214
SWIDTH 960 0
DWIDTH 16 0
BBX 16 16 0 -2
BITMAP
0660
0660
0000
03C0
0C30
1818
1008
2004
2004
2004
1008
1818
0C30
03C0
0000
0000
ENDCHAR
STARTCHAR 00D7
ENCODING 215
SWIDTH 960 0
DWIDTH 16 0
BBX 16 16 0 -2
BITMAP
0000
0000
0000
1008
0810
0420
0240
0180
0180
0240
0420
0810
1008
0000
0000
0000
ENDCHAR
STARTCHAR 00D8
ENCODING 216
SWIDTH 960 0
DWIDTH 16 0
BBX 16 16 0 -2
BITMAP
0000
03C2
0C34
1818
1018
302C
2044
2084
2104
320C
1408
1818
1C30
23C0
0000
0000
ENDCHAR
STARTCHAR 00D9
ENCODING 217
SWIDTH 960 0
DWIDTH 16 0
BBX 16 16 0 -2
BITMAP
0300
0100
0080
7C7C
1010
1010
1010
1010
1010
1010
1010
1830
0C60
0380
0000
0000
ENDCHAR
STARTCHAR 00DA
ENCODING 218
SWIDTH 960 0
DWIDTH 16 0
BBX 16 16 0 -2
BITMAP
0180
0100
0200
7C7C
1010
1010
1010
1010
1010
1010
1010
1830
0C60
0380
0000
0000
ENDCHAR
STARTCHAR 00DB
ENCODING 219
SWIDTH 960 0
DWIDTH 16 0
BBX 16 16 0 -2
BITMAP
0100
0280
0440
783C
1010
1010
1010
1010
1010
1010
1010
1830
0C60
0380
0000
0000
ENDCHAR
STARTCHAR 00DC
ENCODING 220
SWIDTH 960 0
DWIDTH 16 0
BBX 16 16 0 -2
BITMAP
06C0
06C0
0000
7C7C
1010
1010
1010
1010
1010
1010
1010
1830
0C60
0380
0000
0000
ENDCHAR
STARTCHAR 00DD
ENCODING 221
SWIDTH 960 0
DWIDTH 16 0
BBX 16 16 0 -2
BITMAP
0180
0100
7A7C
1010
1830
0C60
0440
06C0
0380
0100
0100
0100
0100
07C0
0000
0000
ENDCHAR
STARTCHAR 00DE
ENCODING 222
SWIDTH 960 0
DWIDTH 16 0
BBX 16 16 0 -2
BITMAP
0000
1F00
0400
0400
07F0
0408
0404
0404
0404
0408
07F0
0400
0400
1F00
0000
0000
ENDCHAR
STARTCHAR 00DF
ENCODING 223
SWIDTH 960 0
DWIDTH 16 0
BBX 16 16 0 -2
BITMAP
0000
01C0
0320
0610
0410
0420
05C0
0420
0410
0410
0410
0410
0530
0CE0
0000
0000
ENDCHAR
STARTCHAR 00E0
ENCODING 224
SWIDTH 960 0
DWIDTH 16 0
BBX 16 16 0 -2
BITMAP
0000
0000
0300
0100
0080
0000
07C0
0020
0020
07E0
0820
0820
0868
0798
0000
0000
ENDCHAR
STARTCHAR 00E1
ENCODING 225
SWIDTH 960 0
DWIDTH 16 0
BBX 16 16 0 -2
BITMAP
0000
0000
0180
0100
0200
0000
07C0
0020
0020
07E0
0820
0820
0868
0798
0000
0000
ENDCHAR
STARTCHAR 00E2
ENCODING 226
SWIDTH 960 0
DWIDTH 16 0
BBX 16 16 0 -2
BITMAP
0000
0000
0100
0280
0440
0000
07C0
0020
0020
07E0
0820
0820
0868
0798
0000
0000
ENDCHAR
STARTCHAR 00E3
ENCODING 227
SWIDTH 960 0
DWIDTH 16 0
BBX 16 16 0 -2
BITMAP
0000
0000
0000
0320
04C0
0000
07C0
0020
0020
07E0
0820
0820
0868
0798
0000
0000
ENDCHAR
STARTCHAR 00E4
ENCODING 228
SWIDTH 960 0
DWIDTH 16 0
BBX 16 16 0 -2
BITMAP
0000
0000
0000
06C0
06C0
0000
07C0
0020
0020
07E0
0820
0820
0868
0798
0000
0000
ENDCHAR
STARTCHAR 00E5
ENCODING 229
SWIDTH 960 0
DWIDTH 16 0
BBX 16 16 0 -2
BITMAP
0000
0000
0100
0280
0100
0000
07C0
0020
0020
07E0
0820
0820
0868
0798
0000
0000
ENDCHAR
STARTCHAR 00E6
ENCODING 230
SWIDTH 960 0
DWIDTH 16 0
BBX 16 16 0 -2
BITMAP
0000
0000
0000
0000
0000
0000
3E78
0184
0102
3FFE
4100
4100
4382
3C7C
0000
0000
ENDCHAR
STARTCHAR 00E7
ENCODING 231
SWIDTH 960 0
DWIDTH 16 0
BBX 16 16 0 -2
BITMAP
0000
0000
0000
0000
0000
0000
03E0
0410
0800
0800
0800
0800
0410
03E0
0080
0380
ENDCHAR
STARTCHAR 00E8
ENCODING 232
SWIDTH 960 0
DWIDTH 16 0
BBX 16 16 0 -2
BITMAP
0000
0000
0300
0100
0080
0000
03C0
0420
0810
0FF0
0800
0800
0410
03E0
0000
0000
ENDCHAR
STARTCHAR 00E9
ENCODING 233
SWIDTH 960 0
DWIDTH 16 0
BBX 16 16 0 -2
BITMAP
0000
0000
00C0
0080
0100
0000
03C0
0420
0810
0FF0
0800
0800
0410
03E0
0000
0000
ENDCHAR
STARTCHAR 00EA
ENCODING 234
SWIDTH 960 0
DWIDTH 16 0
BBX 16 16 0 -2
BITMAP
0000
0000
0100
0280
0440
0000
03C0
0420
0810
0FF0
0800
0800
0410
03E0
0000
0000
ENDCHAR
STARTCHAR 00EB
ENCODING 235
SWIDTH 960 0
DWIDTH 16 0
BBX 16 16 0 -2
BITMAP
0000
0000
0000
0660
0660
0000
03C0
0420
0810
0FF0
0800
0800
0410
03E0
0000
0000
ENDCHAR
STARTCHAR 00EC
ENCODING 236
SWIDTH 960 0
DWIDTH 16 0
BBX 16 16 0 -2
BITMAP
0000
0000
0300
0100
0080
0000
0380
0080
0080
0080
0080
0080
0080
03E0
0000
0000
ENDCHAR
STARTCHAR 00ED
ENCODING 237
SWIDTH 960 0
DWIDTH 16 0
BBX 16 16 0 -2
BITMAP
0000
0000
00C0
0080
0100
0000
0380
0080
0080
0080
0080
0080
0080
03E0
0000
0000
ENDCHAR
STARTCHAR 00EE
ENCODING 238
SWIDTH 960 0
DWIDTH 16 0
BBX 16 16 0 -2
BITMAP
0000
0000
0080
0140
0220
0000
0380
0080
0080
0080
0080
0080
0080
03E0
0000
0000
ENDCHAR
STARTCHAR 00EF
ENCODING 239
SWIDTH 960 0
DWIDTH 16 0
BBX 16 16 0 -2
BITMAP
0000
0000
0000
0360
0360
0000
0380
0080
0080
0080
0080
0080
0080
03E0
0000
0000
ENDCHAR
STARTCHAR 00F0
ENCODING 240
SWIDTH 960 0
DWIDTH 16 0
BBX 16 16 0 -2
BITMAP
0000
0F0C
01F0
00E0
0320
0020
07B0
0C50
1830
1010
1010
1030
1820
0C60
0780
0000
ENDCHAR
STARTCHAR 00F1
ENCODING 241
SWIDTH 960 0
DWIDTH 16 0
BBX 16 16 0 -2
BITMAP
0000
0000
0000
0320
04C0
0000
1DE0
0630
0410
0410
0410
0410
0410
1E3C
0000
0000
ENDCHAR
STARTCHAR 00F2
ENCODING 242
SWIDTH 960 0
DWIDTH 16 0
BBX 16 16 0 -2
BITMAP
0000
0000
0300
0100
0080
0000
03C0
0420
0810
0810
0810
0810
0420
03C0
0000
0000
ENDCHAR
STARTCHAR 00F3
ENCODING 243
SWIDTH 960 0
DWIDTH 16 0
BBX 16 16 0 -2
BITMAP
0000
0000
00C0
0080
0100
0000
03C0
0420
0810
0810
0810
0810
0420
03C0
0000
0000
ENDCHAR
STARTCHAR 00F4
ENCODING 244
SWIDTH 960 0
DWIDTH 16 0
BBX 16 16 0 -2
BITMAP
0000
0000
0100
0280
0440
0000
03C0
0420
0810
0810
0810
0810
0420
03C0
0000
0000
ENDCHAR
STARTCHAR 00F5
ENCODING 245
SWIDTH 960 0
DWIDTH 16 0
BBX 16 16 0 -2
BITMAP
0000
0000
0000
0320
04C0
0000
03C0
0420
0810
0810
0810
0810
0420
03C0
0000
0000
ENDCHAR
STARTCHAR 00F6
ENCODING 246
SWIDTH 960 0
DWIDTH 16 0
BBX 16 16 0 -2
BITMAP
0000
0000
0000
0660
0660
0000
03C0
0420
0810
0810
0810
0810
0420
03C0
0000
0000
ENDCHAR
STARTCHAR 00F7
ENCODING 247
SWIDTH 960 0
DWIDTH 16 0
BBX 16 16 0 -2
BITMAP
0000
0000
0000
0180
0180
0000
0000
3FFC
0000
0000
0180
0180
0000
0000
0000
0000
ENDCHAR
STARTCHAR 00F8
ENCODING 248
SWIDTH 960 0
DWIDTH 16 0
BBX 16 16 0 -2
BITMAP
0000
0000
0000
0000
0000
0000
03D0
0420
0850
0890
0910
0A10
0420
0BC0
0000
0000
ENDCHAR
STARTCHAR 00F9
ENCODING 249
SWIDTH 960 0
DWIDTH 16 0
BBX 16 16 0 -2
BITMAP
0000
0000
0300
0100
0080
0000
1C70
0410
0410
0410
0410
0410
0630
03DC
0000
0000
ENDCHAR
STARTCHAR 00FA
ENCODING 250
SWIDTH 960 0
DWIDTH 16 0
BBX 16 16 0 -2
BITMAP
0000
0000
00C0
0080
0100
0000
1C70
0410
0410
0410
0410
0410
0630
03DC
0000
0000
ENDCHAR
STARTCHAR 00FB
ENCODING 251
SWIDTH 960 0
DWIDTH 16 0
BBX 16 16 0 -2
BITMAP
0000
0000
0080
0140
0220
0000
1C70
0410
0410
0410
0410
0410
0630
03DC
0000
0000
ENDCHAR
STARTCHAR 00FC
ENCODING 252
SWIDTH 960 0
DWIDTH 16 0
BBX 16 16 0 -2
BITMAP
0000
0000
0000
0360
0360
0000
1C70
0410
0410
0410
0410
0410
0630
03DC
0000
0000
ENDCHAR
STARTCHAR 00FD
ENCODING 253
SWIDTH 960 0
DWIDTH 16 0
BBX 16 16 0 -2
BITMAP
0000
0000
0060
0040
0080
0000
1E3C
0410
0630
0220
0360
0140
00C0
0180
1300
1E00
ENDCHAR
STARTCHAR 00FE
ENCODING 254
SWIDTH 960 0
DWIDTH 16 0
BBX 16 16 0 -2
BITMAP
0000
1C00
0400
0400
0400
0400
05E0
0610
0408
0408
0408
0610
05E0
0400
0400
1F00
ENDCHAR
STARTCHAR 00FF
ENCODING 255
SWIDTH 960 0
DWIDTH 16 0
BBX 16 16 0 -2
BITMAP
0000
0000
0000
0360
0360
0000
1E3C
0410
0630
0220
0360
0140
00C0
0180
1300
1E00
ENDCHAR
STARTCHAR 0100
ENCODING 256
SWIDTH 960 0
DWIDTH 16 0
BBX 16 16 0 -2
BITMAP
07C0
0000
0100
0380
0280
06C0
0440
0C60
0820
1FF0
1010
3018
2008
F83E
0000
0000
ENDCHAR
STARTCHAR 0101
ENCODING 257
SWIDTH 960 0
DWIDTH 16 0
BBX 16 16 0 -2
BITMAP
0000
0000
0000
07C0
0000
0000
07C0
0020
0020
07E0
0820
0820
0868
0798
0000
0000
ENDCHAR
STARTCHAR 0102
ENCODING 258
SWIDTH 960 0
DWIDTH 16 0
BBX 16 16 0 -2
BITMAP
0440
0380
0000
0380
0280
06C0
0440
0C60
0820
1FF0
1010
3018
2008
F83E
0000
0000
ENDCHAR
STARTCHAR 0103
ENCODING 259
SWIDTH 960 0
DWIDTH 16 0
BBX 16 16 0 -2
BITMAP
0000
0000
0000
0440
0380
0000
07C0
0020
0020
07E0
0820
0820
0868
0798
0000
0000
ENDCHAR
STARTCHAR 0104
ENCODING 260
SWIDTH 960 0
DWIDTH 16 0
BBX 16 16 0 -2
BITMAP
0000
0100
0380
0280
06C0
0440
0C60
0820
0FE0
1830
1010
3018
2008
F83E
0004
0007
ENDCHAR
STARTCHAR 0105
ENCODING 261
SWIDTH 960 0
DWIDTH 16 0
BBX 16 16 0 -2
BITMAP
0000
0000
0000
0000
0000
0000
07C0
0020
0020
07E0
0820
0820
0868
0798
0010
001C
ENDCHAR
STARTCHAR 0106
ENCODING 262
SWIDTH 960 0
DWIDTH 16 0
BBX 16 16 0 -2
BITMAP
00C0
0080
0100
03C8
0C28
0818
1808
1008
1000
1000
1808
0818
0C30
03C0
0000
0000
ENDCHAR
STARTCHAR 0107
ENCODING 263
SWIDTH 960 0
DWIDTH 16 0
BBX 16 16 0 -2
BITMAP
0000
0000
00C0
0080
0100
0000
03E0
0410
0800
0800
0800
0800
0410
03E0
0000
0000
ENDCHAR
STARTCHAR 0108
ENCODING 264
SWIDTH 960 0
DWIDTH 16 0
BBX 16 16 0 -2
BITMAP
0080
0140
0220
03C8
0C28
0818
1808
1008
1000
1000
1808
0818
0C30
03C0
0000
0000
ENDCHAR
STARTCHAR 0109
ENCODING 265
SWIDTH 960 0
DWIDTH 16 0
BBX 16 16 0 -2
BITMAP
0000
0000
0080
0140
0220
0000
03E0
0410
0800
0800
0800
0800
0410
03E0
0000
0000
ENDCHAR
STARTCHAR 010C
ENCODING 268
SWIDTH 960 0
DWIDTH 16 0
BBX 16 16 0 -2
BITMAP
0220
0140
0080
03C8
0C28
0818
1808
1008
1000
1000
1808
0818
0C30
03C0
0000
0000
ENDCHAR
STARTCHAR 010D
ENCODING 269
SWIDTH 960 0
DWIDTH 16 0
BBX 16 16 0 -2
BITMAP
0000
0000
0220
0140
0080
0000
03E0
0410
0800
0800
0800
0800
0410
03E0
0000
0000
ENDCHAR
STARTCHAR 010E
ENCODING 270
SWIDTH 960 0
DWIDTH 16 0
BBX 16 16 0 -2
BITMAP
0440
0280
0100
3FF0
0818
0808
080C
0804
0804
080C
0808
0818
0830
3FC0
0000
0000
ENDCHAR
STARTCHAR 010F
ENCODING 271
SWIDTH 960 0
DWIDTH 16 0
BBX 16 16 0 -2
BITMAP
0440
0280
0160
0020
0020
0020
07A0
0860
1020
1020
1020
1020
0860
07B8
0000
0000
ENDCHAR
STARTCHAR 0111
ENCODING 273
SWIDTH 960 0
DWIDTH 16 0
BBX 16 16 0 -2
BITMAP
0000
00E0
0020
01FC
0020
0020
07A0
0860
1020
1020
1020
1020
0860
07B8
0000
0000
ENDCHAR
STARTCHAR 0112
ENCODING 274
SWIDTH 960 0
DWIDTH 16 0
BBX 16 16 0 -2
BITMAP
07C0
0000
0000
3FF8
0808
0804
0840
0840
0FC0
0840
0840
0804
0808
3FF8
0000
0000
ENDCHAR
STARTCHAR 0113
ENCODING 275
SWIDTH 960 0
DWIDTH 16 0
BBX 16 16 0 -2
BITMAP
0000
0000
0000
07E0
0000
0000
03C0
0420
0810
0FF0
0800
0800
0410
03E0
0000
0000
ENDCHAR
STARTCHAR 0118
ENCODING 280
SWIDTH 960 0
DWIDTH 16 0
BBX 16 16 0 -2
BITMAP
0000
3FF8
0808
0804
0800
0840
0840
0FC0
0840
0840
0800
0804
0808
3FF8
0010
001C
ENDCHAR
STARTCHAR 0119
ENCODING 281
SWIDTH 960 0
DWIDTH 16 0
BBX 16 16 0 -2
BITMAP
0000
0000
0000
0000
0000
0000
03C0
0420
0810
0FF0
0800
0800
0410
03E0
0020
0038
ENDCHAR
STARTCHAR 011A
ENCODING 282
SWIDTH 960 0
DWIDTH 16 0
BBX 16 16 0 -2
BITMAP
0440
0280
0100
3FF8
0808
0804
0840
0840
0FC0
0840
0840
0804
0808
3FF8
0000
0000
ENDCHAR
STARTCHAR 011B
ENCODING 283
SWIDTH 960 0
DWIDTH 16 0
BBX 16 16 0 -2
BITMAP
0000
0000
0440
0280
0100
0000
03C0
0420
0810
0FF0
0800
0800
0410
03E0
0000
0000
ENDCHAR
STARTCHAR 011C
ENCODING 284
SWIDTH 960 0
DWIDTH 16 0
BBX 16 16 0 -2
BITMAP
0080
0140
0220
03C8
0C38
1808
3008
2000
2000
303E
1008
1818
0C28
03C8
0000
0000
ENDCHAR
STARTCHAR 011D
ENCODING 285
SWIDTH 960 0
DWIDTH 16 0
BBX 16 16 0 -2
BITMAP
0000
0000
0100
0280
0440
0000
07D8
0820
0820
0820
07C0
0800
0FF0
1008
1008
0FF0
ENDCHAR
STARTCHAR 0124
ENCODING 292
SWIDTH 960 0
DWIDTH 16 0
BBX 16 16 0 -2
BITMAP
0080
0140
0220
781E
1008
1008
1008
1FF8
1008
1008
1008
1008
1008
7C3E
0000
0000
ENDCHAR
STARTCHAR 0125
ENCODING 293
SWIDTH 960 0
DWIDTH 16 0
BBX 16 16 0 -2
BITMAP
0040
00A0
1D10
0400
0400
0400
05E0
0630
0410
0410
0410
0410
0410
1E3C
0000
0000
ENDCHAR
STARTCHAR 0127
ENCODING 295
SWIDTH 960 0
DWIDTH 16 0
BBX 16 16 0 -2
BITMAP
0000
1C00
0400
0400
1F00
0400
05E0
0630
0410
0410
0410
0410
0410
1E3C
0000
0000
ENDCHAR
STARTCHAR 012A
ENCODING 298
SWIDTH 960 0
DWIDTH 16 0
BBX 16 16 0 -2
BITMAP
07C0
0000
0000
07C0
0100
0100
0100
0100
0100
0100
0100
0100
0100
07C0
0000
0000
ENDCHAR
STARTCHAR 012B
ENCODING 299
SWIDTH 960 0
DWIDTH 16 0
BBX 16 16 0 -2
BITMAP
0000
0000
0000
03E0
0000
0000
0380
0080
0080
0080
0080
0080
0080
03E0
0000
0000
ENDCHAR
STARTCHAR 0134
ENCODING 308
SWIDTH 960 0
DWIDTH 16 0
BBX 16 16 0 -2
BITMAP
0040
00A0
0110
00F8
0020
0020
0020
0020
0020
0020
0020
1020
1840
0F80
0000
0000
ENDCHAR
STARTCHAR 0135
ENCODING 309
SWIDTH 960 0
DWIDTH 16 0
BBX 16 16 0 -2
BITMAP
0000
0000
0080
0140
0220
0000
01C0
0040
0040
0040
0040
0040
0040
0040
1080
1F00
ENDCHAR
STARTCHAR 0139
ENCODING 313
SWIDTH 960 0
DWIDTH 16 0
BBX 16 16 0 -2
BITMAP
0030
0020
1F40
0400
0400
0400
0400
0400
0400
0400
0404
0404
0404
1FFC
0000
0000
ENDCHAR
STARTCHAR 013A
ENCODING 314
SWIDTH 960 0
DWIDTH 16 0
BBX 16 16 0 -2
BITMAP
0180
0100
0200
0700
0100
0100
0100
0100
0100
0100
0100
0100
0100
07C0
0000
0000
ENDCHAR
STARTCHAR 013D
ENCODING 317
SWIDTH 960 0
DWIDTH 16 0
BBX 16 16 0 -2
BITMAP
0110
00A0
1F40
0400
0400
0400
0400
0400
0400
0400
0404
0404
0404
1FFC
0000
0000
ENDCHAR
STARTCHAR 013E
ENCODING 318
SWIDTH 960 0
DWIDTH 16 0
BBX 16 16 0 -2
BITMAP
0440
0280
0100
0700
0100
0100
0100
0100
0100
0100
0100
0100
0100
07C0
0000
0000
ENDCHAR
STARTCHAR 0141
ENCODING 321
SWIDTH 960 0
DWIDTH 16 0
BBX 16 16 0 -2
BITMAP
0000
1F00
0400
0400
0480
0500
0600
0400
0C00
1400
0404
0404
0404
1FFC
0000
0000
ENDCHAR
STARTCHAR 0142
ENCODING 322
SWIDTH 960 0
DWIDTH 16 0
BBX 16 16 0 -2
BITMAP
0000
0000
0000
0700
0100
0140
0180
0100
0300
0500
0100
0100
0100
07C0
0000
0000
ENDCHAR
STARTCHAR 0143
ENCODING 323
SWIDTH 960 0
DWIDTH 16 0
BBX 16 16 0 -2
BITMAP
00C0
0080
793E
1C08
1608
1308
1108
1188
10C8
1048
1068
1038
1018
7808
0000
0000
ENDCHAR
STARTCHAR 0144
ENCODING 324
SWIDTH 960 0
DWIDTH 16 0
BBX 16 16 0 -2
BITMAP
0000
0000
00C0
0080
0100
0000
1DE0
0630
0410
0410
0410
0410
0410
1E3C
0000
0000
ENDCHAR
STARTCHAR 0147
ENCODING 327
SWIDTH 960 0
DWIDTH 16 0
BBX 16 16 0 -2
BITMAP
0440
0280
793E
1C08
1608
1308
1108
1188
10C8
1048
1068
1038
1018
7808
0000
0000
ENDCHAR
STARTCHAR 0148
ENCODING 328
SWIDTH 960 0
DWIDTH 16 0
BBX 16 16 0 -2
BITMAP
0000
0000
0440
0280
0100
0000
1DE0
0630
0410
0410
0410
0410
0410
1E3C
0000
0000
ENDCHAR
STARTCHAR 014B
ENCODING 331
SWIDTH 960 0
DWIDTH 16 0
BBX 16 16 0 -2
BITMAP
0000
0000
0000
0000
0000
0000
1DE0
0630
0410
0410
0410
0410
0410
1E10
0120
01C0
ENDCHAR
STARTCHAR 014C
ENCODING 332
SWIDTH 960 0
DWIDTH 16 0
BBX 16 16 0 -2
BITMAP
07E0
0000
0000
03C0
0C30
1818
1008
2004
2004
2004
1008
1818
0C30
03C0
0000
0000
ENDCHAR
STARTCHAR 014D
ENCODING 333
SWIDTH 960 0
DWIDTH 16 0
BBX 16 16 0 -2
BITMAP
0000
0000
0000
07E0
0000
0000
03C0
0420
0810
0810
0810
0810
0420
03C0
0000
0000
ENDCHAR
STARTCHAR 0150
ENCODING 336
SWIDTH 960 0
DWIDTH 16 0
BBX 16 16 0 -2
BITMAP
01B0
0120
0240
03C0
0C30
1818
1008
2004
2004
2004
1008
1818
0C30
03C0
0000
0000
ENDCHAR
STARTCHAR 0151
ENCODING 337
SWIDTH 960 0
DWIDTH 16 0
BBX 16 16 0 -2
BITMAP
0000
0000
01B0
0120
0240
0000
03C0
0420
0810
0810
0810
0810
0420
03C0
0000
0000
ENDCHAR
STARTCHAR 0152
ENCODING 338
SWIDTH 960 0
DWIDTH 16 0
BBX 16 16 0 -2
BITMAP
0000
1EFC
3184
2082
6080
4090
4090
40F0
4090
4090
6080
2082
3184
1EFC
0000
0000
ENDCHAR
STARTCHAR 0153
ENCODING 339
SWIDTH 960 0
DWIDTH 16 0
BBX 16 16 0 -2
BITMAP
0000
0000
0000
0000
0000
0000
1C78
2384
4102
41FE
4100
4100
2382
1C7C
0000
0000
ENDCHAR
STARTCHAR 0154
ENCODING 340
SWIDTH 960 0
DWIDTH 16 0
BBX 16 16 0 -2
BITMAP
00C0
0080
0100
3FE0
0810
0808
0808
0810
0FE0
0820
0830
0818
0808
3E3E
0000
0000
ENDCHAR
STARTCHAR 0155
ENCODING 341
SWIDTH 960 0
DWIDTH 16 0
BBX 16 16 0 -2
BITMAP
0000
0000
00C0
0080
0100
0000
0E70
0290
0300
0200
0200
0200
0200
0F80
0000
0000
ENDCHAR
STARTCHAR 0158
ENCODING 344
SWIDTH 960 0
DWIDTH 16 0
BBX 16 16 0 -2
BITMAP
0440
0280
0100
3FE0
0810
0808
0808
0810
0FE0
0820
0830
0818
0808
3E3E
0000
0000
ENDCHAR
STARTCHAR 0159
ENCODING 345
SWIDTH 960 0
DWIDTH 16 0
BBX 16 16 0 -2
BITMAP
0000
0000
0220
0140
0080
0000
0E70
0290
0300
0200
0200
0200
0200
0F80
0000
0000
ENDCHAR
STARTCHAR 015A
ENCODING 346
SWIDTH 960 0
DWIDTH 16 0
BBX 16 16 0 -2
BITMAP
00C0
0080
0100
07C8
0828
1018
1008
0C08
03C0
1030
1008
1808
1410
13E0
0000
0000
ENDCHAR
STARTCHAR 015B
ENCODING 347
SWIDTH 960 0
DWIDTH 16 0
BBX 16 16 0 -2
BITMAP
0000
0000
00C0
0080
0100
0000
07D0
0830
0810
0780
0060
0810
0C10
0BE0
0000
0000
ENDCHAR
STARTCHAR 015C
ENCODING 348
SWIDTH 960 0
DWIDTH 16 0
BBX 16 16 0 -2
BITMAP
0100
0280
0440
07C8
0828
1018
1008
0C08
03C0
1030
1008
1808
1410
13E0
0000
0000
ENDCHAR
STARTCHAR 015D
ENCODING 349
SWIDTH 960 0
DWIDTH 16 0
BBX 16 16 0 -2
BITMAP
0000
0000
0100
0280
0440
0000
07D0
0830
0810
0780
0060
0810
0C10
0BE0
0000
0000
ENDCHAR
STARTCHAR 015E
ENCODING 350
SWIDTH 960 0
DWIDTH 16 0
BBX 16 16 0 -2
BITMAP
0000
07C8
0828
1018
1008
1008
0C08
03C0
0030
1008
1008
1808
1410
13E0
0080
0380
ENDCHAR
STARTCHAR 015F
ENCODING 351
SWIDTH 960 0
DWIDTH 16 0
BBX 16 16 0 -2
BITMAP
0000
0000
0000
0000
0000
0000
07D0
0830
0810
0780
0060
0810
0C10
0BE0
0080
0380
ENDCHAR
STARTCHAR 0160
ENCODING 352
SWIDTH 960 0
DWIDTH 16 0
BBX 16 16 0 -2
BITMAP
0440
0280
0100
07C8
0828
1018
1008
0C08
03C0
1030
1008
1808
1410
13E0
0000
0000
ENDCHAR
STARTCHAR 0161
ENCODING 353
SWIDTH 960 0
DWIDTH 16 0
BBX 16 16 0 -2
BITMAP
0000
0000
0220
0140
0080
0000
07D0
0830
0810
0780
0060
0810
0C10
0BE0
0000
0000
ENDCHAR
STARTCHAR 0162
ENCODING 354
SWIDTH 960 0
DWIDTH 16 0
BBX 16 16 0 -2
BITMAP
0000
7FFC
4104
4104
0100
0100
0100
0100
0100
0100
0100
0100
0100
07C0
0100
0700
ENDCHAR
STARTCHAR 0163
ENCODING 355
SWIDTH 960 0
DWIDTH 16 0
BBX 16 16 0 -2
BITMAP
0000
0000
0200
0200
0200
0200
1FE0
0200
0200
0200
0200
0200
0110
00F0
0080
0380
ENDCHAR
STARTCHAR 0164
ENCODING 356
SWIDTH 960 0
DWIDTH 16 0
BBX 16 16 0 -2
BITMAP
0440
0280
0100
7FFC
4104
4104
0100
0100
0100
0100
0100
0100
0100
07C0
0000
0000
ENDCHAR
STARTCHAR 0165
ENCODING 357
SWIDTH 960 0
DWIDTH 16 0
BBX 16 16 0 -2
BITMAP
0220
0140
0280
0200
0200
0200
1FE0
0200
0200
0200
0200
0200
0110
00F0
0000
0000
ENDCHAR
STARTCHAR 016A
ENCODING 362
SWIDTH 960 0
DWIDTH 16 0
BBX 16 16 0 -2
BITMAP
07C0
0000
0000
7C7C
1010
1010
1010
1010
1010
1010
1010
1830
0C60
0380
0000
0000
ENDCHAR
STARTCHAR 016B
ENCODING 363
SWIDTH 960 0
DWIDTH 16 0
BBX 16 16 0 -2
BITMAP
0000
0000
0000
07E0
0000
0000
1C70
0410
0410
0410
0410
0410
0630
03DC
0000
0000
ENDCHAR
STARTCHAR 016C
ENCODING 364
SWIDTH 960 0
DWIDTH 16 0
BBX 16 16 0 -2
BITMAP
0440
0380
0000
7C7C
1010
1010
1010
1010
1010
1010
1010
1830
0C60
0380
0000
0000
ENDCHAR
STARTCHAR 016D
ENCODING 365
SWIDTH 960 0
DWIDTH 16 0
BBX 16 16 0 -2
BITMAP
0000
0000
0000
0440
0380
0000
1C70
0410
0410
0410
0410
0410
0630
03DC
0000
0000
ENDCHAR
STARTCHAR 016E
ENCODING 366
SWIDTH 960 0
DWIDTH 16 0
BBX 16 16 0 -2
BITMAP
0100
0280
0100
7C7C
1010
1010
1010
1010
1010
1010
1010
1830
0C60
0380
0000
0000
ENDCHAR
STARTCHAR 016F
ENCODING 367
SWIDTH 960 0
DWIDTH 16 0
BBX 16 16 0 -2
BITMAP
0000
0000
0080
0140
0080
0000
1C70
0410
0410
0410
0410
0410
0630
03DC
0000
0000
ENDCHAR
STARTCHAR 0170
ENCODING 368
SWIDTH 960 0
DWIDTH 16 0
BBX 16 16 0 -2
BITMAP
0360
0240
0480
7C7C
1010
1010
1010
1010
1010
1010
1010
1830
0C60
0380
0000
0000
ENDCHAR
STARTCHAR 0171
ENCODING 369
SWIDTH 960 0
DWIDTH 16 0
BBX 16 16 0 -2
BITMAP
0000
0000
0360
0240
0480
0000
1C70
0410
0410
0410
0410
0410
0630
03DC
0000
0000
ENDCHAR
STARTCHAR 0179
ENCODING 377
SWIDTH 960 0
DWIDTH 16 0
BBX 16 16 0 -2
BITMAP
00C0
0080
0100
1FF8
1030
1060
00C0
0180
0300
0600
0C00
1808
3008
3FF8
0000
0000
ENDCHAR
STARTCHAR 017A
ENCODING 378
SWIDTH 960 0
DWIDTH 16 0
BBX 16 16 0 -2
BITMAP
0000
0000
00C0
0080
0100
0000
0FF0
0820
0840
0080
0100
0210
0410
0FF0
0000
0000
ENDCHAR
STARTCHAR 017B
ENCODING 379
SWIDTH 960 0
DWIDTH 16 0
BBX 16 16 0 -2
BITMAP
0180
0180
0000
1FF8
1030
1060
00C0
0180
0300
0600
0C00
1808
3008
3FF8
0000
0000
ENDCHAR
STARTCHAR 017C
ENCODING 380
SWIDTH 960 0
DWIDTH 16 0
BBX 16 16 0 -2
BITMAP
0000
0000
0000
0180
0180
0000
0FF0
0820
0840
0080
0100
0210
0410
0FF0
0000
0000
ENDCHAR
STARTCHAR 017D
ENCODING 381
SWIDTH 960 0
DWIDTH 16 0
BBX 16 16 0 -2
BITMAP
0440
0280
0100
1FF8
1030
1060
00C0
0180
0300
0600
0C00
1808
3008
3FF8
0000
0000
ENDCHAR
STARTCHAR 017E
ENCODING 382
SWIDTH 960 0
DWIDTH 16 0
BBX 16 16 0 -2
BITMAP
0000
0000
0220
0140
0080
0000
0FF0
0820
0840
0080
0100
0210
0410
0FF0
0000
0000
ENDCHAR
STARTCHAR 0193
ENCODING 403
SWIDTH 960 0
DWIDTH 16 0
BBX 16 16 0 -2
BITMAP
0000
03CE
0C32
1810
1010
3000
2000
2000
203E
3008
1008
1818
0C28
03C8
0000
0000
ENDCHAR
STARTCHAR 01C2
ENCODING 450
SWIDTH 960 0
DWIDTH 16 0
BBX 16 16 0 -2
BITMAP
0000
0100
0100
0100
0100
0FE0
0100
0100
0100
0FE0
0100
0100
0100
0100
0000
0000
ENDCHAR
STARTCHAR 01CD
ENCODING 461
SWIDTH 960 0
DWIDTH 16 0
BBX 16 16 0 -2
BITMAP
0440
0280
0100
0380
0280
06C0
0440
0C60
0820
1FF0
1010
3018
2008
F83E
0000
0000
ENDCHAR
STARTCHAR 01CE
ENCODING 462
SWIDTH 960 0
DWIDTH 16 0
BBX 16 16 0 -2
BITMAP
0000
0000
0440
0280
0100
0000
07C0
0020
0020
07E0
0820
0820
0868
0798
0000
0000
ENDCHAR
STARTCHAR 01D0
ENCODING 464
SWIDTH 960 0
DWIDTH 16 0
BBX 16 16 0 -2
BITMAP
0000
0000
0440
0280
0100
0000
0700
0100
0100
0100
0100
0100
0100
07C0
0000
0000
ENDCHAR
STARTCHAR 01D1
ENCODING 465
SWIDTH 960 0
DWIDTH 16 0
BBX 16 16 0 -2
BITMAP
0440
0280
0100
03C0
0C30
1818
1008
2004
2004
2004
1008
1818
0C30
03C0
0000
0000
ENDCHAR
STARTCHAR 01D2
ENCODING 466
SWIDTH 960 0
DWIDTH 16 0
BBX 16 16 0 -2
BITMAP
0000
0000
0440
0280
0100
0000
03C0
0420
0810
0810
0810
0810
0420
03C0
0000
0000
ENDCHAR
STARTCHAR 01D4
ENCODING 468
SWIDTH 960 0
DWIDTH 16 0
BBX 16 16 0 -2
BITMAP
0000
0000
0220
0140
0080
0000
1C70
0410
0410
0410
0410
0410
0630
03DC
0000
0000
ENDCHAR
STARTCHAR 01D6
ENCODING 470
SWIDTH 960 0
DWIDTH 16 0
BBX 16 16 0 -2
BITMAP
0000
03E0
0000
0360
0360
0000
1C70
0410
0410
0410
0410
0410
0630
03DC
0000
0000
ENDCHAR
STARTCHAR 01D8
ENCODING 472
SWIDTH 960 0
DWIDTH 16 0
BBX 16 16 0 -2
BITMAP
0060
0040
0080
0360
0360
0000
1C70
0410
0410
0410
0410
0410
0630
03DC
0000
0000
ENDCHAR
STARTCHAR 01DA
ENCODING 474
SWIDTH 960 0
DWIDTH 16 0
BBX 16 16 0 -2
BITMAP
0220
0140
0080
0360
0360
0000
1C70
0410
0410
0410
0410
0410
0630
03DC
0000
0000
ENDCHAR
STARTCHAR 01DC
ENCODING 476
SWIDTH 960 0
DWIDTH 16 0
BBX 16 16 0 -2
BITMAP
0300
0100
0080
0360
0360
0000
1C70
0410
0410
0410
0410
0410
0630
03DC
0000
0000
ENDCHAR
STARTCHAR 01F8
ENCODING 504
SWIDTH 960 0
DWIDTH 16 0
BBX 16 16 0 -2
BITMAP
0300
793E
1C88
1408
1608
1308
1108
1188
10C8
1048
1068
1038
1018
7808
0000
0000
ENDCHAR
STARTCHAR 01F9
ENCODING 505
SWIDTH 960 0
DWIDTH 16 0
BBX 16 16 0 -2
BITMAP
0000
0000
0180
0080
0040
0000
1DE0
0630
0410
0410
0410
0410
0410
1E3C
0000
0000
ENDCHAR
STARTCHAR 01FD
ENCODING 509
SWIDTH 960 0
DWIDTH 16 0
BBX 16 16 0 -2
BITMAP
0000
00C0
0080
0100
0000
0000
3E78
0184
0102
3FFE
4100
4100
4382
3C7C
0000
0000
ENDCHAR
STARTCHAR 0250
ENCODING 592
SWIDTH 960 0
DWIDTH 16 0
BBX 16 16 0 -2
BITMAP
0000
0000
0000
0000
0000
0000
19E0
1610
0410
0410
07E0
0400
0400
03E0
0000
0000
ENDCHAR
STARTCHAR 0251
ENCODING 593
SWIDTH 960 0
DWIDTH 16 0
BBX 16 16 0 -2
BITMAP
0000
0000
0000
0000
0000
0000
03A0
0460
0820
0820
0820
0820
0460
03B8
0000
0000
ENDCHAR
STARTCHAR 0252
ENCODING 594
SWIDTH 960 0
DWIDTH 16 0
BBX 16 16 0 -2
BITMAP
0000
0000
0000
0000
0000
0000
3B80
0C40
0820
0820
0820
0820
0C40
0B80
0000
0000
ENDCHAR
STARTCHAR 0253
ENCODING 595
SWIDTH 960 0
DWIDTH 16 0
BBX 16 16 0 -2
BITMAP
0000
01F0
0210
0400
0400
0400
05E0
0610
0408
0408
0408
0408
0610
05E0
0000
0000
ENDCHAR
STARTCHAR 0254
ENCODING 596
SWIDTH 960 0
DWIDTH 16 0
BBX 16 16 0 -2
BITMAP
0000
0000
0000
0000
0000
0000
07C0
0820
0010
0010
0010
0810
0C20
07C0
0000
0000
ENDCHAR
STARTCHAR 0255
ENCODING 597
SWIDTH 960 0
DWIDTH 16 0
BBX 16 16 0 -2
BITMAP
0000
0000
0000
0000
0000
0000
03E0
0410
0800
0800
0820
0850
0490
03E0
0100
0200
ENDCHAR
STARTCHAR 0256
ENCODING 598
SWIDTH 960 0
DWIDTH 16 0
BBX 16 16 0 -2
BITMAP
0000
00E0
0020
0020
0020
0020
07A0
0860
1020
1020
1020
1020
0860
07A0
0024
001C
ENDCHAR
STARTCHAR 0257
ENCODING 599
SWIDTH 960 0
DWIDTH 16 0
BBX 16 16 0 -2
BITMAP
0000
001C
0024
0020
0020
0020
07A0
0860
1020
1020
1020
1020
0860
07B8
0000
0000
ENDCHAR
STARTCHAR 0258
ENCODING 600
SWIDTH 960 0
DWIDTH 16 0
BBX 16 16 0 -2
BITMAP
0000
0000
0000
0000
0000
0000
03C0
0420
0810
0FF0
0010
0010
0820
07C0
0000
0000
ENDCHAR
STARTCHAR 0259
ENCODING 601
SWIDTH 960 0
DWIDTH 16 0
BBX 16 16 0 -2
BITMAP
0000
0000
0000
0000
0000
0000
07C0
0820
0010
0010
0FF0
0810
0420
03C0
0000
0000
ENDCHAR
STARTCHAR 025A
ENCODING 602
SWIDTH 960 0
DWIDTH 16 0
BBX 16 16 0 -2
BITMAP
0000
0000
0000
0000
0000
0000
07C0
0824
007C
0196
0613
0810
0420
03C0
0000
0000
ENDCHAR
STARTCHAR 025C
ENCODING 604
SWIDTH 960 0
DWIDTH 16 0
BBX 16 16 0 -2
BITMAP
0000
0000
0000
0000
0000
0000
07E0
0810
0010
01E0
0010
0810
0420
03C0
0000
0000
ENDCHAR
STARTCHAR 025E
ENCODING 606
SWIDTH 960 0
DWIDTH 16 0
BBX 16 16 0 -2
BITMAP
0000
0000
0000
0000
0000
0000
03E0
0410
0810
09E0
0810
0810
0420
03C0
0000
0000
ENDCHAR
STARTCHAR 025F
ENCODING 607
SWIDTH 960 0
DWIDTH 16 0
BBX 16 16 0 -2
BITMAP
0000
0000
0000
0000
0000
0000
03E0
0080
0080
0080
0080
0080
03E0
0080
0900
0E00
ENDCHAR
STARTCHAR 0260
ENCODING 608
SWIDTH 960 0
DWIDTH 16 0
BBX 16 16 0 -2
BITMAP
0000
0000
0000
0000
000E
0012
03D0
0430
0810
0810
0810
0430
03D0
0010
0420
07C0
ENDCHAR
STARTCHAR 0261
ENCODING 609
SWIDTH 960 0
DWIDTH 16 0
BBX 16 16 0 -2
BITMAP
0000
0000
0000
0000
0000
0000
03D0
0430
0810
0810
0810
0430
03D0
0010
0420
07C0
ENDCHAR
STARTCHAR 0264
ENCODING 612
SWIDTH 960 0
DWIDTH 16 0
BBX 16 16 0 -2
BITMAP
0000
0000
0000
0000
0000
1C70
0820
0440
0440
0280
0100
0280
0280
0100
0000
0000
ENDCHAR
STARTCHAR 0265
ENCODING 613
SWIDTH 960 0
DWIDTH 16 0
BBX 16 16 0 -2
BITMAP
0000
0000
0000
0000
0000
1C7C
0410
0410
0410
0410
0410
0630
03D0
0010
0010
003C
ENDCHAR
STARTCHAR 0266
ENCODING 614
SWIDTH 960 0
DWIDTH 16 0
BBX 16 16 0 -2
BITMAP
0000
01F0
0210
0400
0400
0400
05E0
0630
0410
0410
0410
0410
0410
1E3C
0000
0000
ENDCHAR
STARTCHAR 0267
ENCODING 615
SWIDTH 960 0
DWIDTH 16 0
BBX 16 16 0 -2
BITMAP
0000
01F0
0210
0400
0400
0400
05E0
0630
0410
0410
0410
0410
0410
1E10
0120
01C0
ENDCHAR
STARTCHAR 0268
ENCODING 616
SWIDTH 960 0
DWIDTH 16 0
BBX 16 16 0 -2
BITMAP
0000
0000
0180
0180
0000
0000
0380
0080
0080
03E0
0080
0080
0080
03E0
0000
0000
ENDCHAR
STARTCHAR 026C
ENCODING 620
SWIDTH 960 0
DWIDTH 16 0
BBX 16 16 0 -2
BITMAP
0000
0380
0080
0080
0080
0680
0980
0880
0880
07FC
0080
0080
0080
03E0
0000
0000
ENDCHAR
STARTCHAR 026D
ENCODING 621
SWIDTH 960 0
DWIDTH 16 0
BBX 16 16 0 -2
BITMAP
0000
0700
0100
0100
0100
0100
0100
0100
0100
0100
0100
0100
0100
0100
0120
00E0
ENDCHAR
STARTCHAR 026E
ENCODING 622
SWIDTH 960 0
DWIDTH 16 0
BBX 16 16 0 -2
BITMAP
0000
1C00
0400
0400
0400
0400
07F8
0410
0460
0480
07E0
0430
0408
1C08
0230
03E0
ENDCHAR
STARTCHAR 026F
ENCODING 623
SWIDTH 960 0
DWIDTH 16 0
BBX 16 16 0 -2
BITMAP
0000
0000
0000
0000
0000
0000
31CE
1084
1084
1084
1084
1084
118C
0E76
0000
0000
ENDCHAR
STARTCHAR 0270
ENCODING 624
SWIDTH 960 0
DWIDTH 16 0
BBX 16 16 0 -2
BITMAP
0000
0000
0000
0000
0000
0000
39CE
1084
1084
1084
1084
1084
118C
0E74
0004
0006
ENDCHAR
STARTCHAR 0271
ENCODING 625
SWIDTH 960 0
DWIDTH 16 0
BBX 16 16 0 -2
BITMAP
0000
0000
0000
0000
0000
0000
3738
18C4
1084
1084
1084
1084
1084
39C4
0014
0018
ENDCHAR
STARTCHAR 0272
ENCODING 626
SWIDTH 960 0
DWIDTH 16 0
BBX 16 16 0 -2
BITMAP
0000
0000
0000
0000
0000
0000
0EE0
0330
0210
0210
0210
0210
0210
023C
2400
3800
ENDCHAR
STARTCHAR 0273
ENCODING 627
SWIDTH 960 0
DWIDTH 16 0
BBX 16 16 0 -2
BITMAP
0000
0000
0000
0000
0000
0000
3BC0
0C60
0820
0820
0820
0820
0820
3C20
0024
001C
ENDCHAR
STARTCHAR 0275
ENCODING 629
SWIDTH 960 0
DWIDTH 16 0
BBX 16 16 0 -2
BITMAP
0000
0000
0000
0000
0000
0000
03C0
0420
0810
0FF0
0810
0810
0420
03C0
0000
0000
ENDCHAR
STARTCHAR 0279
ENCODING 633
SWIDTH 960 0
DWIDTH 16 0
BBX 16 16 0 -2
BITMAP
0000
0000
0000
0000
0000
0000
01F0
0040
0040
0040
0040
00C0
0940
0E70
0000
0000
ENDCHAR
STARTCHAR 027A
ENCODING 634
SWIDTH 960 0
DWIDTH 16 0
BBX 16 16 0 -2
BITMAP
0000
01F0
0040
0040
0040
0040
0040
0040
0040
0040
0040
00C0
0940
0E70
0000
0000
ENDCHAR
STARTCHAR 027B
ENCODING 635
SWIDTH 960 0
DWIDTH 16 0
BBX 16 16 0 -2
BITMAP
0000
0000
0000
0000
0000
0000
01F0
0040
0040
0040
0040
00C0
0940
0E40
0048
0038
ENDCHAR
STARTCHAR 027D
ENCODING 637
SWIDTH 960 0
DWIDTH 16 0
BBX 16 16 0 -2
BITMAP
0000
0000
0000
0000
0000
0000
0E70
0290
0300
0200
0200
0200
0200
0200
0240
01C0
ENDCHAR
STARTCHAR 027E
ENCODING 638
SWIDTH 960 0
DWIDTH 16 0
BBX 16 16 0 -2
BITMAP
0000
0000
0000
0000
0000
0000
00C0
0120
0120
0100
0100
0100
0100
07C0
0000
0000
ENDCHAR
STARTCHAR 0281
ENCODING 641
SWIDTH 960 0
DWIDTH 16 0
BBX 16 16 0 -2
BITMAP
0000
0000
0000
0000
0000
1E18
0428
0440
05E0
0610
0408
0408
0610
05E0
0000
0000
ENDCHAR
STARTCHAR 0282
ENCODING 642
SWIDTH 960 0
DWIDTH 16 0
BBX 16 16 0 -2
BITMAP
0000
0000
0000
0000
0000
0000
07D0
0830
0810
0780
0060
0810
0C10
0BE0
0800
0700
ENDCHAR
STARTCHAR 0283
ENCODING 643
SWIDTH 960 0
DWIDTH 16 0
BBX 16 16 0 -2
BITMAP
0060
0090
0080
0080
0080
0080
0080
0080
0080
0080
0080
0080
0080
0080
0480
0300
ENDCHAR
STARTCHAR 0284
ENCODING 644
SWIDTH 960 0
DWIDTH 16 0
BBX 16 16 0 -2
BITMAP
0000
0000
0000
0060
0090
0110
0100
0100
0100
0100
0100
0FE0
0100
0100
1200
1C00
ENDCHAR
STARTCHAR 0288
ENCODING 648
SWIDTH 960 0
DWIDTH 16 0
BBX 16 16 0 -2
BITMAP
0000
0000
0200
0200
0200
0200
1FE0
0200
0200
0200
0200
0200
0200
0200
0110
00F0
ENDCHAR
STARTCHAR 0289
ENCODING 649
SWIDTH 960 0
DWIDTH 16 0
BBX 16 16 0 -2
BITMAP
0000
0000
0000
0000
0000
0000
1C70
0410
0410
1FFC
0410
0410
0630
03DC
0000
0000
ENDCHAR
STARTCHAR 028A
ENCODING 650
SWIDTH 960 0
DWIDTH 16 0
BBX 16 16 0 -2
BITMAP
0000
0000
0000
0000
0000
0000
1E78
0420
0810
0810
0810
0810
0420
03C0
0000
0000
ENDCHAR
STARTCHAR 028B
ENCODING 651
SWIDTH 960 0
DWIDTH 16 0
BBX 16 16 0 -2
BITMAP
0000
0000
0000
0000
0000
0000
1C70
0410
0410
0410
0410
0420
0620
03C0
0000
0000
ENDCHAR
STARTCHAR 028C
ENCODING 652
SWIDTH 960 0
DWIDTH 16 0
BBX 16 16 0 -2
BITMAP
0000
0000
0000
0000
0000
0000
0100
0380
0280
06C0
0440
0C60
0820
3C78
0000
0000
ENDCHAR
STARTCHAR 028D
ENCODING 653
SWIDTH 960 0
DWIDTH 16 0
BBX 16 16 0 -2
BITMAP
0000
0000
0000
0000
0000
0000
0420
0420
0E70
0A50
0A50
1BD8
1188
799E
0000
0000
ENDCHAR
STARTCHAR 028E
ENCODING 654
SWIDTH 960 0
DWIDTH 16 0
BBX 16 16 0 -2
BITMAP
0000
0000
0000
003C
0064
00C0
0080
0180
0140
0360
0220
0630
0410
1E3C
0000
0000
ENDCHAR
STARTCHAR 0290
ENCODING 656
SWIDTH 960 0
DWIDTH 16 0
BBX 16 16 0 -2
BITMAP
0000
0000
0000
0000
0000
0000
0FF0
0820
0840
0080
0100
0210
0410
0FF0
0012
000E
ENDCHAR
STARTCHAR 0291
ENCODING 657
SWIDTH 960 0
DWIDTH 16 0
BBX 16 16 0 -2
BITMAP
0000
0000
0000
0000
0000
0000
0FF0
0820
0840
0080
0120
0250
0490
0FE0
0100
0200
ENDCHAR
STARTCHAR 0292
ENCODING 658
SWIDTH 960 0
DWIDTH 16 0
BBX 16 16 0 -2
BITMAP
0000
0000
0000
0000
0000
0000
0FF0
0820
08C0
0100
07C0
0060
0010
0010
0860
0FC0
ENDCHAR
STARTCHAR 0294
ENCODING 660
SWIDTH 960 0
DWIDTH 16 0
BBX 16 16 0 -2
BITMAP
0000
07C0
0820
1010
1010
1010
0060
0180
0100
0100
0100
0100
0100
07C0
0000
0000
ENDCHAR
STARTCHAR 0295
ENCODING 661
SWIDTH 960 0
DWIDTH 16 0
BBX 16 16 0 -2
BITMAP
0000
07C0
0820
1010
1010
1010
0C00
0300
0100
0100
0100
0100
0100
07C0
0000
0000
ENDCHAR
STARTCHAR 0298
ENCODING 664
SWIDTH 960 0
DWIDTH 16 0
BBX 16 16 0 -2
BITMAP
0000
0000
0000
0000
03C0
0420
0810
1008
1188
1188
1008
0810
0420
03C0
0000
0000
ENDCHAR
STARTCHAR 029D
ENCODING 669
SWIDTH 960 0
DWIDTH 16 0
BBX 16 16 0 -2
BITMAP
0000
0000
0180
0180
0000
0000
03E0
0080
0080
0080
0080
0080
0080
03E0
0490
0300
ENDCHAR
STARTCHAR 02A1
ENCODING 673
SWIDTH 960 0
DWIDTH 16 0
BBX 16 16 0 -2
BITMAP
0000
07C0
0820
1010
1010
1010
0060
0180
0100
0FE0
0100
0100
0100
07C0
0000
0000
ENDCHAR
STARTCHAR 02A2
ENCODING 674
SWIDTH 960 0
DWIDTH 16 0
BBX 16 16 0 -2
BITMAP
0000
07C0
0820
1010
1010
1010
0C00
0300
0100
0FE0
0100
0100
0100
07C0
0000
0000
ENDCHAR
STARTCHAR 02C7
ENCODING 711
SWIDTH 960 0
DWIDTH 16 0
BBX 16 16 0 -2
BITMAP
0410
0220
0140
0080
0000
0000
0000
0000
0000
0000
0000
0000
0000
0000
0000
0000
ENDCHAR
STARTCHAR 02C8
ENCODING 712
SWIDTH 960 0
DWIDTH 16 0
BBX 16 16 0 -2
BITMAP
0080
0080
0080
0080
0080
0000
0000
0000
0000
0000
0000
0000
0000
0000
0000
0000
ENDCHAR
STARTCHAR 02CC
ENCODING 716
SWIDTH 960 0
DWIDTH 16 0
BBX 16 16 0 -2
BITMAP
0000
0000
0000
0000
0000
0000
0000
0000
0000
0000
0000
0080
0080
0080
0080
0080
ENDCHAR
STARTCHAR 02D0
ENCODING 720
SWIDTH 960 0
DWIDTH 16 0
BBX 16 16 0 -2
BITMAP
0000
0000
0000
0000
0000
03E0
01C0
0080
0080
0000
0080
0080
01C0
03E0
0000
0000
ENDCHAR
STARTCHAR 02D1
ENCODING 721
SWIDTH 960 0
DWIDTH 16 0
BBX 16 16 0 -2
BITMAP
0000
0000
0000
0000
0000
03E0
01C0
0080
0080
0000
0000
0000
0000
0000
0000
0000
ENDCHAR
STARTCHAR 02D8
ENCODING 728
SWIDTH 960 0
DWIDTH 16 0
BBX 16 16 0 -2
BITMAP
0410
0410
0220
01C0
0000
0000
0000
0000
0000
0000
0000
0000
0000
0000
0000
0000
ENDCHAR
STARTCHAR 02D9
ENCODING 729
SWIDTH 960 0
DWIDTH 16 0
BBX 16 16 0 -2
BITMAP
0000
0180
0180
0000
0000
0000
0000
0000
0000
0000
0000
0000
0000
0000
0000
0000
ENDCHAR
STARTCHAR 02DB
ENCODING 731
SWIDTH 960 0
DWIDTH 16 0
BBX 16 16 0 -2
BITMAP
0000
0000
0000
0000
0000
0000
0000
0000
0000
0000
0020
0040
0040
0030
0030
0000
ENDCHAR
STARTCHAR 02DD
ENCODING 733
SWIDTH 960 0
DWIDTH 16 0
BBX 16 16 0 -2
BITMAP
01B0
0120
0240
0000
0000
0000
0000
0000
0000
0000
0000
0000
0000
0000
0000
0000
ENDCHAR
STARTCHAR 02DE
ENCODING 734
SWIDTH 960 0
DWIDTH 16 0
BBX 16 16 0 -2
BITMAP
0000
0000
0000
0000
0000
0100
0280
0040
0048
0050
0060
0000
0000
0000
0000
0000
ENDCHAR
STARTCHAR 02E5
ENCODING 741
SWIDTH 960 0
DWIDTH 16 0
BBX 16 16 0 -2
BITMAP
FF80
0080
0080
0080
0080
0080
0080
0080
0080
0080
0080
0080
0080
0080
0080
0080
ENDCHAR
STARTCHAR 02E6
ENCODING 742
SWIDTH 960 0
DWIDTH 16 0
BBX 16 16 0 -2
BITMAP
0080
0080
0080
0080
FF80
0080
0080
0080
0080
0080
0080
0080
0080
0080
0080
0080
ENDCHAR
STARTCHAR 02E7
ENCODING 743
SWIDTH 960 0
DWIDTH 16 0
BBX 16 16 0 -2
BITMAP
0080
0080
0080
0080
0080
0080
0080
0080
FF80
0080
0080
0080
0080
0080
0080
0080
ENDCHAR
STARTCHAR 02E8
ENCODING 744
SWIDTH 960 0
DWIDTH 16 0
BBX 16 16 0 -2
BITMAP
0080
0080
0080
0080
0080
0080
0080
0080
0080
0080
0080
FF80
0080
0080
0080
0080
ENDCHAR
STARTCHAR 02E9
ENCODING 745
SWIDTH 960 0
DWIDTH 16 0
BBX 16 16 0 -2
BITMAP
0080
0080
0080
0080
0080
0080
0080
0080
0080
0080
0080
0080
0080
0080
0080
FF80
ENDCHAR
STARTCHAR 0300
ENCODING 768
SWIDTH 960 0
DWIDTH 16 0
BBX 16 16 0 -2
BITMAP
0300
0100
0080
0040
0000
0000
0000
0000
0000
0000
0000
0000
0000
0000
0000
0000
ENDCHAR
STARTCHAR 0301
ENCODING 769
SWIDTH 960 0
DWIDTH 16 0
BBX 16 16 0 -2
BITMAP
0060
0040
0080
0100
0000
0000
0000
0000
0000
0000
0000
0000
0000
0000
0000
0000
ENDCHAR
STARTCHAR 0302
ENCODING 770
SWIDTH 960 0
DWIDTH 16 0
BBX 16 16 0 -2
BITMAP
0080
0140
0220
0410
0000
0000
0000
0000
0000
0000
0000
0000
0000
0000
0000
0000
ENDCHAR
STARTCHAR 0303
ENCODING 771
SWIDTH 960 0
DWIDTH 16 0
BBX 16 16 0 -2
BITMAP
0310
0490
0460
0000
0000
0000
0000
0000
0000
0000
0000
0000
0000
0000
0000
0000
ENDCHAR
STARTCHAR 0304
ENCODING 772
SWIDTH 960 0
DWIDTH 16 0
BBX 16 16 0 -2
BITMAP
0000
07E0
0000
0000
0000
0000
0000
0000
0000
0000
0000
0000
0000
0000
0000
0000
ENDCHAR
STARTCHAR 0306
ENCODING 774
SWIDTH 960 0
DWIDTH 16 0
BBX 16 16 0 -2
BITMAP
0410
0410
0220
01C0
0000
0000
0000
0000
0000
0000
0000
0000
0000
0000
0000
0000
ENDCHAR
STARTCHAR 0308
ENCODING 776
SWIDTH 960 0
DWIDTH 16 0
BBX 16 16 0 -2
BITMAP
0000
0660
0660
0000
0000
0000
0000
0000
0000
0000
0000
0000
0000
0000
0000
0000
ENDCHAR
STARTCHAR 030B
ENCODING 779
SWIDTH 960 0
DWIDTH 16 0
BBX 16 16 0 -2
BITMAP
0360
0240
0480
0900
0000
0000
0000
0000
0000
0000
0000
0000
0000
0000
0000
0000
ENDCHAR
STARTCHAR 030C
ENCODING 780
SWIDTH 960 0
DWIDTH 16 0
BBX 16 16 0 -2
BITMAP
0410
0220
0140
0080
0000
0000
0000
0000
0000
0000
0000
0000
0000
0000
0000
0000
ENDCHAR
STARTCHAR 030F
ENCODING 783
SWIDTH 960 0
DWIDTH 16 0
BBX 16 16 0 -2
BITMAP
06C0
0240
0120
0090
0000
0000
0000
0000
0000
0000
0000
0000
0000
0000
0000
0000
ENDCHAR
STARTCHAR 0318
ENCODING 792
SWIDTH 960 0
DWIDTH 16 0
BBX 16 16 0 -2
BITMAP
0000
0000
0000
0000
0000
0000
0000
0000
0000
0000
0080
0080
0780
0080
0080
0000
ENDCHAR
STARTCHAR 0319
ENCODING 793
SWIDTH 960 0
DWIDTH 16 0
BBX 16 16 0 -2
BITMAP
0000
0000
0000
0000
0000
0000
0000
0000
0000
0000
0080
0080
00F0
0080
0080
0000
ENDCHAR
STARTCHAR 031A
ENCODING 794
SWIDTH 960 0
DWIDTH 16 0
BBX 16 16 0 -2
BITMAP
0000
0078
0008
0008
0008
0000
0000
0000
0000
0000
0000
0000
0000
0000
0000
0000
ENDCHAR
STARTCHAR 031C
ENCODING 796
SWIDTH 960 0
DWIDTH 16 0
BBX 16 16 0 -2
BITMAP
0000
0000
0000
0000
0000
0000
0000
0000
0000
0000
0000
0000
01C0
0200
0200
01C0
ENDCHAR
STARTCHAR 031D
ENCODING 797
SWIDTH 960 0
DWIDTH 16 0
BBX 16 16 0 -2
BITMAP
0000
0000
0000
0000
0000
0000
0000
0000
0000
0000
0000
0080
0080
0080
07F0
0000
ENDCHAR
STARTCHAR 031E
ENCODING 798
SWIDTH 960 0
DWIDTH 16 0
BBX 16 16 0 -2
BITMAP
0000
0000
0000
0000
0000
0000
0000
0000
0000
0000
0000
07F0
0080
0080
0080
0000
ENDCHAR
STARTCHAR 031F
ENCODING 799
SWIDTH 960 0
DWIDTH 16 0
BBX 16 16 0 -2
BITMAP
0000
0000
0000
0000
0000
0000
0000
0000
0000
0000
0000
0100
0100
0FE0
0100
0100
ENDCHAR
STARTCHAR 0320
ENCODING 800
SWIDTH 960 0
DWIDTH 16 0
BBX 16 16 0 -2
BITMAP
0000
0000
0000
0000
0000
0000
0000
0000
0000
0000
0000
0000
0000
0FE0
0000
0000
ENDCHAR
STARTCHAR 0324
ENCODING 804
SWIDTH 960 0
DWIDTH 16 0
BBX 16 16 0 -2
BITMAP
0000
0000
0000
0000
0000
0000
0000
0000
0000
0000
0000
0000
0000
0660
0660
0000
ENDCHAR
STARTCHAR 0325
ENCODING 805
SWIDTH 960 0
DWIDTH 16 0
BBX 16 16 0 -2
BITMAP
0000
0000
0000
0000
0000
0000
0000
0000
0000
0000
0000
0000
0180
0240
0240
0180
ENDCHAR
STARTCHAR 0329
ENCODING 809
SWIDTH 960 0
DWIDTH 16 0
BBX 16 16 0 -2
BITMAP
0000
0000
0000
0000
0000
0000
0000
0000
0000
0000
0000
0000
0100
0100
0100
0100
ENDCHAR
STARTCHAR 032A
ENCODING 810
SWIDTH 960 0
DWIDTH 16 0
BBX 16 16 0 -2
BITMAP
0000
0000
0000
0000
0000
0000
0000
0000
0000
0000
0000
0000
0FF0
0810
0810
0000
ENDCHAR
STARTCHAR 032C
ENCODING 812
SWIDTH 960 0
DWIDTH 16 0
BBX 16 16 0 -2
BITMAP
0000
0000
0000
0000
0000
0000
0000
0000
0000
0000
0000
0000
0410
0220
0140
0080
ENDCHAR
STARTCHAR 032F
ENCODING 815
SWIDTH 960 0
DWIDTH 16 0
BBX 16 16 0 -2
BITMAP
0000
0000
0000
0000
0000
0000
0000
0000
0000
0000
0000
0000
01C0
0220
0410
0410
ENDCHAR
STARTCHAR 0330
ENCODING 816
SWIDTH 960 0
DWIDTH 16 0
BBX 16 16 0 -2
BITMAP
0000
0000
0000
0000
0000
0000
0000
0000
0000
0000
0000
0000
0000
0310
0490
0460
ENDCHAR
STARTCHAR 0334
ENCODING 820
SWIDTH 960 0
DWIDTH 16 0
BBX 16 16 0 -2
BITMAP
0000
0000
0000
0000
0000
0000
0000
0620
0920
08C0
0000
0000
0000
0000
0000
0000
ENDCHAR
STARTCHAR 0339
ENCODING 825
SWIDTH 960 0
DWIDTH 16 0
BBX 16 16 0 -2
BITMAP
0000
0000
0000
0000
0000
0000
0000
0000
0000
0000
0000
0000
01C0
0020
0020
01C0
ENDCHAR
STARTCHAR 033A
ENCODING 826
SWIDTH 960 0
DWIDTH 16 0
BBX 16 16 0 -2
BITMAP
0000
0000
0000
0000
0000
0000
0000
0000
0000
0000
0000
0000
0810
0810
0FF0
0000
ENDCHAR
STARTCHAR 033B
ENCODING 827
SWIDTH 960 0
DWIDTH 16 0
BBX 16 16 0 -2
BITMAP
0000
0000
0000
0000
0000
0000
0000
0000
0000
0000
0000
0FF0
0810
0810
0FF0
0000
ENDCHAR
STARTCHAR 033C
ENCODING 828
SWIDTH 960 0
DWIDTH 16 0
BBX 16 16 0 -2
BITMAP
0000
0000
0000
0000
0000
0000
0000
0000
0000
0000
0000
0000
0000
0660
0990
0810
ENDCHAR
STARTCHAR 033D
ENCODING 829
SWIDTH 960 0
DWIDTH 16 0
BBX 16 16 0 -2
BITMAP
0420
0240
0180
0240
0420
0000
0000
0000
0000
0000
0000
0000
0000
0000
0000
0000
ENDCHAR
STARTCHAR 0361
ENCODING 865
SWIDTH 960 0
DWIDTH 16 0
BBX 16 16 0 -2
BITMAP
0000
07E0
1818
2004
0000
0000
0000
0000
0000
0000
0000
0000
0000
0000
0000
0000
ENDCHAR
STARTCHAR 0391
ENCODING 913
SWIDTH 960 0
DWIDTH 16 0
BBX 16 16 0 -2
BITMAP
0000
0100
0100
0380
0280
06C0
0440
0C60
0820
1FF0
1010
3018
2008
F83E
0000
0000
ENDCHAR
STARTCHAR 0392
ENCODING 914
SWIDTH 960 0
DWIDTH 16 0
BBX 16 16 0 -2
BITMAP
0000
3FE0
0810
0808
0808
0808
0810
0FE0
0818
0804
0804
0804
0808
3FF0
0000
0000
ENDCHAR
STARTCHAR 0393
ENCODING 915
SWIDTH 960 0
DWIDTH 16 0
BBX 16 16 0 -2
BITMAP
0000
1FFC
0404
0404
0400
0400
0400
0400
0400
0400
0400
0400
0400
1F00
0000
0000
ENDCHAR
STARTCHAR 0394
ENCODING 916
SWIDTH 960 0
DWIDTH 16 0
BBX 16 16 0 -2
BITMAP
0000
0100
0380
0280
06C0
0440
0C60
0820
0820
1830
1010
3018
2008
7FFC
0000
0000
ENDCHAR
STARTCHAR 0395
ENCODING 917
SWIDTH 960 0
DWIDTH 16 0
BBX 16 16 0 -2
BITMAP
0000
3FF8
0808
0808
0800
0840
0840
0FC0
0840
0840
0800
0808
0808
3FF8
0000
0000
ENDCHAR
STARTCHAR 0396
ENCODING 918
SWIDTH 960 0
DWIDTH 16 0
BBX 16 16 0 -2
BITMAP
0000
1FF8
1030
1060
0040
00C0
0180
0100
0300
0600
0400
0C08
1808
3FF8
0000
0000
ENDCHAR
STARTCHAR 0397
ENCODING 919
SWIDTH 960 0
DWIDTH 16 0
BBX 16 16 0 -2
BITMAP
0000
7C3E
1008
1008
1008
1008
1008
1FF8
1008
1008
1008
1008
1008
7C3E
0000
0000
ENDCHAR
STARTCHAR 0398
ENCODING 920
SWIDTH 960 0
DWIDTH 16 0
BBX 16 16 0 -2
BITMAP
0000
03C0
0C30
1818
1008
300C
2424
27E4
2424
300C
1008
1818
0C30
03C0
0000
0000
ENDCHAR
STARTCHAR 0399
ENCODING 921
SWIDTH 960 0
DWIDTH 16 0
BBX 16 16 0 -2
BITMAP
0000
07C0
0100
0100
0100
0100
0100
0100
0100
0100
0100
0100
0100
07C0
0000
0000
ENDCHAR
STARTCHAR 039A
ENCODING 922
SWIDTH 960 0
DWIDTH 16 0
BBX 16 16 0 -2
BITMAP
0000
3E7C
0830
0860
08C0
0980
0B00
0F00
0980
08C0
0860
0830
0818
3E3E
0000
0000
ENDCHAR
STARTCHAR 039B
ENCODING 923
SWIDTH 960 0
DWIDTH 16 0
BBX 16 16 0 -2
BITMAP
0000
0100
0380
0280
06C0
0440
0C60
0820
0820
1830
1010
3018
2008
F83E
0000
0000
ENDCHAR
STARTCHAR 039C
ENCODING 924
SWIDTH 960 0
DWIDTH 16 0
BBX 16 16 0 -2
BITMAP
0000
F01E
3018
3838
2828
2828
2C68
2448
2448
26C8
2288
2388
2108
F11E
0000
0000
ENDCHAR
STARTCHAR 039D
ENCODING 925
SWIDTH 960 0
DWIDTH 16 0
BBX 16 16 0 -2
BITMAP
0000
783E
1C08
1408
1608
1308
1108
1188
10C8
1048
1068
1038
1018
7808
0000
0000
ENDCHAR
STARTCHAR 039E
ENCODING 926
SWIDTH 960 0
DWIDTH 16 0
BBX 16 16 0 -2
BITMAP
0000
3FFC
2004
0000
0000
0000
1008
1FF8
1008
0000
0000
0000
2004
3FFC
0000
0000
ENDCHAR
STARTCHAR 039F
ENCODING 927
SWIDTH 960 0
DWIDTH 16 0
BBX 16 16 0 -2
BITMAP
0000
03C0
0C30
1818
1008
300C
2004
2004
2004
300C
1008
1818
0C30
03C0
0000
0000
ENDCHAR
STARTCHAR 03A0
ENCODING 928
SWIDTH 960 0
DWIDTH 16 0
BBX 16 16 0 -2
BITMAP
0000
3FFC
0810
0810
0810
0810
0810
0810
0810
0810
0810
0810
0810
3E7C
0000
0000
ENDCHAR
STARTCHAR 03A1
ENCODING 929
SWIDTH 960 0
DWIDTH 16 0
BBX 16 16 0 -2
BITMAP
0000
1FF0
0408
0404
0404
0404
0408
07F0
0400
0400
0400
0400
0400
1F00
0000
0000
ENDCHAR
STARTCHAR 03A3
ENCODING 931
SWIDTH 960 0
DWIDTH 16 0
BBX 16 16 0 -2
BITMAP
0000
3FF8
1808
0C08
0600
0300
0180
00C0
0180
0300
0600
0C08
1808
3FF8
0000
0000
ENDCHAR
STARTCHAR 03A4
ENCODING 932
SWIDTH 960 0
DWIDTH 16 0
BBX 16 16 0 -2
BITMAP
0000
7FFC
4104
4104
0100
0100
0100
0100
0100
0100
0100
0100
0100
07C0
0000
0000
ENDCHAR
STARTCHAR 03A5
ENCODING 933
SWIDTH 960 0
DWIDTH 16 0
BBX 16 16 0 -2
BITMAP
0000
1EF0
3398
610C
0100
0100
0100
0100
0100
0100
0100
0100
0100
07C0
0000
0000
ENDCHAR
STARTCHAR 03A6
ENCODING 934
SWIDTH 960 0
DWIDTH 16 0
BBX 16 16 0 -2
BITMAP
0000
07C0
0100
0FE0
3118
610C
4104
4104
4104
610C
3118
0FE0
0100
07C0
0000
0000
ENDCHAR
STARTCHAR 03A7
ENCODING 935
SWIDTH 960 0
DWIDTH 16 0
BBX 16 16 0 -2
BITMAP
0000
7C7C
1010
1830
0C60
06C0
0380
0100
0380
06C0
0C60
1830
1010
787C
0000
0000
ENDCHAR
STARTCHAR 03A8
ENCODING 936
SWIDTH 960 0
DWIDTH 16 0
BBX 16 16 0 -2
BITMAP
0000
07C0
610C
9112
1110
1110
1110
1110
1930
0920
07C0
0100
0100
07C0
0000
0000
ENDCHAR
STARTCHAR 03A9
ENCODING 937
SWIDTH 960 0
DWIDTH 16 0
BBX 16 16 0 -2
BITMAP
0000
03C0
0C30
1818
1008
2004
2004
2004
1008
1818
0C30
2244
2244
3E7C
0000
0000
ENDCHAR
STARTCHAR 03B1
ENCODING 945
SWIDTH 960 0
DWIDTH 16 0
BBX 16 16 0 -2
BITMAP
0000
0000
0000
0000
0000
0000
0388
0448
0850
0860
1040
10C0
1148
0E30
0000
0000
ENDCHAR
STARTCHAR 03B2
ENCODING 946
SWIDTH 960 0
DWIDTH 16 0
BBX 16 16 0 -2
BITMAP
0000
00F0
0188
0308
0208
0608
0410
04E0
0C30
0810
0810
0810
1A30
11E0
1000
3000
ENDCHAR
STARTCHAR 03B3
ENCODING 947
SWIDTH 960 0
DWIDTH 16 0
BBX 16 16 0 -2
BITMAP
0000
0000
0000
0000
0000
0000
0E18
1930
3160
01C0
0180
0100
0300
0200
0600
0400
ENDCHAR
STARTCHAR 03B4
ENCODING 948
SWIDTH 960 0
DWIDTH 16 0
BBX 16 16 0 -2
BITMAP
0000
03C0
0470
0218
0108
0080
0340
0420
0820
1020
1060
1040
0880
0700
0000
0000
ENDCHAR
STARTCHAR 03B5
ENCODING 949
SWIDTH 960 0
DWIDTH 16 0
BBX 16 16 0 -2
BITMAP
0000
0000
0000
0000
0000
0000
03E0
0410
0400
03C0
0400
0800
0820
07C0
0000
0000
ENDCHAR
STARTCHAR 03B6
ENCODING 950
SWIDTH 960 0
DWIDTH 16 0
BBX 16 16 0 -2
BITMAP
0200
0418
0430
03E0
00C0
0180
0300
0600
0C00
0800
0C00
0700
0180
0040
0040
0380
ENDCHAR
STARTCHAR 03B7
ENCODING 951
SWIDTH 960 0
DWIDTH 16 0
BBX 16 16 0 -2
BITMAP
0000
0000
0000
0000
0000
0000
0EF0
1318
0208
0608
0418
0410
0C10
0830
0020
0060
ENDCHAR
STARTCHAR 03B8
ENCODING 952
SWIDTH 960 0
DWIDTH 16 0
BBX 16 16 0 -2
BITMAP
0000
00E0
0310
0608
0C08
0808
1FF8
1008
1018
1010
1030
1060
08C0
0700
0000
0000
ENDCHAR
STARTCHAR 03B9
ENCODING 953
SWIDTH 960 0
DWIDTH 16 0
BBX 16 16 0 -2
BITMAP
0000
0000
0000
0000
0000
0000
0200
0200
0600
0400
0C00
0810
08E0
0780
0000
0000
ENDCHAR
STARTCHAR 03BA
ENCODING 954
SWIDTH 960 0
DWIDTH 16 0
BBX 16 16 0 -2
BITMAP
0000
0000
0000
0000
0000
0000
0438
0448
0580
0E00
0900
1900
1110
30E0
0000
0000
ENDCHAR
STARTCHAR 03BB
ENCODING 955
SWIDTH 960 0
DWIDTH 16 0
BBX 16 16 0 -2
BITMAP
0000
0180
00C0
0040
0040
0040
0040
00C0
0140
0240
0660
0420
0C30
1818
0000
0000
ENDCHAR
STARTCHAR 03BC
ENCODING 956
SWIDTH 960 0
DWIDTH 16 0
BBX 16 16 0 -2
BITMAP
0000
0000
0000
0000
0000
0000
0420
0420
0C60
0840
0840
0840
1CC8
1730
1000
3000
ENDCHAR
STARTCHAR 03BD
ENCODING 957
SWIDTH 960 0
DWIDTH 16 0
BBX 16 16 0 -2
BITMAP
0000
0000
0000
0000
0000
0000
1808
0408
0410
0430
0C60
08C0
0B80
1E00
0000
0000
ENDCHAR
STARTCHAR 03BE
ENCODING 958
SWIDTH 960 0
DWIDTH 16 0
BBX 16 16 0 -2
BITMAP
0000
00F0
0100
0080
03F0
0400
0400
0200
0FF0
1000
1000
0E00
01C0
0020
0020
0FC0
ENDCHAR
STARTCHAR 03BF
ENCODING 959
SWIDTH 960 0
DWIDTH 16 0
BBX 16 16 0 -2
BITMAP
0000
0000
0000
0000
0000
0000
01C0
0620
0C10
0810
0810
0830
0460
0380
0000
0000
ENDCHAR
STARTCHAR 03C0
ENCODING 960
SWIDTH 960 0
DWIDTH 16 0
BBX 16 16 0 -2
BITMAP
0000
0000
0000
0000
0000
0008
0FF0
1240
0240
0240
0480
0480
0C90
1860
0000
0000
ENDCHAR
STARTCHAR 03C1
ENCODING 961
SWIDTH 960 0
DWIDTH 16 0
BBX 16 16 0 -2
BITMAP
0000
0000
0000
0000
0000
0000
01C0
0220
0410
0410
0C10
0810
0A20
19C0
1000
1000
ENDCHAR
STARTCHAR 03C2
ENCODING 962
SWIDTH 960 0
DWIDTH 16 0
BBX 16 16 0 -2
BITMAP
0000
0000
0000
0000
0000
01C0
06F0
0C18
0808
0C18
0610
0300
0100
0080
0C80
0700
ENDCHAR
STARTCHAR 03C3
ENCODING 963
SWIDTH 960 0
DWIDTH 16 0
BBX 16 16 0 -2
BITMAP
0000
0000
0000
0000
0000
0008
01F8
0620
0C10
0810
0810
0830
0460
0380
0000
0000
ENDCHAR
STARTCHAR 03C4
ENCODING 964
SWIDTH 960 0
DWIDTH 16 0
BBX 16 16 0 -2
BITMAP
0000
0000
0000
0000
0000
0008
0FF0
1100
0300
0200
0600
0420
0440
0380
0000
0000
ENDCHAR
STARTCHAR 03C5
ENCODING 965
SWIDTH 960 0
DWIDTH 16 0
BBX 16 16 0 -2
BITMAP
0000
0000
0000
0000
0000
0000
0430
0410
0410
0C30
0820
0860
08C0
0700
0000
0000
ENDCHAR
STARTCHAR 03C6
ENCODING 966
SWIDTH 960 0
DWIDTH 16 0
BBX 16 16 0 -2
BITMAP
0000
0020
0020
0060
0040
0040
03E0
0C90
1088
1188
1108
0930
07C0
0200
0200
0600
ENDCHAR
STARTCHAR 03C7
ENCODING 967
SWIDTH 960 0
DWIDTH 16 0
BBX 16 16 0 -2
BITMAP
0000
0000
0000
0000
0000
0000
0618
0930
0160
01C0
0180
0300
0700
0D00
1890
3060
ENDCHAR
STARTCHAR 03C8
ENCODING 968
SWIDTH 960 0
DWIDTH 16 0
BBX 16 16 0 -2
BITMAP
0000
0020
0020
0060
0040
0040
0CC8
1488
0488
0D98
0910
0920
07C0
0200
0200
0600
ENDCHAR
STARTCHAR 03C9
ENCODING 969
SWIDTH 960 0
DWIDTH 16 0
BBX 16 16 0 -2
BITMAP
0000
0000
0000
0000
0000
0000
0408
0884
1084
1184
2104
2104
2388
1CF0
0000
0000
ENDCHAR
STARTCHAR 0401
ENCODING 1025
SWIDTH 960 0
DWIDTH 16 0
BBX 16 16 0 -2
BITMAP
0C30
0C30
0000
3FF8
0808
0808
0840
0840
0FC0
0840
0840
0808
0808
3FF8
0000
0000
ENDCHAR
STARTCHAR 0410
ENCODING 1040
SWIDTH 960 0
DWIDTH 16 0
BBX 16 16 0 -2
BITMAP
0000
0100
0700
0380
0280
06C0
0440
0C60
0820
1FF0
1010
3018
2008
F83E
0000
0000
ENDCHAR
STARTCHAR 0411
ENCODING 1041
SWIDTH 960 0
DWIDTH 16 0
BBX 16 16 0 -2
BITMAP
0000
3FF8
0808
0808
0800
0800
0800
0FF0
0808
0804
0804
0804
0808
3FF0
0000
0000
ENDCHAR
STARTCHAR 0412
ENCODING 1042
SWIDTH 960 0
DWIDTH 16 0
BBX 16 16 0 -2
BITMAP
0000
3FE0
0810
0808
0808
0808
0810
0FE0
0818
0804
0804
0804
0808
3FF0
0000
0000
ENDCHAR
STARTCHAR 0413
ENCODING 1043
SWIDTH 960 0
DWIDTH 16 0
BBX 16 16 0 -2
BITMAP
0000
1FF8
0408
0404
0400
0400
0400
0400
0400
0400
0400
0400
0400
1F00
0000
0000
ENDCHAR
STARTCHAR 0414
ENCODING 1044
SWIDTH 960 0
DWIDTH 16 0
BBX 16 16 0 -2
BITMAP
0000
0FFC
0210
0210
0210
0210
0210
0210
0210
0210
0410
0410
0810
3FFC
2004
2004
ENDCHAR
STARTCHAR 0415
ENCODING 1045
SWIDTH 960 0
DWIDTH 16 0
BBX 16 16 0 -2
BITMAP
0000
3FF8
0808
0804
0840
0840
0FC0
0840
0840
0800
0800
0804
0808
3FF8
0000
0000
ENDCHAR
STARTCHAR 0416
ENCODING 1046
SWIDTH 960 0
DWIDTH 16 0
BBX 16 16 0 -2
BITMAP
0000
67CC
9112
1110
1110
1110
0920
1FF0
1110
3118
2108
610C
4104
E7CE
0000
0000
ENDCHAR
STARTCHAR 0417
ENCODING 1047
SWIDTH 960 0
DWIDTH 16 0
BBX 16 16 0 -2
BITMAP
0000
07C0
1C30
1018
0008
0008
0010
03E0
0010
0008
0008
1018
1C30
07C0
0000
0000
ENDCHAR
STARTCHAR 0418
ENCODING 1048
SWIDTH 960 0
DWIDTH 16 0
BBX 16 16 0 -2
BITMAP
0000
7C3E
1008
1018
1038
1068
10C8
1188
1308
1608
1C08
1808
1008
7C3E
0000
0000
ENDCHAR
STARTCHAR 0419
ENCODING 1049
SWIDTH 960 0
DWIDTH 16 0
BBX 16 16 0 -2
BITMAP
0660
0420
03C0
7C3E
1008
1038
1068
10C8
1188
1308
1608
1C08
1008
7C3E
0000
0000
ENDCHAR
STARTCHAR 041A
ENCODING 1050
SWIDTH 960 0
DWIDTH 16 0
BBX 16 16 0 -2
BITMAP
0000
3E3C
0864
0840
08C0
0880
0980
0F00
0980
08C0
0860
0830
0818
3E3E
0000
0000
ENDCHAR
STARTCHAR 041B
ENCODING 1051
SWIDTH 960 0
DWIDTH 16 0
BBX 16 16 0 -2
BITMAP
0000
0FFC
0210
0210
0210
0210
0210
0210
0210
0610
0410
0C10
5810
707C
0000
0000
ENDCHAR
STARTCHAR 041C
ENCODING 1052
SWIDTH 960 0
DWIDTH 16 0
BBX 16 16 0 -2
BITMAP
0000
783C
1830
1C70
1450
1450
16D0
1290
3298
2388
2108
2108
2008
F83E
0000
0000
ENDCHAR
STARTCHAR 041D
ENCODING 1053
SWIDTH 960 0
DWIDTH 16 0
BBX 16 16 0 -2
BITMAP
0000
7C3E
1008
1008
1008
1008
1FF8
1008
1008
1008
1008
1008
1008
7C3E
0000
0000
ENDCHAR
STARTCHAR 041E
ENCODING 1054
SWIDTH 960 0
DWIDTH 16 0
BBX 16 16 0 -2
BITMAP
0000
03C0
0C30
1818
1008
300C
2004
2004
2004
300C
1008
1818
0C30
03C0
0000
0000
ENDCHAR
STARTCHAR 041F
ENCODING 1055
SWIDTH 960 0
DWIDTH 16 0
BBX 16 16 0 -2
BITMAP
0000
7FFE
1008
1008
1008
1008
1008
1008
1008
1008
1008
1008
1008
7C3E
0000
0000
ENDCHAR
STARTCHAR 0420
ENCODING 1056
SWIDTH 960 0
DWIDTH 16 0
BBX 16 16 0 -2
BITMAP
0000
1FF0
0408
0404
0404
0404
0408
07F0
0400
0400
0400
0400
0400
1F00
0000
0000
ENDCHAR
STARTCHAR 0421
ENCODING 1057
SWIDTH 960 0
DWIDTH 16 0
BBX 16 16 0 -2
BITMAP
0000
03E0
0C38
1808
1008
3000
2000
2000
2000
3000
1008
1808
0C38
03E0
0000
0000
ENDCHAR
STARTCHAR 0422
ENCODING 1058
SWIDTH 960 0
DWIDTH 16 0
BBX 16 16 0 -2
BITMAP
0000
7FFC
4104
4104
0100
0100
0100
0100
0100
0100
0100
0100
0100
07C0
0000
0000
ENDCHAR
STARTCHAR 0423
ENCODING 1059
SWIDTH 960 0
DWIDTH 16 0
BBX 16 16 0 -2
BITMAP
0000
3E3E
0808
0C18
0410
0630
0220
0360
0140
01C0
0080
0180
1300
1E00
0000
0000
ENDCHAR
STARTCHAR 0424
ENCODING 1060
SWIDTH 960 0
DWIDTH 16 0
BBX 16 16 0 -2
BITMAP
0000
07C0
0100
0FE0
3118
610C
4104
4104
4104
610C
3118
0FE0
0100
07C0
0000
0000
ENDCHAR
STARTCHAR 0425
ENCODING 1061
SWIDTH 960 0
DWIDTH 16 0
BBX 16 16 0 -2
BITMAP
0000
7C7C
1010
1830
0C60
06C0
0380
0100
0380
06C0
0C60
1830
1010
787C
0000
0000
ENDCHAR
STARTCHAR 0426
ENCODING 1062
SWIDTH 960 0
DWIDTH 16 0
BBX 16 16 0 -2
BITMAP
0000
7C7C
1010
1010
1010
1010
1010
1010
1010
1010
1010
1010
1010
7FFE
0002
0002
ENDCHAR
STARTCHAR 0427
ENCODING 1063
SWIDTH 960 0
DWIDTH 16 0
BBX 16 16 0 -2
BITMAP
0000
7C7C
1010
1010
1010
1010
1010
1830
0FD0
0010
0010
0010
0010
007C
0000
0000
ENDCHAR
STARTCHAR 0428
ENCODING 1064
SWIDTH 960 0
DWIDTH 16 0
BBX 16 16 0 -2
BITMAP
0000
F7DE
2108
2108
2108
2108
2108
2108
2108
2108
2108
2108
2108
FFFE
0000
0000
ENDCHAR
STARTCHAR 0429
ENCODING 1065
SWIDTH 960 0
DWIDTH 16 0
BBX 16 16 0 -2
BITMAP
0000
F7DE
2108
2108
2108
2108
2108
2108
2108
2108
2108
2108
2108
FFFF
0001
0001
ENDCHAR
STARTCHAR 042A
ENCODING 1066
SWIDTH 960 0
DWIDTH 16 0
BBX 16 16 0 -2
BITMAP
0000
7F80
4200
4200
0200
0200
03F8
0204
0202
0202
0202
0202
0204
0FF8
0000
0000
ENDCHAR
STARTCHAR 042B
ENCODING 1067
SWIDTH 960 0
DWIDTH 16 0
BBX 16 16 0 -2
BITMAP
0000
F83E
2008
2008
2008
2008
3F08
2088
2048
2048
2048
2048
2088
FF3E
0000
0000
ENDCHAR
STARTCHAR 042C
ENCODING 1068
SWIDTH 960 0
DWIDTH 16 0
BBX 16 16 0 -2
BITMAP
0000
3E00
0800
0800
0800
0800
0FE0
0810
0808
0808
0808
0808
0810
3FE0
0000
0000
ENDCHAR
STARTCHAR 042D
ENCODING 1069
SWIDTH 960 0
DWIDTH 16 0
BBX 16 16 0 -2
BITMAP
0000
07C0
1C30
1018
1008
000C
0714
08E4
0004
000C
1008
1018
1C30
07C0
0000
0000
ENDCHAR
STARTCHAR 042E
ENCODING 1070
SWIDTH 960 0
DWIDTH 16 0
BBX 16 16 0 -2
BITMAP
0000
F870
218C
2104
2306
2202
2202
3E02
2202
2202
2306
2104
218C
F870
0000
0000
ENDCHAR
STARTCHAR 042F
ENCODING 1071
SWIDTH 960 0
DWIDTH 16 0
BBX 16 16 0 -2
BITMAP
0000
0FFC
1010
2010
2010
2010
1010
0FF0
0210
0610
0410
0C10
1810
707C
0000
0000
ENDCHAR
STARTCHAR 0430
ENCODING 1072
SWIDTH 960 0
DWIDTH 16 0
BBX 16 16 0 -2
BITMAP
0000
0000
0000
0000
0000
0000
07E0
0010
0010
07F0
0810
0810
0830
07D8
0000
0000
ENDCHAR
STARTCHAR 0431
ENCODING 1073
SWIDTH 960 0
DWIDTH 16 0
BBX 16 16 0 -2
BITMAP
0000
0010
03E0
0600
0C00
0800
0BC0
0C20
0810
0810
0810
0810
0420
03C0
0000
0000
ENDCHAR
STARTCHAR 0432
ENCODING 1074
SWIDTH 960 0
DWIDTH 16 0
BBX 16 16 0 -2
BITMAP
0000
0000
0000
0000
0000
0000
0FE0
0410
0410
07E0
0410
0410
0410
0FE0
0000
0000
ENDCHAR
STARTCHAR 0433
ENCODING 1075
SWIDTH 960 0
DWIDTH 16 0
BBX 16 16 0 -2
BITMAP
0000
0000
0000
0000
0000
0000
0FF0
0410
0410
0400
0400
0400
0400
0E00
0000
0000
ENDCHAR
STARTCHAR 0434
ENCODING 1076
SWIDTH 960 0
DWIDTH 16 0
BBX 16 16 0 -2
BITMAP
0000
0000
0000
0000
0000
0000
07F0
0220
0220
0220
0220
0620
0420
1FF8
1008
1008
ENDCHAR
STARTCHAR 0435
ENCODING 1077
SWIDTH 960 0
DWIDTH 16 0
BBX 16 16 0 -2
BITMAP
0000
0000
0000
0000
0000
0000
03C0
0420
0810
0FF0
0800
0800
0410
03E0
0000
0000
ENDCHAR
STARTCHAR 0436
ENCODING 1078
SWIDTH 960 0
DWIDTH 16 0
BBX 16 16 0 -2
BITMAP
0000
0000
0000
0000
0000
0000
3398
1110
0920
07C0
0D60
0920
1930
3398
0000
0000
ENDCHAR
STARTCHAR 0437
ENCODING 1079
SWIDTH 960 0
DWIDTH 16 0
BBX 16 16 0 -2
BITMAP
0000
0000
0000
0000
0000
0000
07E0
0410
0010
01E0
0010
0010
0410
07E0
0000
0000
ENDCHAR
STARTCHAR 0438
ENCODING 1080
SWIDTH 960 0
DWIDTH 16 0
BBX 16 16 0 -2
BITMAP
0000
0000
0000
0000
0000
0000
1C38
0810
0830
08D0
0B10
0C10
0810
1C38
0000
0000
ENDCHAR
STARTCHAR 0439
ENCODING 1081
SWIDTH 960 0
DWIDTH 16 0
BBX 16 16 0 -2
BITMAP
0000
0000
0660
0420
03C0
0000
1C38
0810
0830
08D0
0B10
0C10
0810
1C38
0000
0000
ENDCHAR
STARTCHAR 043A
ENCODING 1082
SWIDTH 960 0
DWIDTH 16 0
BBX 16 16 0 -2
BITMAP
0000
0000
0000
0000
0000
0000
0E70
0490
0500
0700
0480
0440
0420
0E78
0000
0000
ENDCHAR
STARTCHAR 043B
ENCODING 1083
SWIDTH 960 0
DWIDTH 16 0
BBX 16 16 0 -2
BITMAP
0000
0000
0000
0000
0000
0000
07F0
0220
0220
0220
0220
0220
1620
1C70
0000
0000
ENDCHAR
STARTCHAR 043C
ENCODING 1084
SWIDTH 960 0
DWIDTH 16 0
BBX 16 16 0 -2
BITMAP
0000
0000
0000
0000
0000
0000
3838
1450
1450
1290
1290
1110
1110
3838
0000
0000
ENDCHAR
STARTCHAR 043D
ENCODING 1085
SWIDTH 960 0
DWIDTH 16 0
BBX 16 16 0 -2
BITMAP
0000
0000
0000
0000
0000
0000
1C38
0810
0810
0FF0
0810
0810
0810
1C38
0000
0000
ENDCHAR
STARTCHAR 043E
ENCODING 1086
SWIDTH 960 0
DWIDTH 16 0
BBX 16 16 0 -2
BITMAP
0000
0000
0000
0000
0000
0000
03C0
0420
0810
0810
0810
0810
0420
03C0
0000
0000
ENDCHAR
STARTCHAR 043F
ENCODING 1087
SWIDTH 960 0
DWIDTH 16 0
BBX 16 16 0 -2
BITMAP
0000
0000
0000
0000
0000
0000
1FF0
0820
0820
0820
0820
0820
0820
1C70
0000
0000
ENDCHAR
STARTCHAR 0440
ENCODING 1088
SWIDTH 960 0
DWIDTH 16 0
BBX 16 16 0 -2
BITMAP
0000
0000
0000
0000
0000
0000
0DE0
0610
0408
0408
0408
0610
05E0
0400
0400
0E00
ENDCHAR
STARTCHAR 0441
ENCODING 1089
SWIDTH 960 0
DWIDTH 16 0
BBX 16 16 0 -2
BITMAP
0000
0000
0000
0000
0000
0000
03E0
0410
0800
0800
0800
0800
0410
03E0
0000
0000
ENDCHAR
STARTCHAR 0442
ENCODING 1090
SWIDTH 960 0
DWIDTH 16 0
BBX 16 16 0 -2
BITMAP
0000
0000
0000
0000
0000
0000
1FF0
1110
0100
0100
0100
0100
0100
0380
0000
0000
ENDCHAR
STARTCHAR 0443
ENCODING 1091
SWIDTH 960 0
DWIDTH 16 0
BBX 16 16 0 -2
BITMAP
0000
0000
0000
0000
0000
0000
1C38
0810
0C30
0420
0660
0240
02C0
0180
1300
1E00
ENDCHAR
STARTCHAR 0444
ENCODING 1092
SWIDTH 960 0
DWIDTH 16 0
BBX 16 16 0 -2
BITMAP
0000
0300
0100
0100
0100
0100
0D60
1390
2108
2108
2108
2108
1390
0D60
0100
0380
ENDCHAR
STARTCHAR 0445
ENCODING 1093
SWIDTH 960 0
DWIDTH 16 0
BBX 16 16 0 -2
BITMAP
0000
0000
0000
0000
0000
0000
0E70
0420
0240
0180
0180
0240
0420
1E78
0000
0000
ENDCHAR
STARTCHAR 0446
ENCODING 1094
SWIDTH 960 0
DWIDTH 16 0
BBX 16 16 0 -2
BITMAP
0000
0000
0000
0000
0000
0000
1C70
0820
0820
0820
0820
0820
0820
1FF8
0008
0008
ENDCHAR
STARTCHAR 0447
ENCODING 1095
SWIDTH 960 0
DWIDTH 16 0
BBX 16 16 0 -2
BITMAP
0000
0000
0000
0000
0000
0000
1C38
0810
0810
0810
07F0
0010
0010
0038
0000
0000
ENDCHAR
STARTCHAR 0448
ENCODING 1096
SWIDTH 960 0
DWIDTH 16 0
BBX 16 16 0 -2
BITMAP
0000
0000
0000
0000
0000
0000
739C
2108
2108
2108
2108
2108
2108
7FFC
0000
0000
ENDCHAR
STARTCHAR 0449
ENCODING 1097
SWIDTH 960 0
DWIDTH 16 0
BBX 16 16 0 -2
BITMAP
0000
0000
0000
0000
0000
0000
739C
2108
2108
2108
2108
2108
2108
7FFE
0002
0002
ENDCHAR
STARTCHAR 044A
ENCODING 1098
SWIDTH 960 0
DWIDTH 16 0
BBX 16 16 0 -2
BITMAP
0000
0000
0000
0000
0000
0000
3F80
2100
2100
01F8
0104
0104
0104
03F8
0000
0000
ENDCHAR
STARTCHAR 044B
ENCODING 1099
SWIDTH 960 0
DWIDTH 16 0
BBX 16 16 0 -2
BITMAP
0000
0000
0000
0000
0000
0000
381C
1008
1008
1F88
1048
1048
1048
3F9C
0000
0000
ENDCHAR
STARTCHAR 044C
ENCODING 1100
SWIDTH 960 0
DWIDTH 16 0
BBX 16 16 0 -2
BITMAP
0000
0000
0000
0000
0000
0000
0E00
0400
0400
07E0
0410
0410
0410
0FE0
0000
0000
ENDCHAR
STARTCHAR 044D
ENCODING 1101
SWIDTH 960 0
DWIDTH 16 0
BBX 16 16 0 -2
BITMAP
0000
0000
0000
0000
0000
0000
07C0
0820
0010
0330
04D0
0010
0820
07C0
0000
0000
ENDCHAR
STARTCHAR 044E
ENCODING 1102
SWIDTH 960 0
DWIDTH 16 0
BBX 16 16 0 -2
BITMAP
0000
0000
0000
0000
0000
0000
1C70
0888
0904
0F04
0904
0904
0888
1C70
0000
0000
ENDCHAR
STARTCHAR 044F
ENCODING 1103
SWIDTH 960 0
DWIDTH 16 0
BBX 16 16 0 -2
BITMAP
0000
0000
0000
0000
0000
0000
07F0
0820
0820
0820
07E0
0220
0420
1C70
0000
0000
ENDCHAR
STARTCHAR 0451
ENCODING 1105
SWIDTH 960 0
DWIDTH 16 0
BBX 16 16 0 -2
BITMAP
0000
0000
0000
0660
0660
0000
03C0
0420
0810
0FF0
0800
0800
0410
03E0
0000
0000
ENDCHAR
STARTCHAR 1E3E
ENCODING 7742
SWIDTH 960 0
DWIDTH 16 0
BBX 16 16 0 -2
BITMAP
0180
F11E
3218
3838
2828
2828
2C68
2448
2448
26C8
2288
2388
2108
F11E
0000
0000
ENDCHAR
STARTCHAR 1E3F
ENCODING 7743
SWIDTH 960 0
DWIDTH 16 0
BBX 16 16 0 -2
BITMAP
0000
0000
00C0
0080
0100
0000
3738
18C4
1084
1084
1084
1084
1084
39CE
0000
0000
ENDCHAR
STARTCHAR 1F70
ENCODING 8048
SWIDTH 960 0
DWIDTH 16 0
BBX 16 16 0 -2
BITMAP
0000
0000
0300
0100
0080
0000
03A0
0460
0820
0820
0820
0820
0460
03B8
0000
0000
ENDCHAR
STARTCHAR 1F71
ENCODING 8049
SWIDTH 960 0
DWIDTH 16 0
BBX 16 16 0 -2
BITMAP
0000
0000
0180
0100
0200
0000
03A0
0460
0820
0820
0820
0820
0460
03B8
0000
0000
ENDCHAR
STARTCHAR 1F72
ENCODING 8050
SWIDTH 960 0
DWIDTH 16 0
BBX 16 16 0 -2
BITMAP
0000
0180
0080
0040
0000
03E0
0430
0810
0800
07C0
0800
0800
0410
03E0
0000
0000
ENDCHAR
STARTCHAR 1F73
ENCODING 8051
SWIDTH 960 0
DWIDTH 16 0
BBX 16 16 0 -2
BITMAP
0000
00C0
0080
0100
0000
03E0
0430
0810
0800
07C0
0800
0800
0410
03E0
0000
0000
ENDCHAR
STARTCHAR 2000
ENCODING 8192
SWIDTH 960 0
DWIDTH 16 0
BBX 16 16 0 -2
BITMAP
0000
0000
0000
0000
0000
0000
0000
0000
0000
0000
0000
0000
0000
0000
0000
0000
ENDCHAR
STARTCHAR 2001
ENCODING 8193
SWIDTH 960 0
DWIDTH 16 0
BBX 16 16 0 -2
BITMAP
0000
0000
0000
0000
0000
0000
0000
0000
0000
0000
0000
0000
0000
0000
0000
0000
ENDCHAR
STARTCHAR 2002
ENCODING 8194
SWIDTH 960 0
DWIDTH 16 0
BBX 16 16 0 -2
BITMAP
0000
0000
0000
0000
0000
0000
0000
0000
0000
0000
0000
0000
0000
0000
0000
0000
ENDCHAR
STARTCHAR 2003
ENCODING 8195
SWIDTH 960 0
DWIDTH 16 0
BBX 16 16 0 -2
BITMAP
0000
0000
0000
0000
0000
0000
0000
0000
0000
0000
0000
0000
0000
0000
0000
0000
ENDCHAR
STARTCHAR 2004
ENCODING 8196
SWIDTH 960 0
DWIDTH 16 0
BBX 16 16 0 -2
BITMAP
0000
0000
0000
0000
0000
0000
0000
0000
0000
0000
0000
0000
0000
0000
0000
0000
ENDCHAR
STARTCHAR 2005
ENCODING 8197
SWIDTH 960 0
DWIDTH 16 0
BBX 16 16 0 -2
BITMAP
0000
0000
0000
0000
0000
0000
0000
0000
0000
0000
0000
0000
0000
0000
0000
0000
ENDCHAR
STARTCHAR 2006
ENCODING 8198
SWIDTH 960 0
DWIDTH 16 0
BBX 16 16 0 -2
BITMAP
0000
0000
0000
0000
0000
0000
0000
0000
0000
0000
0000
0000
0000
0000
0000
0000
ENDCHAR
STARTCHAR 2007
ENCODING 8199
SWIDTH 960 0
DWIDTH 16 0
BBX 16 16 0 -2
BITMAP
0000
0000
0000
0000
0000
0000
0000
0000
0000
0000
0000
0000
0000
0000
0000
0000
ENDCHAR
STARTCHAR 2008
ENCODING 8200
SWIDTH 960 0
DWIDTH 16 0
BBX 16 16 0 -2
BITMAP
0000
0000
0000
0000
0000
0000
0000
0000
0000
0000
0000
0000
0000
0000
0000
0000
ENDCHAR
STARTCHAR 2009
ENCODING 8201
SWIDTH 960 0
DWIDTH 16 0
BBX 16 16 0 -2
BITMAP
0000
0000
0000
0000
0000
0000
0000
0000
0000
0000
0000
0000
0000
0000
0000
0000
ENDCHAR
STARTCHAR 200A
ENCODING 8202
SWIDTH 960 0
DWIDTH 16 0
BBX 16 16 0 -2
BITMAP
0000
0000
0000
0000
0000
0000
0000
0000
0000
0000
0000
0000
0000
0000
0000
0000
ENDCHAR
STARTCHAR 200B
ENCODING 8203
SWIDTH 480 0
DWIDTH 8 0
BBX 1 1 0 0
BITMAP
00
ENDCHAR
STARTCHAR 200C
ENCODING 8204
SWIDTH 480 0
DWIDTH 8 0
BBX 1 1 0 0
BITMAP
00
ENDCHAR
STARTCHAR 200D
ENCODING 8205
SWIDTH 480 0
DWIDTH 8 0
BBX 1 1 0 0
BITMAP
00
ENDCHAR
STARTCHAR 200E
ENCODING 8206
SWIDTH 480 0
DWIDTH 8 0
BBX 1 1 0 0
BITMAP
00
ENDCHAR
STARTCHAR 200F
ENCODING 8207
SWIDTH 480 0
DWIDTH 8 0
BBX 1 1 0 0
BITMAP
00
ENDCHAR
STARTCHAR 2010
ENCODING 8208
SWIDTH 960 0
DWIDTH 16 0
BBX 16 16 0 -2
BITMAP
0000
0000
0000
0000
0000
0000
0000
07E0
0000
0000
0000
0000
0000
0000
0000
0000
ENDCHAR
STARTCHAR 2013
ENCODING 8211
SWIDTH 960 0
DWIDTH 16 0
BBX 16 16 0 -2
BITMAP
0000
0000
0000
0000
0000
0000
0000
0FF0
0000
0000
0000
0000
0000
0000
0000
0000
ENDCHAR
STARTCHAR 2014
ENCODING 8212
SWIDTH 960 0
DWIDTH 16 0
BBX 16 16 0 -2
BITMAP
0000
0000
0000
0000
0000
0000
0000
FFFF
0000
0000
0000
0000
0000
0000
0000
0000
ENDCHAR
STARTCHAR 2015
ENCODING 8213
SWIDTH 960 0
DWIDTH 16 0
BBX 16 16 0 -2
BITMAP
0000
0000
0000
0000
0000
0000
0000
FFFF
0000
0000
0000
0000
0000
0000
0000
0000
ENDCHAR
STARTCHAR 2016
ENCODING 8214
SWIDTH 960 0
DWIDTH 16 0
BBX 16 16 0 -2
BITMAP
0440
0440
0440
0440
0440
0440
0440
0440
0440
0440
0440
0440
0440
0440
0440
0440
ENDCHAR
STARTCHAR 2018
ENCODING 8216
SWIDTH 960 0
DWIDTH 16 0
BBX 16 16 0 -2
BITMAP
0008
0010
0018
0018
0000
0000
0000
0000
0000
0000
0000
0000
0000
0000
0000
0000
ENDCHAR
STARTCHAR 2019
ENCODING 8217
SWIDTH 960 0
DWIDTH 16 0
BBX 16 16 0 -2
BITMAP
1800
1800
0800
1000
0000
0000
0000
0000
0000
0000
0000
0000
0000
0000
0000
0000
ENDCHAR
STARTCHAR 201C
ENCODING 8220
SWIDTH 960 0
DWIDTH 16 0
BBX 16 16 0 -2
BITMAP
0024
0048
006C
006C
0000
0000
0000
0000
0000
0000
0000
0000
0000
0000
0000
0000
ENDCHAR
STARTCHAR 201D
ENCODING 8221
SWIDTH 960 0
DWIDTH 16 0
BBX 16 16 0 -2
BITMAP
3600
3600
1200
2400
0000
0000
0000
0000
0000
0000
0000
0000
0000
0000
0000
0000
ENDCHAR
STARTCHAR 2020
ENCODING 8224
SWIDTH 960 0
DWIDTH 16 0
BBX 16 16 0 -2
BITMAP
0100
0380
0920
1FF0
0920
0100
07C0
0380
0380
0380
0380
0380
0100
0100
0100
0100
ENDCHAR
STARTCHAR 2021
ENCODING 8225
SWIDTH 960 0
DWIDTH 16 0
BBX 16 16 0 -2
BITMAP
0100
0380
0920
1FF0
0920
0380
0380
0100
0100
0380
0380
0920
1FF0
0920
0380
0100
ENDCHAR
STARTCHAR 2022
ENCODING 8226
SWIDTH 960 0
DWIDTH 16 0
BBX 16 16 0 -2
BITMAP
0000
0000
0000
0000
0180
03C0
07E0
07E0
03C0
0180
0000
0000
0000
0000
0000
0000
ENDCHAR
STARTCHAR 2025
ENCODING 8229
SWIDTH 960 0
DWIDTH 16 0
BBX 16 16 0 -2
BITMAP
0000
0000
0000
0000
0000
0000
0000
1818
1818
0000
0000
0000
0000
0000
0000
0000
ENDCHAR
STARTCHAR 2026
ENCODING 8230
SWIDTH 960 0
DWIDTH 16 0
BBX 16 16 0 -2
BITMAP
0000
0000
0000
0000
0000
0000
0000
618C
618C
0000
0000
0000
0000
0000
0000
0000
ENDCHAR
STARTCHAR 2030
ENCODING 8240
SWIDTH 960 0
DWIDTH 16 0
BBX 16 16 0 -2
BITMAP
0000
3040
4840
4880
4900
4900
4A00
3400
058C
0A52
1252
1252
2252
4252
418C
0000
ENDCHAR
STARTCHAR 2032
ENCODING 8242
SWIDTH 960 0
DWIDTH 16 0
BBX 16 16 0 -2
BITMAP
0000
0800
1800
3000
2000
0000
0000
0000
0000
0000
0000
0000
0000
0000
0000
0000
ENDCHAR
STARTCHAR 2033
ENCODING 8243
SWIDTH 960 0
DWIDTH 16 0
BBX 16 16 0 -2
BITMAP
0000
1100
3300
6600
4400
0000
0000
0000
0000
0000
0000
0000
0000
0000
0000
0000
ENDCHAR
STARTCHAR 203B
ENCODING 8251
SWIDTH 960 0
DWIDTH 16 0
BBX 16 16 0 -2
BITMAP
0000
0000
2184
1188
0810
0420
0240
318C
318C
0240
0420
0810
1188
2184
0000
0000
ENDCHAR
STARTCHAR 203C
ENCODING 8252
SWIDTH 960 0
DWIDTH 16 0
BBX 16 16 0 -2
BITMAP
0000
0660
0660
0660
0660
0660
0440
0440
0440
0440
0000
0000
0660
0660
0000
0000
ENDCHAR
STARTCHAR 203E
ENCODING 8254
SWIDTH 960 0
DWIDTH 16 0
BBX 16 16 0 -2
BITMAP
FFFF
0000
0000
0000
0000
0000
0000
0000
0000
0000
0000
0000
0000
0000
0000
0000
ENDCHAR
STARTCHAR 203F
ENCODING 8255
SWIDTH 960 0
DWIDTH 16 0
BBX 16 16 0 -2
BITMAP
0000
0000
0000
0000
0000
0000
0000
0000
0000
0000
0000
0000
2004
1818
07E0
0000
ENDCHAR
STARTCHAR 2042
ENCODING 8258
SWIDTH 960 0
DWIDTH 16 0
BBX 16 16 0 -2
BITMAP
0100
0D60
07C0
0100
07C0
0D60
0100
0000
1010
D6D6
7C7C
1010
7C7C
D6D6
1010
0000
ENDCHAR
STARTCHAR 2047
ENCODING 8263
SWIDTH 960 0
DWIDTH 16 0
BBX 16 16 0 -2
BITMAP
0000
1C38
2244
4182
4182
2142
060C
0810
1020
1020
0000
0000
1830
1830
0000
0000
ENDCHAR
STARTCHAR 2048
ENCODING 8264
SWIDTH 960 0
DWIDTH 16 0
BBX 16 16 0 -2
BITMAP
0000
0F18
1098
2058
2058
1058
0190
0210
0410
0410
0000
0000
0618
0618
0000
0000
ENDCHAR
STARTCHAR 2049
ENCODING 8265
SWIDTH 960 0
DWIDTH 16 0
BBX 16 16 0 -2
BITMAP
0000
18F0
1908
1A04
1A04
1904
1018
1020
1040
1040
0000
0000
1860
1860
0000
0000
ENDCHAR
STARTCHAR 2051
ENCODING 8273
SWIDTH 960 0
DWIDTH 16 0
BBX 16 16 0 -2
BITMAP
0100
0D60
07C0
0100
07C0
0D60
0100
0000
0100
0D60
07C0
0100
07C0
0D60
0100
0000
ENDCHAR
STARTCHAR 20AC
ENCODING 8364
SWIDTH 960 0
DWIDTH 16 0
BBX 16 16 0 -2
BITMAP
0000
01E0
0610
0C0C
0804
1800
7FF0
1000
7FE0
1800
0804
0C0C
0618
01E0
0000
0000
ENDCHAR
STARTCHAR 2103
ENCODING 8451
SWIDTH 960 0
DWIDTH 16 0
BBX 16 16 0 -2
BITMAP
0000
60F2
930A
9606
6402
0C02
0800
0800
0800
0C00
0402
0606
030C
00F0
0000
0000
ENDCHAR
STARTCHAR 210F
ENCODING 8463
SWIDTH 960 0
DWIDTH 16 0
BBX 16 16 0 -2
BITMAP
0000
0E00
02C0
0300
0600
1C00
05E0
0630
0410
0410
0C30
0820
0824
0838
0000
0000
ENDCHAR
STARTCHAR 2113
ENCODING 8467
SWIDTH 960 0
DWIDTH 16 0
BBX 16 16 0 -2
BITMAP
0000
00C0
0120
0220
0220
0420
0420
0420
0440
0440
0588
0308
0510
18E0
0000
0000
ENDCHAR
STARTCHAR 2116
ENCODING 8470
SWIDTH 960 0
DWIDTH 16 0
BBX 16 16 0 -2
BITMAP
0000
E700
4200
6200
6200
5230
5248
4A84
4A84
4A84
4684
4684
424B
E233
0000
0000
ENDCHAR
STARTCHAR 2121
ENCODING 8481
SWIDTH 960 0
DWIDTH 16 0
BBX 16 16 0 -2
BITMAP
0000
FBD8
AA50
A210
2210
2210
2250
23D0
2250
2210
2210
2210
2251
77DF
0000
0000
ENDCHAR
STARTCHAR 2127
ENCODING 8487
SWIDTH 960 0
DWIDTH 16 0
BBX 16 16 0 -2
BITMAP
0000
3E7C
2244
2244
0C30
1818
1008
2004
2004
2004
1008
1818
0C30
03C0
0000
0000
ENDCHAR
STARTCHAR 212B
ENCODING 8491
SWIDTH 960 0
DWIDTH 16 0
BBX 16 16 0 -2
BITMAP
0180
0240
0240
0180
0000
0100
0280
0280
0440
0420
0FF0
0810
1008
7C3E
0000
0000
ENDCHAR
STARTCHAR 2135
ENCODING 8501
SWIDTH 960 0
DWIDTH 16 0
BBX 16 16 0 -2
BITMAP
0000
1020
1030
1810
0C18
0628
0320
0FC0
18C0
1060
1030
0818
1808
3008
0000
0000
ENDCHAR
STARTCHAR 2153
ENCODING 8531
SWIDTH 960 0
DWIDTH 16 0
BBX 16 16 0 -2
BITMAP
0080
0180
0680
0080
0080
07F0
0000
7FFE
0000
03E0
0410
0010
03E0
0010
0410
03E0
ENDCHAR
STARTCHAR 2154
ENCODING 8532
SWIDTH 960 0
DWIDTH 16 0
BBX 16 16 0 -2
BITMAP
03E0
0410
0010
03E0
0400
07F0
0000
7FFE
0000
03E0
0410
0010
03E0
0010
0410
03E0
ENDCHAR
STARTCHAR 2155
ENCODING 8533
SWIDTH 960 0
DWIDTH 16 0
BBX 16 16 0 -2
BITMAP
0080
0180
0680
0080
0080
07F0
0000
7FFE
0000
07F0
0400
0400
07E0
0010
0410
03E0
ENDCHAR
STARTCHAR 2160
ENCODING 8544
SWIDTH 960 0
DWIDTH 16 0
BBX 16 16 0 -2
BITMAP
0000
07C0
0100
0100
0100
0100
0100
0100
0100
0100
0100
0100
0100
07C0
0000
0000
ENDCHAR
STARTCHAR 2161
ENCODING 8545
SWIDTH 960 0
DWIDTH 16 0
BBX 16 16 0 -2
BITMAP
0000
1FF8
0420
0420
0420
0420
0420
0420
0420
0420
0420
0420
0420
1FF8
0000
0000
ENDCHAR
STARTCHAR 2162
ENCODING 8546
SWIDTH 960 0
DWIDTH 16 0
BBX 16 16 0 -2
BITMAP
0000
7FFC
1110
1110
1110
1110
1110
1110
1110
1110
1110
1110
1110
7FFC
0000
0000
ENDCHAR
STARTCHAR 2163
ENCODING 8547
SWIDTH 960 0
DWIDTH 16 0
BBX 16 16 0 -2
BITMAP
0000
7F1E
1408
1408
1608
1218
1210
1310
1130
1120
11A0
10E0
10C0
7C40
0000
0000
ENDCHAR
STARTCHAR 2164
ENCODING 8548
SWIDTH 960 0
DWIDTH 16 0
BBX 16 16 0 -2
BITMAP
0000
7C3E
1008
1818
0810
0830
0C20
0420
0460
0640
02C0
0280
0380
0100
0000
0000
ENDCHAR
STARTCHAR 2165
ENCODING 8549
SWIDTH 960 0
DWIDTH 16 0
BBX 16 16 0 -2
BITMAP
0000
78FE
1028
1028
1068
1848
0848
08C8
0C88
0488
0588
0708
0308
023E
0000
0000
ENDCHAR
STARTCHAR 2166
ENCODING 8550
SWIDTH 960 0
DWIDTH 16 0
BBX 16 16 0 -2
BITMAP
0000
73FE
2148
2148
2148
3348
1248
1248
1648
1448
1C48
0C48
0848
08FE
0000
0000
ENDCHAR
STARTCHAR 2167
ENCODING 8551
SWIDTH 960 0
DWIDTH 16 0
BBX 16 16 0 -2
BITMAP
0000
E7FF
4292
4292
4292
6692
2492
2492
2C92
2892
3892
1892
1092
11FF
0000
0000
ENDCHAR
STARTCHAR 2168
ENCODING 8552
SWIDTH 960 0
DWIDTH 16 0
BBX 16 16 0 -2
BITMAP
0000
7FCE
1104
118C
1088
10D8
1070
1020
1070
10D8
1088
118C
1104
7F9E
0000
0000
ENDCHAR
STARTCHAR 2169
ENCODING 8553
SWIDTH 960 0
DWIDTH 16 0
BBX 16 16 0 -2
BITMAP
0000
7C7C
1010
1830
0C60
06C0
0380
0100
0380
06C0
0C60
1830
1010
787C
0000
0000
ENDCHAR
STARTCHAR 216A
ENCODING 8554
SWIDTH 960 0
DWIDTH 16 0
BBX 16 16 0 -2
BITMAP
0000
79FE
2088
3188
1108
1B08
0E08
0408
0E08
1B08
1108
3188
2088
73FE
0000
0000
ENDCHAR
STARTCHAR 216B
ENCODING 8555
SWIDTH 960 0
DWIDTH 16 0
BBX 16 16 0 -2
BITMAP
0000
79FE
20A4
31A4
1124
1B24
0E24
0424
0E24
1B24
1124
31A4
20A4
73FE
0000
0000
ENDCHAR
STARTCHAR 2170
ENCODING 8560
SWIDTH 960 0
DWIDTH 16 0
BBX 16 16 0 -2
BITMAP
0000
0000
0180
0180
0000
0000
0380
0080
0080
0080
0080
0080
0080
03E0
0000
0000
ENDCHAR
STARTCHAR 2171
ENCODING 8561
SWIDTH 960 0
DWIDTH 16 0
BBX 16 16 0 -2
BITMAP
0000
0000
0660
0660
0000
0000
0EE0
0220
0220
0220
0220
0220
0220
1FF8
0000
0000
ENDCHAR
STARTCHAR 2172
ENCODING 8562
SWIDTH 960 0
DWIDTH 16 0
BBX 16 16 0 -2
BITMAP
0000
0000
1998
1998
0000
0000
3BB8
0888
0888
0888
0888
0888
0888
3FFE
0000
0000
ENDCHAR
STARTCHAR 2173
ENCODING 8563
SWIDTH 960 0
DWIDTH 16 0
BBX 16 16 0 -2
BITMAP
0000
0000
1800
1800
0000
0000
39DC
0888
0888
08D8
0850
0870
0820
3E20
0000
0000
ENDCHAR
STARTCHAR 2174
ENCODING 8564
SWIDTH 960 0
DWIDTH 16 0
BBX 16 16 0 -2
BITMAP
0000
0000
0000
0000
0000
0000
3C78
0820
0C60
0440
06C0
0280
0380
0100
0000
0000
ENDCHAR
STARTCHAR 2175
ENCODING 8565
SWIDTH 960 0
DWIDTH 16 0
BBX 16 16 0 -2
BITMAP
0000
0000
0030
0030
0000
0000
3BF0
1110
1110
1B10
0A10
0E10
0410
047C
0000
0000
ENDCHAR
STARTCHAR 2176
ENCODING 8566
SWIDTH 960 0
DWIDTH 16 0
BBX 16 16 0 -2
BITMAP
0000
0000
006C
006C
0000
0000
77FC
2224
2224
3624
1424
1C24
0824
08FE
0000
0000
ENDCHAR
STARTCHAR 2177
ENCODING 8567
SWIDTH 960 0
DWIDTH 16 0
BBX 16 16 0 -2
BITMAP
0000
0000
01B6
01B6
0000
0000
77B6
2292
2292
3692
1492
1C92
0892
09FE
0000
0000
ENDCHAR
STARTCHAR 2178
ENCODING 8568
SWIDTH 960 0
DWIDTH 16 0
BBX 16 16 0 -2
BITMAP
0000
0000
1800
1800
0000
0000
3B9C
0890
0890
0860
0890
0890
0908
3F9C
0000
0000
ENDCHAR
STARTCHAR 2179
ENCODING 8569
SWIDTH 960 0
DWIDTH 16 0
BBX 16 16 0 -2
BITMAP
0000
0000
0000
0000
0000
0000
1E78
0420
0240
0180
0240
0420
0810
3E7C
0000
0000
ENDCHAR
STARTCHAR 217A
ENCODING 8570
SWIDTH 960 0
DWIDTH 16 0
BBX 16 16 0 -2
BITMAP
0000
0000
0018
0018
0000
0000
3DF8
0888
0508
0208
0508
0888
1048
38FC
0000
0000
ENDCHAR
STARTCHAR 217B
ENCODING 8571
SWIDTH 960 0
DWIDTH 16 0
BBX 16 16 0 -2
BITMAP
0000
0000
0036
0036
0000
0000
7BF6
1112
0A12
0412
0A12
1112
2092
71FF
0000
0000
ENDCHAR
STARTCHAR 2190
ENCODING 8592
SWIDTH 960 0
DWIDTH 16 0
BBX 16 16 0 -2
BITMAP
0000
0000
0000
0000
0000
1000
2000
FFFF
2000
1000
0000
0000
0000
0000
0000
0000
ENDCHAR
STARTCHAR 2191
ENCODING 8593
SWIDTH 960 0
DWIDTH 16 0
BBX 16 16 0 -2
BITMAP
0100
0100
0380
0540
0100
0100
0100
0100
0100
0100
0100
0100
0100
0100
0100
0100
ENDCHAR
STARTCHAR 2192
ENCODING 8594
SWIDTH 960 0
DWIDTH 16 0
BBX 16 16 0 -2
BITMAP
0000
0000
0000
0000
0000
0008
0004
FFFF
0004
0008
0000
0000
0000
0000
0000
0000
ENDCHAR
STARTCHAR 2193
ENCODING 8595
SWIDTH 960 0
DWIDTH 16 0
BBX 16 16 0 -2
BITMAP
0100
0100
0100
0100
0100
0100
0100
0100
0100
0100
0100
0100
0540
0380
0100
0100
ENDCHAR
STARTCHAR 2194
ENCODING 8596
SWIDTH 960 0
DWIDTH 16 0
BBX 16 16 0 -2
BITMAP
0000
0000
0000
0000
0000
1008
2004
FFFF
2004
1008
0000
0000
0000
0000
0000
0000
ENDCHAR
STARTCHAR 2196
ENCODING 8598
SWIDTH 960 0
DWIDTH 16 0
BBX 16 16 0 -2
BITMAP
0000
0000
2000
1E00
1800
1400
1200
0100
0080
0040
0020
0010
0008
0004
0000
0000
ENDCHAR
STARTCHAR 2197
ENCODING 8599
SWIDTH 960 0
DWIDTH 16 0
BBX 16 16 0 -2
BITMAP
0000
0000
0004
0078
0018
0028
0048
0080
0100
0200
0400
0800
1000
2000
0000
0000
ENDCHAR
STARTCHAR 2198
ENCODING 8600
SWIDTH 960 0
DWIDTH 16 0
BBX 16 16 0 -2
BITMAP
0000
0000
2000
1000
0800
0400
0200
0100
0080
0048
0028
0018
0078
0004
0000
0000
ENDCHAR
STARTCHAR 2199
ENCODING 8601
SWIDTH 960 0
DWIDTH 16 0
BBX 16 16 0 -2
BITMAP
0000
0000
0004
0008
0010
0020
0040
0080
0100
1200
1400
1800
1E00
2000
0000
0000
ENDCHAR
STARTCHAR 21C4
ENCODING 8644
SWIDTH 960 0
DWIDTH 16 0
BBX 16 16 0 -2
BITMAP
0000
0000
0008
0004
FFFF
0004
0008
0000
1000
2000
FFFF
2000
1000
0000
0000
0000
ENDCHAR
STARTCHAR 21D2
ENCODING 8658
SWIDTH 960 0
DWIDTH 16 0
BBX 16 16 0 -2
BITMAP
0000
0000
0000
0010
0008
FFFC
0002
0001
0002
FFFC
0008
0010
0000
0000
0000
0000
ENDCHAR
STARTCHAR 21D4
ENCODING 8660
SWIDTH 960 0
DWIDTH 16 0
BBX 16 16 0 -2
BITMAP
0000
0000
0000
0810
1008
3FFC
4002
8001
4002
3FFC
1008
0810
0000
0000
0000
0000
ENDCHAR
STARTCHAR 21E6
ENCODING 8678
SWIDTH 960 0
DWIDTH 16 0
BBX 16 16 0 -2
BITMAP
0000
0000
0400
0C00
1400
27FE
4002
8002
4002
27FE
1400
0C00
0400
0000
0000
0000
ENDCHAR
STARTCHAR 21E7
ENCODING 8679
SWIDTH 960 0
DWIDTH 16 0
BBX 16 16 0 -2
BITMAP
0100
0280
0440
0820
1010
3C78
0440
0440
0440
0440
0440
0440
0440
0440
07C0
0000
ENDCHAR
STARTCHAR 21E8
ENCODING 8680
SWIDTH 960 0
DWIDTH 16 0
BBX 16 16 0 -2
BITMAP
0000
0000
0020
0030
0028
7FE4
4002
4001
4002
7FE4
0028
0030
0020
0000
0000
0000
ENDCHAR
STARTCHAR 21E9
ENCODING 8681
SWIDTH 960 0
DWIDTH 16 0
BBX 16 16 0 -2
BITMAP
0000
07C0
0440
0440
0440
0440
0440
0440
0440
0440
3C78
1010
0820
0440
0280
0100
ENDCHAR
STARTCHAR 2200
ENCODING 8704
SWIDTH 960 0
DWIDTH 16 0
BBX 16 16 0 -2
BITMAP
0000
4004
4004
2008
2008
1FF0
1010
0820
0820
0440
0440
0280
0280
0100
0100
0000
ENDCHAR
STARTCHAR 2202
ENCODING 8706
SWIDTH 960 0
DWIDTH 16 0
BBX 16 16 0 -2
BITMAP
0000
01E0
0330
0410
0010
0010
03B0
0460
0820
1860
1040
10C0
1980
0F00
0000
0000
ENDCHAR
STARTCHAR 2203
ENCODING 8707
SWIDTH 960 0
DWIDTH 16 0
BBX 16 16 0 -2
BITMAP
0000
0000
1FF0
0010
0010
0010
0010
1FF0
0010
0010
0010
0010
1FF0
0000
0000
0000
ENDCHAR
STARTCHAR 2205
ENCODING 8709
SWIDTH 960 0
DWIDTH 16 0
BBX 16 16 0 -2
BITMAP
0000
0000
0004
03C8
0430
0830
1048
1088
1108
1208
0C10
0C20
13C0
2000
0000
0000
ENDCHAR
STARTCHAR 2207
ENCODING 8711
SWIDTH 960 0
DWIDTH 16 0
BBX 16 16 0 -2
BITMAP
0000
7FFE
3004
300C
1808
1818
0C10
0C30
0620
0660
0340
03C0
0180
0180
0000
0000
ENDCHAR
STARTCHAR 2208
ENCODING 8712
SWIDTH 960 0
DWIDTH 16 0
BBX 16 16 0 -2
BITMAP
0000
0000
0000
07F8
0800
1000
1000
1FF8
1000
1000
0800
07F8
0000
0000
0000
0000
ENDCHAR
STARTCHAR 2209
ENCODING 8713
SWIDTH 960 0
DWIDTH 16 0
BBX 16 16 0 -2
BITMAP
0000
0080
0080
07F8
0880
1080
1080
1FF8
1080
1080
0880
07F8
0080
0080
0000
0000
ENDCHAR
STARTCHAR 220B
ENCODING 8715
SWIDTH 960 0
DWIDTH 16 0
BBX 16 16 0 -2
BITMAP
0000
0000
0000
1FE0
0010
0008
0008
1FF8
0008
0008
0010
1FE0
0000
0000
0000
0000
ENDCHAR
STARTCHAR 2212
ENCODING 8722
SWIDTH 960 0
DWIDTH 16 0
BBX 16 16 0 -2
BITMAP
0000
0000
0000
0000
0000
0000
0000
3FFC
0000
0000
0000
0000
0000
0000
0000
0000
ENDCHAR
STARTCHAR 2213
ENCODING 8723
SWIDTH 960 0
DWIDTH 16 0
BBX 16 16 0 -2
BITMAP
0000
0000
3FFC
0000
0000
0100
0100
0100
0100
3FFC
0100
0100
0100
0100
0000
0000
ENDCHAR
STARTCHAR 221A
ENCODING 8730
SWIDTH 960 0
DWIDTH 16 0
BBX 16 16 0 -2
BITMAP
00FF
0080
0080
0100
0100
0100
0100
0200
0200
0200
2200
7400
B400
1C00
1800
0800
ENDCHAR
STARTCHAR 221D
ENCODING 8733
SWIDTH 960 0
DWIDTH 16 0
BBX 16 16 0 -2
BITMAP
0000
0000
0000
0000
1C38
2244
4180
4180
4180
4180
2244
1C38
0000
0000
0000
0000
ENDCHAR
STARTCHAR 221E
ENCODING 8734
SWIDTH 960 0
DWIDTH 16 0
BBX 16 16 0 -2
BITMAP
0000
0000
0000
0000
1C38
2244
4182
4182
4182
4182
2244
1C38
0000
0000
0000
0000
ENDCHAR
STARTCHAR 221F
ENCODING 8735
SWIDTH 960 0
DWIDTH 16 0
BBX 16 16 0 -2
BITMAP
0000
2000
2000
2000
2000
2000
2000
2000
2000
2000
2000
2000
2000
3FFC
0000
0000
ENDCHAR
STARTCHAR 2220
ENCODING 8736
SWIDTH 960 0
DWIDTH 16 0
BBX 16 16 0 -2
BITMAP
0000
0000
0008
0010
0020
0040
0080
0100
0200
0400
0800
1000
3FFC
0000
0000
0000
ENDCHAR
STARTCHAR 2225
ENCODING 8741
SWIDTH 960 0
DWIDTH 16 0
BBX 16 16 0 -2
BITMAP
0040
0084
0084
0108
0108
0210
0210
0420
0420
0840
0840
1080
1080
2100
2100
0200
ENDCHAR
STARTCHAR 2226
ENCODING 8742
SWIDTH 960 0
DWIDTH 16 0
BBX 16 16 0 -2
BITMAP
0040
0084
0084
1108
0908
0610
0210
0520
04A0
0840
0860
1090
1088
2100
2100
0200
ENDCHAR
STARTCHAR 2227
ENCODING 8743
SWIDTH 960 0
DWIDTH 16 0
BBX 16 16 0 -2
BITMAP
0000
0000
0100
0100
0280
0280
0440
0440
0820
0820
1010
1010
2008
2008
0000
0000
ENDCHAR
STARTCHAR 2228
ENCODING 8744
SWIDTH 960 0
DWIDTH 16 0
BBX 16 16 0 -2
BITMAP
0000
0000
2008
2008
1010
1010
0820
0820
0440
0440
0280
0280
0100
0100
0000
0000
ENDCHAR
STARTCHAR 2229
ENCODING 8745
SWIDTH 960 0
DWIDTH 16 0
BBX 16 16 0 -2
BITMAP
0000
0000
03C0
0420
0810
1008
1008
1008
1008
1008
1008
1008
1008
1008
0000
0000
ENDCHAR
STARTCHAR 222A
ENCODING 8746
SWIDTH 960 0
DWIDTH 16 0
BBX 16 16 0 -2
BITMAP
0000
0000
1008
1008
1008
1008
1008
1008
1008
1008
1008
0810
0420
03C0
0000
0000
ENDCHAR
STARTCHAR 222B
ENCODING 8747
SWIDTH 960 0
DWIDTH 16 0
BBX 16 16 0 -2
BITMAP
01C0
0240
0200
0200
0300
0300
0100
0180
0180
0080
00C0
00C0
0040
0040
0240
0380
ENDCHAR
STARTCHAR 222C
ENCODING 8748
SWIDTH 960 0
DWIDTH 16 0
BBX 16 16 0 -2
BITMAP
0E38
1248
1040
1040
1860
1860
0820
0C30
0C30
0410
0618
0618
0208
0208
1248
1C70
ENDCHAR
STARTCHAR 222E
ENCODING 8750
SWIDTH 960 0
DWIDTH 16 0
BBX 16 16 0 -2
BITMAP
01C0
0240
0200
0200
03C0
0720
0910
0990
0990
0890
04E0
03C0
0040
0040
0240
0380
ENDCHAR
STARTCHAR 2234
ENCODING 8756
SWIDTH 960 0
DWIDTH 16 0
BBX 16 16 0 -2
BITMAP
0000
0000
0000
0180
0180
0000
0000
0000
0000
0000
0000
300C
300C
0000
0000
0000
ENDCHAR
STARTCHAR 2235
ENCODING 8757
SWIDTH 960 0
DWIDTH 16 0
BBX 16 16 0 -2
BITMAP
0000
0000
0000
300C
300C
0000
0000
0000
0000
0000
0000
0180
0180
0000
0000
0000
ENDCHAR
STARTCHAR 223D
ENCODING 8765
SWIDTH 960 0
DWIDTH 16 0
BBX 16 16 0 -2
BITMAP
0000
0000
0000
0000
1C38
2044
4082
4082
4102
4102
2204
1C38
0000
0000
0000
0000
ENDCHAR
STARTCHAR 2243
ENCODING 8771
SWIDTH 960 0
DWIDTH 16 0
BBX 16 16 0 -2
BITMAP
0000
0000
0000
1C02
2302
40C4
4038
0000
0000
0000
7FFE
0000
0000
0000
0000
0000
ENDCHAR
STARTCHAR 2245
ENCODING 8773
SWIDTH 960 0
DWIDTH 16 0
BBX 16 16 0 -2
BITMAP
0000
0000
0000
1C02
2302
40C4
4038
0000
0000
7FFE
0000
0000
7FFE
0000
0000
0000
ENDCHAR
STARTCHAR 2248
ENCODING 8776
SWIDTH 960 0
DWIDTH 16 0
BBX 16 16 0 -2
BITMAP
0000
0000
0000
0000
1E02
2182
4044
4038
1E02
2102
40C4
4038
0000
0000
0000
0000
ENDCHAR
STARTCHAR 2252
ENCODING 8786
SWIDTH 960 0
DWIDTH 16 0
BBX 16 16 0 -2
BITMAP
0000
0000
1800
1800
0000
3FFC
0000
0000
0000
3FFC
0000
0018
0018
0000
0000
0000
ENDCHAR
STARTCHAR 2260
ENCODING 8800
SWIDTH 960 0
DWIDTH 16 0
BBX 16 16 0 -2
BITMAP
0000
0000
0040
0040
0080
3FFC
0080
0100
0100
3FFC
0100
0200
0200
0000
0000
0000
ENDCHAR
STARTCHAR 2261
ENCODING 8801
SWIDTH 960 0
DWIDTH 16 0
BBX 16 16 0 -2
BITMAP
0000
0000
0000
3FFC
0000
0000
0000
3FFC
0000
0000
0000
3FFC
0000
0000
0000
0000
ENDCHAR
STARTCHAR 2262
ENCODING 8802
SWIDTH 960 0
DWIDTH 16 0
BBX 16 16 0 -2
BITMAP
0020
0020
0040
7FFE
0040
0080
0080
7FFE
0100
0100
0200
7FFE
0200
0400
0400
0000
ENDCHAR
STARTCHAR 2266
ENCODING 8806
SWIDTH 960 0
DWIDTH 16 0
BBX 16 16 0 -2
BITMAP
0000
0000
001C
00E0
0700
3800
0700
00E0
001C
0000
3FFC
0000
0000
3FFC
0000
0000
ENDCHAR
STARTCHAR 2267
ENCODING 8807
SWIDTH 960 0
DWIDTH 16 0
BBX 16 16 0 -2
BITMAP
0000
0000
3800
0700
00E0
001C
00E0
0700
3800
0000
3FFC
0000
0000
3FFC
0000
0000
ENDCHAR
STARTCHAR 226A
ENCODING 8810
SWIDTH 960 0
DWIDTH 16 0
BBX 16 16 0 -2
BITMAP
0000
0042
0084
0318
0420
18C0
2100
4200
2100
1080
0840
0630
0108
0084
0042
0000
ENDCHAR
STARTCHAR 226B
ENCODING 8811
SWIDTH 960 0
DWIDTH 16 0
BBX 16 16 0 -2
BITMAP
0000
4200
2100
18C0
0420
0318
0084
0042
0084
0108
0210
0C60
1080
2100
4200
0000
ENDCHAR
STARTCHAR 2276
ENCODING 8822
SWIDTH 960 0
DWIDTH 16 0
BBX 16 16 0 -2
BITMAP
0000
001C
00E0
0700
3800
0700
00E0
381C
0700
00E0
001C
00E0
0700
3800
0000
0000
ENDCHAR
STARTCHAR 2277
ENCODING 8823
SWIDTH 960 0
DWIDTH 16 0
BBX 16 16 0 -2
BITMAP
0000
3800
0700
00E0
001C
00E0
0700
381C
00E0
0700
3800
0700
00E0
001C
0000
0000
ENDCHAR
STARTCHAR 2282
ENCODING 8834
SWIDTH 960 0
DWIDTH 16 0
BBX 16 16 0 -2
BITMAP
0000
0000
0000
07FC
0800
1000
2000
2000
2000
2000
1000
0800
07FC
0000
0000
0000
ENDCHAR
STARTCHAR 2283
ENCODING 8835
SWIDTH 960 0
DWIDTH 16 0
BBX 16 16 0 -2
BITMAP
0000
0000
0000
3FE0
0010
0008
0004
0004
0004
0004
0008
0010
3FE0
0000
0000
0000
ENDCHAR
STARTCHAR 2284
ENCODING 8836
SWIDTH 960 0
DWIDTH 16 0
BBX 16 16 0 -2
BITMAP
0000
0000
0008
07FC
0810
1020
2020
2040
2080
2100
1100
0A00
07FC
0400
0000
0000
ENDCHAR
STARTCHAR 2285
ENCODING 8837
SWIDTH 960 0
DWIDTH 16 0
BBX 16 16 0 -2
BITMAP
0000
0000
0020
3FE0
0050
0088
0084
0104
0204
0404
0408
0810
3FE0
1000
0000
0000
ENDCHAR
STARTCHAR 2286
ENCODING 8838
SWIDTH 960 0
DWIDTH 16 0
BBX 16 16 0 -2
BITMAP
0000
0000
0FFC
1000
2000
2000
2000
2000
1000
0FFC
0000
0000
3FFC
0000
0000
0000
ENDCHAR
STARTCHAR 2287
ENCODING 8839
SWIDTH 960 0
DWIDTH 16 0
BBX 16 16 0 -2
BITMAP
0000
0000
3FF0
0008
0004
0004
0004
0004
0008
3FF0
0000
0000
3FFC
0000
0000
0000
ENDCHAR
STARTCHAR 228A
ENCODING 8842
SWIDTH 960 0
DWIDTH 16 0
BBX 16 16 0 -2
BITMAP
0000
0000
0FFC
1000
2000
2000
2000
2000
1000
0FFC
0040
0040
3FFC
0080
0100
0100
ENDCHAR
STARTCHAR 228B
ENCODING 8843
SWIDTH 960 0
DWIDTH 16 0
BBX 16 16 0 -2
BITMAP
0000
0000
3FF0
0008
0004
0004
0004
0004
0008
3FF0
0040
0040
3FFC
0080
0100
0100
ENDCHAR
STARTCHAR 2295
ENCODING 8853
SWIDTH 960 0
DWIDTH 16 0
BBX 16 16 0 -2
BITMAP
0000
03C0
0C30
1108
2104
2104
4102
5FFA
4102
4102
2104
2104
1108
0C30
03C0
0000
ENDCHAR
STARTCHAR 2296
ENCODING 8854
SWIDTH 960 0
DWIDTH 16 0
BBX 16 16 0 -2
BITMAP
0000
03C0
0C30
1008
2004
2004
4002
5FFA
4002
4002
2004
2004
1008
0C30
03C0
0000
ENDCHAR
STARTCHAR 2297
ENCODING 8855
SWIDTH 960 0
DWIDTH 16 0
BBX 16 16 0 -2
BITMAP
0000
03C0
0C30
1008
2814
2424
4242
4182
4182
4242
2424
2814
1008
0C30
03C0
0000
ENDCHAR
STARTCHAR 22A5
ENCODING 8869
SWIDTH 960 0
DWIDTH 16 0
BBX 16 16 0 -2
BITMAP
0000
0000
0100
0100
0100
0100
0100
0100
0100
0100
0100
0100
3FFC
0000
0000
0000
ENDCHAR
STARTCHAR 22BF
ENCODING 8895
SWIDTH 960 0
DWIDTH 16 0
BBX 16 16 0 -2
BITMAP
0000
0004
000C
0014
0024
0044
0084
0104
0204
0404
0804
1004
2004
7FFC
0000
0000
ENDCHAR
STARTCHAR 22DA
ENCODING 8922
SWIDTH 960 0
DWIDTH 16 0
BBX 16 16 0 -2
BITMAP
001C
00E0
0700
3800
0700
00E0
001C
3FFC
3800
0700
00E0
001C
00E0
0700
3800
0000
ENDCHAR
STARTCHAR 22DB
ENCODING 8923
SWIDTH 960 0
DWIDTH 16 0
BBX 16 16 0 -2
BITMAP
3800
0700
00E0
001C
00E0
0700
3800
3FFC
001C
00E0
0700
3800
0700
00E0
001C
0000
ENDCHAR
STARTCHAR 2305
ENCODING 8965
SWIDTH 960 0
DWIDTH 16 0
BBX 16 16 0 -2
BITMAP
0000
0000
0000
0000
0000
3FFC
0180
0240
0420
0810
1008
2004
0000
0000
0000
0000
ENDCHAR
STARTCHAR 2306
ENCODING 8966
SWIDTH 960 0
DWIDTH 16 0
BBX 16 16 0 -2
BITMAP
0000
0000
0000
3FFC
0000
0000
3FFC
0180
0240
0420
0810
1008
2004
0000
0000
0000
ENDCHAR
STARTCHAR 2312
ENCODING 8978
SWIDTH 960 0
DWIDTH 16 0
BBX 16 16 0 -2
BITMAP
07E0
381C
C003
0000
0000
0000
0000
0000
0000
0000
0000
0000
0000
0000
0000
0000
ENDCHAR
STARTCHAR 2318
ENCODING 8984
SWIDTH 960 0
DWIDTH 16 0
BBX 16 16 0 -2
BITMAP
0000
3838
4444
4444
4444
3FF8
0440
0440
0440
3FF8
4444
4444
4444
3838
0000
0000
ENDCHAR
STARTCHAR 23BE
ENCODING 9150
SWIDTH 960 0
DWIDTH 16 0
BBX 16 16 0 -2
BITMAP
01FF
0100
0100
0100
0100
0100
0100
0100
0100
0100
0100
0100
0100
0100
0100
0100
ENDCHAR
STARTCHAR 23BF
ENCODING 9151
SWIDTH 960 0
DWIDTH 16 0
BBX 16 16 0 -2
BITMAP
0100
0100
0100
0100
0100
0100
0100
0100
0100
0100
0100
0100
0100
0100
0100
01FF
ENDCHAR
STARTCHAR 23C0
ENCODING 9152
SWIDTH 960 0
DWIDTH 16 0
BBX 16 16 0 -2
BITMAP
0100
0100
0100
07C0
0920
1110
2108
2108
2108
2108
1110
0920
07C0
0100
0100
0100
ENDCHAR
STARTCHAR 23C1
ENCODING 9153
SWIDTH 960 0
DWIDTH 16 0
BBX 16 16 0 -2
BITMAP
FFFF
0100
0100
07C0
0920
1110
2108
2108
2108
2108
1110
0920
07C0
0100
0100
0100
ENDCHAR
STARTCHAR 23C2
ENCODING 9154
SWIDTH 960 0
DWIDTH 16 0
BBX 16 16 0 -2
BITMAP
0100
0100
0100
07C0
0920
1110
2108
2108
2108
2108
1110
0920
07C0
0100
0100
FFFF
ENDCHAR
STARTCHAR 23C3
ENCODING 9155
SWIDTH 960 0
DWIDTH 16 0
BBX 16 16 0 -2
BITMAP
0100
0100
0100
0100
0380
0540
0540
0920
0920
1110
1110
2108
3FF8
0100
0100
0100
ENDCHAR
STARTCHAR 23C4
ENCODING 9156
SWIDTH 960 0
DWIDTH 16 0
BBX 16 16 0 -2
BITMAP
FFFF
0100
0100
0100
0380
0540
0540
0920
0920
1110
1110
2108
3FF8
0100
0100
0100
ENDCHAR
STARTCHAR 23C5
ENCODING 9157
SWIDTH 960 0
DWIDTH 16 0
BBX 16 16 0 -2
BITMAP
0100
0100
0100
0100
0380
0540
0540
0920
0920
1110
1110
2108
3FF8
0100
0100
FFFF
ENDCHAR
STARTCHAR 23C6
ENCODING 9158
SWIDTH 960 0
DWIDTH 16 0
BBX 16 16 0 -2
BITMAP
0100
0100
0100
0100
0100
0100
1900
2704
41C8
0130
0100
0100
0100
0100
0100
0100
ENDCHAR
STARTCHAR 23C7
ENCODING 9159
SWIDTH 960 0
DWIDTH 16 0
BBX 16 16 0 -2
BITMAP
FFFF
0100
0100
0100
0100
0100
1900
2704
41C8
0130
0100
0100
0100
0100
0100
0100
ENDCHAR
STARTCHAR 23C8
ENCODING 9160
SWIDTH 960 0
DWIDTH 16 0
BBX 16 16 0 -2
BITMAP
0100
0100
0100
0100
0100
0100
1900
2704
41C8
0130
0100
0100
0100
0100
0100
FFFF
ENDCHAR
STARTCHAR 23C9
ENCODING 9161
SWIDTH 960 0
DWIDTH 16 0
BBX 16 16 0 -2
BITMAP
FFFF
0100
0100
0100
0100
0100
0100
0100
0100
0100
0100
0100
0100
0100
0100
0100
ENDCHAR
STARTCHAR 23CA
ENCODING 9162
SWIDTH 960 0
DWIDTH 16 0
BBX 16 16 0 -2
BITMAP
0100
0100
0100
0100
0100
0100
0100
0100
0100
0100
0100
0100
0100
0100
0100
FFFF
ENDCHAR
STARTCHAR 23CB
ENCODING 9163
SWIDTH 960 0
DWIDTH 16 0
BBX 16 16 0 -2
BITMAP
FF00
0100
0100
0100
0100
0100
0100
0100
0100
0100
0100
0100
0100
0100
0100
0100
ENDCHAR
STARTCHAR 23CC
ENCODING 9164
SWIDTH 960 0
DWIDTH 16 0
BBX 16 16 0 -2
BITMAP
0100
0100
0100
0100
0100
0100
0100
0100
0100
0100
0100
0100
0100
0100
0100
FF00
ENDCHAR
STARTCHAR 23CE
ENCODING 9166
SWIDTH 960 0
DWIDTH 16 0
BBX 16 16 0 -2
BITMAP
0000
0000
007C
0044
0044
0444
0C44
1444
27C4
4004
8004
4008
27F0
1400
0C00
0400
ENDCHAR
STARTCHAR 2423
ENCODING 9251
SWIDTH 960 0
DWIDTH 16 0
BBX 16 16 0 -2
BITMAP
0000
0000
0000
0000
0000
0000
0000
0000
0000
0000
0000
4002
4002
4002
7FFE
0000
ENDCHAR
STARTCHAR 2460
ENCODING 9312
SWIDTH 960 0
DWIDTH 16 0
BBX 16 16 0 -2
BITMAP
07E0
1818
2004
4082
4182
8281
8081
8081
8081
8081
8081
4082
43E2
2004
1818
07E0
ENDCHAR
STARTCHAR 2461
ENCODING 9313
SWIDTH 960 0
DWIDTH 16 0
BBX 16 16 0 -2
BITMAP
07E0
1818
2004
43C2
4422
8421
8021
8041
8081
8101
8201
4402
47E2
2004
1818
07E0
ENDCHAR
STARTCHAR 2462
ENCODING 9314
SWIDTH 960 0
DWIDTH 16 0
BBX 16 16 0 -2
BITMAP
07E0
1818
2004
43C2
4422
8421
8021
81C1
8021
8021
8421
4422
43C2
2004
1818
07E0
ENDCHAR
STARTCHAR 2463
ENCODING 9315
SWIDTH 960 0
DWIDTH 16 0
BBX 16 16 0 -2
BITMAP
07E0
1818
2004
4082
4182
8181
8281
8481
8481
8FE1
8081
4082
41C2
2004
1818
07E0
ENDCHAR
STARTCHAR 2464
ENCODING 9316
SWIDTH 960 0
DWIDTH 16 0
BBX 16 16 0 -2
BITMAP
07E0
1818
2004
47E2
4402
8401
8401
87C1
8021
8021
8021
4422
43C2
2004
1818
07E0
ENDCHAR
STARTCHAR 2465
ENCODING 9317
SWIDTH 960 0
DWIDTH 16 0
BBX 16 16 0 -2
BITMAP
07E0
1818
2004
43C2
4422
8401
8401
87C1
8421
8421
8421
4422
43C2
2004
1818
07E0
ENDCHAR
STARTCHAR 2466
ENCODING 9318
SWIDTH 960 0
DWIDTH 16 0
BBX 16 16 0 -2
BITMAP
07E0
1818
2004
47E2
4422
8061
8041
80C1
8081
8181
8101
4102
4102
2004
1818
07E0
ENDCHAR
STARTCHAR 2467
ENCODING 9319
SWIDTH 960 0
DWIDTH 16 0
BBX 16 16 0 -2
BITMAP
07E0
1818
2004
43C2
4422
8421
8421
83C1
8421
8421
8421
4422
43C2
2004
1818
07E0
ENDCHAR
STARTCHAR 2468
ENCODING 9320
SWIDTH 960 0
DWIDTH 16 0
BBX 16 16 0 -2
BITMAP
07E0
1818
2004
43C2
4422
8421
8421
8421
83E1
8021
8421
4422
43C2
2004
1818
07E0
ENDCHAR
STARTCHAR 2469
ENCODING 9321
SWIDTH 960 0
DWIDTH 16 0
BBX 16 16 0 -2
BITMAP
07E0
1818
2004
4462
4C92
8491
8491
8491
8491
8491
8491
4492
4E62
2004
1818
07E0
ENDCHAR
STARTCHAR 246A
ENCODING 9322
SWIDTH 960 0
DWIDTH 16 0
BBX 16 16 0 -2
BITMAP
07E0
1818
2004
4422
4C62
8421
8421
8421
8421
8421
8421
4422
4E72
2004
1818
07E0
ENDCHAR
STARTCHAR 246B
ENCODING 9323
SWIDTH 960 0
DWIDTH 16 0
BBX 16 16 0 -2
BITMAP
07E0
1818
2004
44E2
4D12
8511
8411
8421
8441
8481
8481
4502
4FF2
2004
1818
07E0
ENDCHAR
STARTCHAR 246C
ENCODING 9324
SWIDTH 960 0
DWIDTH 16 0
BBX 16 16 0 -2
BITMAP
07E0
1818
2004
44E2
4D12
8511
8411
8461
8411
8411
8511
4512
4EE2
2004
1818
07E0
ENDCHAR
STARTCHAR 246D
ENCODING 9325
SWIDTH 960 0
DWIDTH 16 0
BBX 16 16 0 -2
BITMAP
07E0
1818
2004
4422
4C62
8461
84A1
84A1
8521
85F1
8421
4422
4E72
2004
1818
07E0
ENDCHAR
STARTCHAR 246E
ENCODING 9326
SWIDTH 960 0
DWIDTH 16 0
BBX 16 16 0 -2
BITMAP
07E0
1818
2004
45F2
4D02
8501
8501
85E1
8411
8411
8511
4512
4EE2
2004
1818
07E0
ENDCHAR
STARTCHAR 246F
ENCODING 9327
SWIDTH 960 0
DWIDTH 16 0
BBX 16 16 0 -2
BITMAP
07E0
1818
2004
44E2
4D12
8511
8501
85E1
8511
8511
8511
4512
4EE2
2004
1818
07E0
ENDCHAR
STARTCHAR 2470
ENCODING 9328
SWIDTH 960 0
DWIDTH 16 0
BBX 16 16 0 -2
BITMAP
07E0
1818
2004
45F2
4D12
8531
8421
8421
8461
8441
8441
4442
4E42
2004
1818
07E0
ENDCHAR
STARTCHAR 2471
ENCODING 9329
SWIDTH 960 0
DWIDTH 16 0
BBX 16 16 0 -2
BITMAP
07E0
1818
2004
44E2
4D12
8511
8511
84E1
8511
8511
8511
4512
4EE2
2004
1818
07E0
ENDCHAR
STARTCHAR 2472
ENCODING 9330
SWIDTH 960 0
DWIDTH 16 0
BBX 16 16 0 -2
BITMAP
07E0
1818
2004
44E2
4D12
8511
8511
8511
84F1
8411
8411
4512
4EE2
2004
1818
07E0
ENDCHAR
STARTCHAR 2473
ENCODING 9331
SWIDTH 960 0
DWIDTH 16 0
BBX 16 16 0 -2
BITMAP
07E0
1818
2004
4632
494A
8949
8149
8249
8449
8449
8849
484A
4F32
2004
1818
07E0
ENDCHAR
STARTCHAR 24D0
ENCODING 9424
SWIDTH 960 0
DWIDTH 16 0
BBX 16 16 0 -2
BITMAP
07E0
1818
2004
4002
4782
8041
8041
87C1
8841
8841
88D1
4732
4002
2004
1818
07E0
ENDCHAR
STARTCHAR 24D1
ENCODING 9425
SWIDTH 960 0
DWIDTH 16 0
BBX 16 16 0 -2
BITMAP
07E0
1818
2004
4C02
4402
8401
85C1
8621
8411
8411
8411
4622
45C2
2004
1818
07E0
ENDCHAR
STARTCHAR 24D2
ENCODING 9426
SWIDTH 960 0
DWIDTH 16 0
BBX 16 16 0 -2
BITMAP
07E0
1818
2004
4002
4002
83C1
8421
8801
8801
8801
8421
43C2
4002
2004
1818
07E0
ENDCHAR
STARTCHAR 24D3
ENCODING 9427
SWIDTH 960 0
DWIDTH 16 0
BBX 16 16 0 -2
BITMAP
07E0
1818
2004
4062
4022
8021
87A1
8861
9021
9021
9021
4862
47B2
2004
1818
07E0
ENDCHAR
STARTCHAR 24D4
ENCODING 9428
SWIDTH 960 0
DWIDTH 16 0
BBX 16 16 0 -2
BITMAP
07E0
1818
2004
4002
43C2
8421
8811
8FF1
8801
8801
8411
43E2
4002
2004
1818
07E0
ENDCHAR
STARTCHAR 24D5
ENCODING 9429
SWIDTH 960 0
DWIDTH 16 0
BBX 16 16 0 -2
BITMAP
07E0
1818
2004
40E2
4122
8101
8101
87C1
8101
8101
8101
4102
43C2
2004
1818
07E0
ENDCHAR
STARTCHAR 24D6
ENCODING 9430
SWIDTH 960 0
DWIDTH 16 0
BBX 16 16 0 -2
BITMAP
07E0
1818
2004
43B2
4442
8441
8441
8381
8401
87C1
8821
4822
47C2
2004
1818
07E0
ENDCHAR
STARTCHAR 24D7
ENCODING 9431
SWIDTH 960 0
DWIDTH 16 0
BBX 16 16 0 -2
BITMAP
07E0
1818
2004
4C02
4402
8401
85C1
8621
8421
8421
8421
4422
4C72
2004
1818
07E0
ENDCHAR
STARTCHAR 24D8
ENCODING 9432
SWIDTH 960 0
DWIDTH 16 0
BBX 16 16 0 -2
BITMAP
07E0
1818
2004
4182
4182
8001
8381
8081
8081
8081
8081
4082
43E2
2004
1818
07E0
ENDCHAR
STARTCHAR 24D9
ENCODING 9433
SWIDTH 960 0
DWIDTH 16 0
BBX 16 16 0 -2
BITMAP
07E0
1818
2004
40C2
40C2
8001
81C1
8041
8041
8041
8041
4442
4482
2304
1818
07E0
ENDCHAR
STARTCHAR 24DA
ENCODING 9434
SWIDTH 960 0
DWIDTH 16 0
BBX 16 16 0 -2
BITMAP
07E0
1818
2004
4C02
4402
84E1
8441
8481
8701
8481
8441
4422
4E72
2004
1818
07E0
ENDCHAR
STARTCHAR 24DB
ENCODING 9435
SWIDTH 960 0
DWIDTH 16 0
BBX 16 16 0 -2
BITMAP
07E0
1818
2004
4382
4082
8081
8081
8081
8081
8081
8081
4082
43E2
2004
1818
07E0
ENDCHAR
STARTCHAR 24DC
ENCODING 9436
SWIDTH 960 0
DWIDTH 16 0
BBX 16 16 0 -2
BITMAP
07E0
1818
2004
4002
5B32
8CC9
8889
8889
8889
8889
8889
5DDE
4002
2004
1818
07E0
ENDCHAR
STARTCHAR 24DD
ENCODING 9437
SWIDTH 960 0
DWIDTH 16 0
BBX 16 16 0 -2
BITMAP
07E0
1818
2004
4002
4DC2
8661
8421
8421
8421
8421
8421
4E72
4002
2004
1818
07E0
ENDCHAR
STARTCHAR 24DE
ENCODING 9438
SWIDTH 960 0
DWIDTH 16 0
BBX 16 16 0 -2
BITMAP
07E0
1818
2004
4002
43C2
8421
8811
8811
8811
8811
8421
43C2
4002
2004
1818
07E0
ENDCHAR
STARTCHAR 24DF
ENCODING 9439
SWIDTH 960 0
DWIDTH 16 0
BBX 16 16 0 -2
BITMAP
07E0
1818
2004
4002
4DC2
8621
8411
8411
8621
85C1
8401
4402
4E02
2004
1818
07E0
ENDCHAR
STARTCHAR 24E0
ENCODING 9440
SWIDTH 960 0
DWIDTH 16 0
BBX 16 16 0 -2
BITMAP
07E0
1818
2004
4002
43A2
8461
8821
8821
8461
83A1
8021
4022
40F2
2004
1818
07E0
ENDCHAR
STARTCHAR 24E1
ENCODING 9441
SWIDTH 960 0
DWIDTH 16 0
BBX 16 16 0 -2
BITMAP
07E0
1818
2004
4002
4002
8671
8291
8301
8201
8201
8201
4F82
4002
2004
1818
07E0
ENDCHAR
STARTCHAR 24E2
ENCODING 9442
SWIDTH 960 0
DWIDTH 16 0
BBX 16 16 0 -2
BITMAP
07E0
1818
2004
4002
43D2
8431
8411
8381
8061
8411
8611
45E2
4002
2004
1818
07E0
ENDCHAR
STARTCHAR 24E3
ENCODING 9443
SWIDTH 960 0
DWIDTH 16 0
BBX 16 16 0 -2
BITMAP
07E0
1818
2004
4202
4202
8201
8FC1
8201
8201
8201
8201
4122
40E2
2004
1818
07E0
ENDCHAR
STARTCHAR 24E4
ENCODING 9444
SWIDTH 960 0
DWIDTH 16 0
BBX 16 16 0 -2
BITMAP
07E0
1818
2004
4002
4002
8C61
8421
8421
8421
8421
8461
43B2
4002
2004
1818
07E0
ENDCHAR
STARTCHAR 24E5
ENCODING 9445
SWIDTH 960 0
DWIDTH 16 0
BBX 16 16 0 -2
BITMAP
07E0
1818
2004
4002
4002
9C71
8821
8821
8441
8441
8281
4382
4102
2004
1818
07E0
ENDCHAR
STARTCHAR 24E6
ENCODING 9446
SWIDTH 960 0
DWIDTH 16 0
BBX 16 16 0 -2
BITMAP
07E0
1818
2004
4002
4002
B99D
9189
9BD9
8A51
8A51
8E71
4422
4422
2004
1818
07E0
ENDCHAR
STARTCHAR 24E7
ENCODING 9447
SWIDTH 960 0
DWIDTH 16 0
BBX 16 16 0 -2
BITMAP
07E0
1818
2004
4002
5E7A
8421
8241
8181
8241
8421
8811
5E7A
4002
2004
1818
07E0
ENDCHAR
STARTCHAR 24E8
ENCODING 9448
SWIDTH 960 0
DWIDTH 16 0
BBX 16 16 0 -2
BITMAP
07E0
1818
2004
4002
4E7A
8421
8621
8361
8141
80C1
8081
4982
4F02
2004
1818
07E0
ENDCHAR
STARTCHAR 24E9
ENCODING 9449
SWIDTH 960 0
DWIDTH 16 0
BBX 16 16 0 -2
BITMAP
07E0
1818
2004
4002
4FE2
8821
8041
8181
8201
8401
8821
4FE2
4002
2004
1818
07E0
ENDCHAR
STARTCHAR 24EB
ENCODING 9451
SWIDTH 960 0
DWIDTH 16 0
BBX 16 16 0 -2
BITMAP
07E0
1FF8
3FFC
7BDE
739E
FBDF
FBDF
FBDF
FBDF
FBDF
FBDF
7BDE
718E
3FFC
1FF8
07E0
ENDCHAR
STARTCHAR 24EC
ENCODING 9452
SWIDTH 960 0
DWIDTH 16 0
BBX 16 16 0 -2
BITMAP
07E0
1FF8
3FFC
7B1E
72EF
FAEF
FBEF
FBDF
FBBF
FB7F
FB7F
7AFE
700E
3FFC
1FF8
07E0
ENDCHAR
STARTCHAR 24ED
ENCODING 9453
SWIDTH 960 0
DWIDTH 16 0
BBX 16 16 0 -2
BITMAP
07E0
1FF8
3FFC
7B1E
72EE
FAEF
FBEF
FB9F
FBEF
FBEF
FAEF
7AEE
711E
3FFC
1FF8
07E0
ENDCHAR
STARTCHAR 24EE
ENCODING 9454
SWIDTH 960 0
DWIDTH 16 0
BBX 16 16 0 -2
BITMAP
07E0
1FF8
3FFC
7BDE
739E
FB9F
FB5F
FB5F
FADF
FA0F
FBDF
7BDE
718E
3FFC
1FF8
07E0
ENDCHAR
STARTCHAR 24EF
ENCODING 9455
SWIDTH 960 0
DWIDTH 16 0
BBX 16 16 0 -2
BITMAP
07E0
1FF8
3FFC
7A0E
72FE
FAFF
FAFF
FA1F
FBEF
FBEF
FAEF
7AEE
711E
3FFC
1FF8
07E0
ENDCHAR
STARTCHAR 24F0
ENCODING 9456
SWIDTH 960 0
DWIDTH 16 0
BBX 16 16 0 -2
BITMAP
07E0
1FF8
3FFC
7B1E
72EE
FAEF
FAFF
FA1F
FAEF
FAEF
FAEF
7AEE
711E
3FFC
1FF8
07E0
ENDCHAR
STARTCHAR 24F1
ENCODING 9457
SWIDTH 960 0
DWIDTH 16 0
BBX 16 16 0 -2
BITMAP
07E0
1FF8
3FFC
7A0E
72EE
FBCF
FBDF
FBDF
FB9F
FBBF
FBBF
7BBE
71BE
3FFC
1FF8
07E0
ENDCHAR
STARTCHAR 24F2
ENCODING 9458
SWIDTH 960 0
DWIDTH 16 0
BBX 16 16 0 -2
BITMAP
07E0
1FF8
3FFC
7B1E
72EE
FAEF
FAEF
FB1F
FAEF
FAEF
FAEF
7AEE
711E
3FFC
1FF8
07E0
ENDCHAR
STARTCHAR 24F3
ENCODING 9459
SWIDTH 960 0
DWIDTH 16 0
BBX 16 16 0 -2
BITMAP
07E0
1FF8
3FFC
7B1E
72EE
FAEF
FAEF
FAEF
FB0F
FBEF
FBEF
7AEE
711E
3FFC
1FF8
07E0
ENDCHAR
STARTCHAR 24F4
ENCODING 9460
SWIDTH 960 0
DWIDTH 16 0
BBX 16 16 0 -2
BITMAP
07E0
1FF8
3FFC
79CE
76B6
F6B7
FEB7
FDB7
FBB7
FBB7
F7B7
77B6
70CE
3FFC
1FF8
07E0
ENDCHAR
STARTCHAR 24F5
ENCODING 9461
SWIDTH 960 0
DWIDTH 16 0
BBX 16 16 0 -2
BITMAP
07E0
1818
23C4
4C32
510A
9309
A105
A105
A105
A105
9109
538A
4C32
23C4
1818
07E0
ENDCHAR
STARTCHAR 24F6
ENCODING 9462
SWIDTH 960 0
DWIDTH 16 0
BBX 16 16 0 -2
BITMAP
07E0
1818
23C4
4C32
518A
9249
A045
A0C5
A105
A205
9209
53CA
4C32
23C4
1818
07E0
ENDCHAR
STARTCHAR 24F7
ENCODING 9463
SWIDTH 960 0
DWIDTH 16 0
BBX 16 16 0 -2
BITMAP
07E0
1818
23C4
4C32
518A
9249
A045
A185
A045
A045
9249
518A
4C32
23C4
1818
07E0
ENDCHAR
STARTCHAR 24F8
ENCODING 9464
SWIDTH 960 0
DWIDTH 16 0
BBX 16 16 0 -2
BITMAP
07E0
1818
23C4
4C32
508A
9189
A285
A285
A485
A7C5
9089
508A
4C32
23C4
1818
07E0
ENDCHAR
STARTCHAR 24F9
ENCODING 9465
SWIDTH 960 0
DWIDTH 16 0
BBX 16 16 0 -2
BITMAP
07E0
1818
23C4
4C32
53CA
9209
A205
A385
A045
A045
9249
518A
4C32
23C4
1818
07E0
ENDCHAR
STARTCHAR 24FA
ENCODING 9466
SWIDTH 960 0
DWIDTH 16 0
BBX 16 16 0 -2
BITMAP
07E0
1818
23C4
4C32
518A
9249
A205
A385
A245
A245
9249
518A
4C32
23C4
1818
07E0
ENDCHAR
STARTCHAR 24FB
ENCODING 9467
SWIDTH 960 0
DWIDTH 16 0
BBX 16 16 0 -2
BITMAP
07E0
1818
23C4
4C32
53CA
9249
A045
A085
A085
A105
9109
510A
4C32
23C4
1818
07E0
ENDCHAR
STARTCHAR 24FC
ENCODING 9468
SWIDTH 960 0
DWIDTH 16 0
BBX 16 16 0 -2
BITMAP
07E0
1818
23C4
4C32
518A
9249
A245
A185
A245
A245
9249
518A
4C32
23C4
1818
07E0
ENDCHAR
STARTCHAR 24FD
ENCODING 9469
SWIDTH 960 0
DWIDTH 16 0
BBX 16 16 0 -2
BITMAP
07E0
1818
23C4
4C32
518A
9249
A245
A245
A1C5
A045
9249
518A
4C32
23C4
1818
07E0
ENDCHAR
STARTCHAR 24FE
ENCODING 9470
SWIDTH 960 0
DWIDTH 16 0
BBX 16 16 0 -2
BITMAP
07E0
1818
23C4
4C32
524A
96A9
A2A5
A2A5
A2A5
A2A5
92A9
524A
4C32
23C4
1818
07E0
ENDCHAR
STARTCHAR 2500
ENCODING 9472
SWIDTH 960 0
DWIDTH 16 0
BBX 16 16 0 -2
BITMAP
0000
0000
0000
0000
0000
0000
0000
FFFF
0000
0000
0000
0000
0000
0000
0000
0000
ENDCHAR
STARTCHAR 2501
ENCODING 9473
SWIDTH 960 0
DWIDTH 16 0
BBX 16 16 0 -2
BITMAP
0000
0000
0000
0000
0000
0000
0000
FFFF
FFFF
0000
0000
0000
0000
0000
0000
0000
ENDCHAR
STARTCHAR 2502
ENCODING 9474
SWIDTH 960 0
DWIDTH 16 0
BBX 16 16 0 -2
BITMAP
0100
0100
0100
0100
0100
0100
0100
0100
0100
0100
0100
0100
0100
0100
0100
0100
ENDCHAR
STARTCHAR 2503
ENCODING 9475
SWIDTH 960 0
DWIDTH 16 0
BBX 16 16 0 -2
BITMAP
0180
0180
0180
0180
0180
0180
0180
0180
0180
0180
0180
0180
0180
0180
0180
0180
ENDCHAR
STARTCHAR 250C
ENCODING 9484
SWIDTH 960 0
DWIDTH 16 0
BBX 16 16 0 -2
BITMAP
0000
0000
0000
0000
0000
0000
0000
01FF
0100
0100
0100
0100
0100
0100
0100
0100
ENDCHAR
STARTCHAR 250F
ENCODING 9487
SWIDTH 960 0
DWIDTH 16 0
BBX 16 16 0 -2
BITMAP
0000
0000
0000
0000
0000
0000
0000
01FF
01FF
0180
0180
0180
0180
0180
0180
0180
ENDCHAR
STARTCHAR 2510
ENCODING 9488
SWIDTH 960 0
DWIDTH 16 0
BBX 16 16 0 -2
BITMAP
0000
0000
0000
0000
0000
0000
0000
FF00
0100
0100
0100
0100
0100
0100
0100
0100
ENDCHAR
STARTCHAR 2513
ENCODING 9491
SWIDTH 960 0
DWIDTH 16 0
BBX 16 16 0 -2
BITMAP
0000
0000
0000
0000
0000
0000
0000
FF80
FF80
0180
0180
0180
0180
0180
0180
0180
ENDCHAR
STARTCHAR 2514
ENCODING 9492
SWIDTH 960 0
DWIDTH 16 0
BBX 16 16 0 -2
BITMAP
0100
0100
0100
0100
0100
0100
0100
01FF
0000
0000
0000
0000
0000
0000
0000
0000
ENDCHAR
STARTCHAR 2517
ENCODING 9495
SWIDTH 960 0
DWIDTH 16 0
BBX 16 16 0 -2
BITMAP
0180
0180
0180
0180
0180
0180
0180
01FF
01FF
0000
0000
0000
0000
0000
0000
0000
ENDCHAR
STARTCHAR 2518
ENCODING 9496
SWIDTH 960 0
DWIDTH 16 0
BBX 16 16 0 -2
BITMAP
0100
0100
0100
0100
0100
0100
0100
FF00
0000
0000
0000
0000
0000
0000
0000
0000
ENDCHAR
STARTCHAR 251B
ENCODING 9499
SWIDTH 960 0
DWIDTH 16 0
BBX 16 16 0 -2
BITMAP
0180
0180
0180
0180
0180
0180
0180
FF80
FF80
0000
0000
0000
0000
0000
0000
0000
ENDCHAR
STARTCHAR 251C
ENCODING 9500
SWIDTH 960 0
DWIDTH 16 0
BBX 16 16 0 -2
BITMAP
0100
0100
0100
0100
0100
0100
0100
01FF
0100
0100
0100
0100
0100
0100
0100
0100
ENDCHAR
STARTCHAR 251D
ENCODING 9501
SWIDTH 960 0
DWIDTH 16 0
BBX 16 16 0 -2
BITMAP
0100
0100
0100
0100
0100
0100
0100
01FF
01FF
0100
0100
0100
0100
0100
0100
0100
ENDCHAR
STARTCHAR 2520
ENCODING 9504
SWIDTH 960 0
DWIDTH 16 0
BBX 16 16 0 -2
BITMAP
0180
0180
0180
0180
0180
0180
0180
01FF
0180
0180
0180
0180
0180
0180
0180
0180
ENDCHAR
STARTCHAR 2523
ENCODING 9507
SWIDTH 960 0
DWIDTH 16 0
BBX 16 16 0 -2
BITMAP
0180
0180
0180
0180
0180
0180
0180
01FF
01FF
0180
0180
0180
0180
0180
0180
0180
ENDCHAR
STARTCHAR 2524
ENCODING 9508
SWIDTH 960 0
DWIDTH 16 0
BBX 16 16 0 -2
BITMAP
0100
0100
0100
0100
0100
0100
0100
FF00
0100
0100
0100
0100
0100
0100
0100
0100
ENDCHAR
STARTCHAR 2525
ENCODING 9509
SWIDTH 960 0
DWIDTH 16 0
BBX 16 16 0 -2
BITMAP
0100
0100
0100
0100
0100
0100
0100
FF00
FF00
0100
0100
0100
0100
0100
0100
0100
ENDCHAR
STARTCHAR 2528
ENCODING 9512
SWIDTH 960 0
DWIDTH 16 0
BBX 16 16 0 -2
BITMAP
0180
0180
0180
0180
0180
0180
0180
FF80
0180
0180
0180
0180
0180
0180
0180
0180
ENDCHAR
STARTCHAR 252B
ENCODING 9515
SWIDTH 960 0
DWIDTH 16 0
BBX 16 16 0 -2
BITMAP
0180
0180
0180
0180
0180
0180
0180
FF80
FF80
0180
0180
0180
0180
0180
0180
0180
ENDCHAR
STARTCHAR 252C
ENCODING 9516
SWIDTH 960 0
DWIDTH 16 0
BBX 16 16 0 -2
BITMAP
0000
0000
0000
0000
0000
0000
0000
FFFF
0100
0100
0100
0100
0100
0100
0100
0100
ENDCHAR
STARTCHAR 252F
ENCODING 9519
SWIDTH 960 0
DWIDTH 16 0
BBX 16 16 0 -2
BITMAP
0000
0000
0000
0000
0000
0000
0000
FFFF
FFFF
0100
0100
0100
0100
0100
0100
0100
ENDCHAR
STARTCHAR 2530
ENCODING 9520
SWIDTH 960 0
DWIDTH 16 0
BBX 16 16 0 -2
BITMAP
0000
0000
0000
0000
0000
0000
0000
FFFF
0180
0180
0180
0180
0180
0180
0180
0180
ENDCHAR
STARTCHAR 2533
ENCODING 9523
SWIDTH 960 0
DWIDTH 16 0
BBX 16 16 0 -2
BITMAP
0000
0000
0000
0000
0000
0000
0000
FFFF
FFFF
0180
0180
0180
0180
0180
0180
0180
ENDCHAR
STARTCHAR 2534
ENCODING 9524
SWIDTH 960 0
DWIDTH 16 0
BBX 16 16 0 -2
BITMAP
0100
0100
0100
0100
0100
0100
0100
FFFF
0000
0000
0000
0000
0000
0000
0000
0000
ENDCHAR
STARTCHAR 2537
ENCODING 9527
SWIDTH 960 0
DWIDTH 16 0
BBX 16 16 0 -2
BITMAP
0100
0100
0100
0100
0100
0100
0100
FFFF
FFFF
0000
0000
0000
0000
0000
0000
0000
ENDCHAR
STARTCHAR 2538
ENCODING 9528
SWIDTH 960 0
DWIDTH 16 0
BBX 16 16 0 -2
BITMAP
0180
0180
0180
0180
0180
0180
0180
FFFF
0000
0000
0000
0000
0000
0000
0000
0000
ENDCHAR
STARTCHAR 253B
ENCODING 9531
SWIDTH 960 0
DWIDTH 16 0
BBX 16 16 0 -2
BITMAP
0180
0180
0180
0180
0180
0180
0180
FFFF
FFFF
0000
0000
0000
0000
0000
0000
0000
ENDCHAR
STARTCHAR 253C
ENCODING 9532
SWIDTH 960 0
DWIDTH 16 0
BBX 16 16 0 -2
BITMAP
0100
0100
0100
0100
0100
0100
0100
FFFF
0100
0100
0100
0100
0100
0100
0100
0100
ENDCHAR
STARTCHAR 253F
ENCODING 9535
SWIDTH 960 0
DWIDTH 16 0
BBX 16 16 0 -2
BITMAP
0100
0100
0100
0100
0100
0100
0100
FFFF
FFFF
0100
0100
0100
0100
0100
0100
0100
ENDCHAR
STARTCHAR 2542
ENCODING 9538
SWIDTH 960 0
DWIDTH 16 0
BBX 16 16 0 -2
BITMAP
0180
0180
0180
0180
0180
0180
0180
FFFF
0180
0180
0180
0180
0180
0180
0180
0180
ENDCHAR
STARTCHAR 254B
ENCODING 9547
SWIDTH 960 0
DWIDTH 16 0
BBX 16 16 0 -2
BITMAP
0180
0180
0180
0180
0180
0180
0180
FFFF
FFFF
0180
0180
0180
0180
0180
0180
0180
ENDCHAR
STARTCHAR 25A0
ENCODING 9632
SWIDTH 960 0
DWIDTH 16 0
BBX 16 16 0 -2
BITMAP
0000
7FFE
7FFE
7FFE
7FFE
7FFE
7FFE
7FFE
7FFE
7FFE
7FFE
7FFE
7FFE
7FFE
7FFE
0000
ENDCHAR
STARTCHAR 25A1
ENCODING 9633
SWIDTH 960 0
DWIDTH 16 0
BBX 16 16 0 -2
BITMAP
0000
7FFE
4002
4002
4002
4002
4002
4002
4002
4002
4002
4002
4002
4002
7FFE
0000
ENDCHAR
STARTCHAR 25B1
ENCODING 9649
SWIDTH 960 0
DWIDTH 16 0
BBX 16 16 0 -2
BITMAP
0000
0000
0000
0000
0FFF
0802
1002
1004
2004
2008
4008
4010
FFF0
0000
0000
0000
ENDCHAR
STARTCHAR 25B2
ENCODING 9650
SWIDTH 960 0
DWIDTH 16 0
BBX 16 16 0 -2
BITMAP
0000
0000
0100
0380
0380
07C0
07E0
0FE0
0FF0
1FF0
1FF8
3FFC
3FFC
7FFE
0000
0000
ENDCHAR
STARTCHAR 25B3
ENCODING 9651
SWIDTH 960 0
DWIDTH 16 0
BBX 16 16 0 -2
BITMAP
0000
0000
0100
0280
0280
0440
0440
0820
0810
1010
1008
2008
2004
7FFE
0000
0000
ENDCHAR
STARTCHAR 25B6
ENCODING 9654
SWIDTH 960 0
DWIDTH 16 0
BBX 16 16 0 -2
BITMAP
0000
2000
3800
3E00
3F80
3FE0
3FF8
3FFC
3FF8
3FE0
3FC0
3F00
3C00
3800
2000
0000
ENDCHAR
STARTCHAR 25B7
ENCODING 9655
SWIDTH 960 0
DWIDTH 16 0
BBX 16 16 0 -2
BITMAP
0000
2000
3800
2600
2180
2060
2018
2004
2018
2060
2080
2300
2C00
3000
2000
0000
ENDCHAR
STARTCHAR 25BC
ENCODING 9660
SWIDTH 960 0
DWIDTH 16 0
BBX 16 16 0 -2
BITMAP
0000
0000
7FFE
3FFC
3FFC
1FF8
1FF0
0FF0
0FE0
07E0
07C0
0380
0380
0100
0000
0000
ENDCHAR
STARTCHAR 25BD
ENCODING 9661
SWIDTH 960 0
DWIDTH 16 0
BBX 16 16 0 -2
BITMAP
0000
0000
7FFE
2004
2008
1008
1010
0810
0820
0440
0440
0280
0280
0100
0000
0000
ENDCHAR
STARTCHAR 25C0
ENCODING 9664
SWIDTH 960 0
DWIDTH 16 0
BBX 16 16 0 -2
BITMAP
0000
0004
001C
007C
01FC
07FC
1FFC
3FFC
1FFC
07FC
03FC
00FC
003C
001C
0004
0000
ENDCHAR
STARTCHAR 25C1
ENCODING 9665
SWIDTH 960 0
DWIDTH 16 0
BBX 16 16 0 -2
BITMAP
0000
0004
001C
0064
0184
0604
1804
2004
1804
0604
0104
00C4
0034
000C
0004
0000
ENDCHAR
STARTCHAR 25C6
ENCODING 9670
SWIDTH 960 0
DWIDTH 16 0
BBX 16 16 0 -2
BITMAP
0180
03C0
07E0
0FF0
1FF8
3FFC
7FFE
FFFF
FFFF
7FFE
3FFC
1FF8
0FF0
07E0
03C0
0180
ENDCHAR
STARTCHAR 25C7
ENCODING 9671
SWIDTH 960 0
DWIDTH 16 0
BBX 16 16 0 -2
BITMAP
0180
0240
0420
0810
1008
2004
4002
8001
8001
4002
2004
1008
0810
0420
0240
0180
ENDCHAR
STARTCHAR 25C9
ENCODING 9673
SWIDTH 960 0
DWIDTH 16 0
BBX 16 16 0 -2
BITMAP
0000
03C0
0C30
1188
27E4
2FF4
4FF2
5FFA
5FFA
4FF2
2FF4
27E4
1188
0C30
03C0
0000
ENDCHAR
STARTCHAR 25CB
ENCODING 9675
SWIDTH 960 0
DWIDTH 16 0
BBX 16 16 0 -2
BITMAP
0000
03C0
0C30
1008
2004
2004
4002
4002
4002
4002
2004
2004
1008
0C30
03C0
0000
ENDCHAR
STARTCHAR 25CE
ENCODING 9678
SWIDTH 960 0
DWIDTH 16 0
BBX 16 16 0 -2
BITMAP
0000
03C0
0C30
1008
23C4
2424
4812
4812
4812
4812
2424
23C4
1008
0C30
03C0
0000
ENDCHAR
STARTCHAR 25CF
ENCODING 9679
SWIDTH 960 0
DWIDTH 16 0
BBX 16 16 0 -2
BITMAP
0000
03C0
0FF0
1FF8
3FFC
3FFC
7FFE
7FFE
7FFE
7FFE
3FFC
3FFC
1FF8
0FF0
03C0
0000
ENDCHAR
STARTCHAR 25D0
ENCODING 9680
SWIDTH 960 0
DWIDTH 16 0
BBX 16 16 0 -2
BITMAP
0000
03C0
0F30
1F08
3F04
3F04
7F02
7F02
7F02
7F02
3F04
3F04
1F08
0F30
03C0
0000
ENDCHAR
STARTCHAR 25D1
ENCODING 9681
SWIDTH 960 0
DWIDTH 16 0
BBX 16 16 0 -2
BITMAP
0000
03C0
0CF0
10F8
20FC
20FC
40FE
40FE
40FE
40FE
20FC
20FC
10F8
0CF0
03C0
0000
ENDCHAR
STARTCHAR 25D2
ENCODING 9682
SWIDTH 960 0
DWIDTH 16 0
BBX 16 16 0 -2
BITMAP
0000
03C0
0C30
1008
2004
2004
4002
4002
7FFE
7FFE
3FFC
3FFC
1FF8
0FF0
03C0
0000
ENDCHAR
STARTCHAR 25D3
ENCODING 9683
SWIDTH 960 0
DWIDTH 16 0
BBX 16 16 0 -2
BITMAP
0000
03C0
0FF0
1FF8
3FFC
3FFC
7FFE
7FFE
4002
4002
2004
2004
1008
0C30
03C0
0000
ENDCHAR
STARTCHAR 25E6
ENCODING 9702
SWIDTH 960 0
DWIDTH 16 0
BBX 16 16 0 -2
BITMAP
0000
0000
0000
0000
0180
0240
0420
0420
0240
0180
0000
0000
0000
0000
0000
0000
ENDCHAR
STARTCHAR 25EF
ENCODING 9711
SWIDTH 960 0
DWIDTH 16 0
BBX 16 16 0 -2
BITMAP
03C0
0C30
1008
2004
4002
4002
8001
8001
8001
8001
4002
4002
2004
1008
0C30
03C0
ENDCHAR
STARTCHAR 2600
ENCODING 9728
SWIDTH 960 0
DWIDTH 16 0
BBX 16 16 0 -2
BITMAP
0100
4104
2108
1010
0380
07C0
0FE0
EFEE
0FE0
07C0
0380
1010
2108
4104
0100
0000
ENDCHAR
STARTCHAR 2601
ENCODING 9729
SWIDTH 960 0
DWIDTH 16 0
BBX 16 16 0 -2
BITMAP
0000
0000
0780
0FC0
0FEC
3FFE
7FFE
7FFC
7FFE
7FFE
3CFE
007C
0000
0000
0000
0000
ENDCHAR
STARTCHAR 2602
ENCODING 9730
SWIDTH 960 0
DWIDTH 16 0
BBX 16 16 0 -2
BITMAP
0100
0100
0FE0
3FF8
7FFC
FFFE
FFFE
CD32
8922
0100
0100
0100
0100
0D00
0700
0200
ENDCHAR
STARTCHAR 2603
ENCODING 9731
SWIDTH 960 0
DWIDTH 16 0
BBX 16 16 0 -2
BITMAP
0479
20FC
07F8
9879
200C
2664
2664
A005
524A
6186
8001
8181
8001
8181
6006
3FFC
ENDCHAR
STARTCHAR 2605
ENCODING 9733
SWIDTH 960 0
DWIDTH 16 0
BBX 16 16 0 -2
BITMAP
0000
0100
0100
0380
0380
07C0
7FFC
3FF8
1FF0
0FE0
0FE0
1EF0
1C70
3838
2008
0000
ENDCHAR
STARTCHAR 2606
ENCODING 9734
SWIDTH 960 0
DWIDTH 16 0
BBX 16 16 0 -2
BITMAP
0000
0100
0280
0280
0440
0440
7C7C
2008
1010
0820
0820
1110
1290
2C68
3018
0000
ENDCHAR
STARTCHAR 260E
ENCODING 9742
SWIDTH 960 0
DWIDTH 16 0
BBX 16 16 0 -2
BITMAP
0000
0000
3FFC
7FFE
F66F
F7EF
E7E7
1FF8
3C3C
381C
781E
7C3E
7FFE
7FFE
0000
0000
ENDCHAR
STARTCHAR 2616
ENCODING 9750
SWIDTH 960 0
DWIDTH 16 0
BBX 16 16 0 -2
BITMAP
0000
0100
07C0
0C60
3018
2008
2008
2008
2008
4004
4004
4004
4004
4004
7FFC
0000
ENDCHAR
STARTCHAR 2617
ENCODING 9751
SWIDTH 960 0
DWIDTH 16 0
BBX 16 16 0 -2
BITMAP
0000
0100
07C0
0FE0
3FF8
3FF8
3FF8
3FF8
7FFC
7FFC
7FFC
7FFC
7FFC
7FFC
7FFC
0000
ENDCHAR
STARTCHAR 261E
ENCODING 9758
SWIDTH 960 0
DWIDTH 16 0
BBX 16 16 0 -2
BITMAP
0000
0000
0000
1FFE
6201
45FE
4AA0
51C0
4040
4380
6080
1F00
0000
0000
0000
0000
ENDCHAR
STARTCHAR 2640
ENCODING 9792
SWIDTH 960 0
DWIDTH 16 0
BBX 16 16 0 -2
BITMAP
0000
03C0
0420
0810
0810
0810
0810
0420
03C0
0100
1FF8
0100
0100
0100
0100
0100
ENDCHAR
STARTCHAR 2642
ENCODING 9794
SWIDTH 960 0
DWIDTH 16 0
BBX 16 16 0 -2
BITMAP
0000
00FE
0006
000A
0012
0022
0042
1E82
2100
4080
4080
4080
4080
2100
1E00
0000
ENDCHAR
STARTCHAR 2660
ENCODING 9824
SWIDTH 960 0
DWIDTH 16 0
BBX 16 16 0 -2
BITMAP
0000
0100
0380
07C0
0FE0
1FF0
3FF8
3FF8
7FFC
7FFC
7FFC
3D78
0100
0380
07C0
0000
ENDCHAR
STARTCHAR 2661
ENCODING 9825
SWIDTH 960 0
DWIDTH 16 0
BBX 16 16 0 -2
BITMAP
0000
0000
1C70
2288
4104
4104
4004
4004
2008
2008
1010
0820
0440
0280
0100
0000
ENDCHAR
STARTCHAR 2662
ENCODING 9826
SWIDTH 960 0
DWIDTH 16 0
BBX 16 16 0 -2
BITMAP
0000
0100
0280
0440
0420
0820
1010
2008
1010
1010
0820
0440
0440
0280
0100
0000
ENDCHAR
STARTCHAR 2663
ENCODING 9827
SWIDTH 960 0
DWIDTH 16 0
BBX 16 16 0 -2
BITMAP
0000
0380
07C0
0FE0
0FE0
07C0
1BB0
3D78
7FFC
7FFC
7FFC
3D78
1930
0380
07C0
0000
ENDCHAR
STARTCHAR 2664
ENCODING 9828
SWIDTH 960 0
DWIDTH 16 0
BBX 16 16 0 -2
BITMAP
0000
0100
0380
0440
0820
1010
2008
2008
4004
4004
4384
3D78
0100
0280
07C0
0000
ENDCHAR
STARTCHAR 2665
ENCODING 9829
SWIDTH 960 0
DWIDTH 16 0
BBX 16 16 0 -2
BITMAP
0000
0000
1C70
3EF8
7FFC
7FFC
7FFC
7FFC
3FF8
3FF8
1FF0
0FE0
07C0
0380
0100
0000
ENDCHAR
STARTCHAR 2666
ENCODING 9830
SWIDTH 960 0
DWIDTH 16 0
BBX 16 16 0 -2
BITMAP
0000
0100
0380
07C0
07E0
0FE0
1FF0
3FF8
1FF0
1FF0
0FE0
07C0
07C0
0380
0100
0000
ENDCHAR
STARTCHAR 2667
ENCODING 9831
SWIDTH 960 0
DWIDTH 16 0
BBX 16 16 0 -2
BITMAP
0000
0380
0440
0820
0820
0440
1C70
2288
4004
4004
4384
2548
1930
0280
07C0
0000
ENDCHAR
STARTCHAR 2668
ENCODING 9832
SWIDTH 960 0
DWIDTH 16 0
BBX 16 16 0 -2
BITMAP
0000
0080
0490
0920
1240
1240
1240
0920
2494
4492
8491
8921
8101
6006
300C
0FF0
ENDCHAR
STARTCHAR 2669
ENCODING 9833
SWIDTH 960 0
DWIDTH 16 0
BBX 16 16 0 -2
BITMAP
0080
0080
0080
0080
0080
0080
0080
0080
0080
0080
0080
0080
0F80
1F80
1F00
0E00
ENDCHAR
STARTCHAR 266A
ENCODING 9834
SWIDTH 960 0
DWIDTH 16 0
BBX 16 16 0 -2
BITMAP
0080
0080
00C0
00E0
00B0
0098
008C
0084
0084
0088
0090
0080
0F80
1F80
1F00
0E00
ENDCHAR
STARTCHAR 266B
ENCODING 9835
SWIDTH 960 0
DWIDTH 16 0
BBX 16 16 0 -2
BITMAP
0700
07E0
07FC
04FC
041C
0404
0404
0404
0404
0404
3C04
7C04
783C
307C
0078
0030
ENDCHAR
STARTCHAR 266C
ENCODING 9836
SWIDTH 960 0
DWIDTH 16 0
BBX 16 16 0 -2
BITMAP
0780
07F0
047C
070C
07E4
04FC
041C
0404
0404
0404
3C04
7C04
783C
307C
0078
0030
ENDCHAR
STARTCHAR 266D
ENCODING 9837
SWIDTH 960 0
DWIDTH 16 0
BBX 16 16 0 -2
BITMAP
0400
0400
0400
0400
0400
0400
05E0
0630
0430
0430
0430
0460
04C0
0500
0600
0400
ENDCHAR
STARTCHAR 266E
ENCODING 9838
SWIDTH 960 0
DWIDTH 16 0
BBX 16 16 0 -2
BITMAP
0000
0400
0400
0400
0470
07F0
0790
0410
0410
0410
04F0
07F0
0710
0010
0010
0010
ENDCHAR
STARTCHAR 266F
ENCODING 9839
SWIDTH 960 0
DWIDTH 16 0
BBX 16 16 0 -2
BITMAP
0020
0420
0420
043C
07FC
3FE0
3C20
0420
0420
043C
07FC
3FE0
3C20
0420
0420
0400
ENDCHAR
STARTCHAR 2713
ENCODING 10003
SWIDTH 960 0
DWIDTH 16 0
BBX 16 16 0 -2
BITMAP
0000
0002
0004
0008
0018
0010
0020
0040
00C0
6080
3100
1B00
0A00
0E00
0400
0000
ENDCHAR
STARTCHAR 2756
ENCODING 10070
SWIDTH 960 0
DWIDTH 16 0
BBX 16 16 0 -2
BITMAP
0000
0100
0380
07C0
07C0
1390
3938
7C7C
7C7C
3938
1390
07C0
07C0
0380
0100
0000
ENDCHAR
STARTCHAR 2776
ENCODING 10102
SWIDTH 960 0
DWIDTH 16 0
BBX 16 16 0 -2
BITMAP
07E0
1FF8
3FFC
7F7E
7E7E
FF7F
FF7F
FF7F
FF7F
FF7F
FF7F
7F7E
7E3E
3FFC
1FF8
07E0
ENDCHAR
STARTCHAR 2777
ENCODING 10103
SWIDTH 960 0
DWIDTH 16 0
BBX 16 16 0 -2
BITMAP
07E0
1FF8
3FFC
7C3E
7BDE
FBDF
FFDF
FFBF
FF7F
FEFF
FDFF
7BFE
781E
3FFC
1FF8
07E0
ENDCHAR
STARTCHAR 2778
ENCODING 10104
SWIDTH 960 0
DWIDTH 16 0
BBX 16 16 0 -2
BITMAP
07E0
1FF8
3FFC
7C3E
7BDE
FBDF
FFDF
FE3F
FFDF
FFDF
FBDF
7BDE
7C3E
3FFC
1FF8
07E0
ENDCHAR
STARTCHAR 2779
ENCODING 10105
SWIDTH 960 0
DWIDTH 16 0
BBX 16 16 0 -2
BITMAP
07E0
1FF8
3FFC
7FBE
7F3E
FEBF
FDBF
FBBF
F7BF
F00F
FFBF
7FBE
7F1E
3FFC
1FF8
07E0
ENDCHAR
STARTCHAR 277A
ENCODING 10106
SWIDTH 960 0
DWIDTH 16 0
BBX 16 16 0 -2
BITMAP
07E0
1FF8
3FFC
781E
7BFE
FBFF
FBFF
F83F
FFDF
FFDF
FFDF
7BDE
7C3E
3FFC
1FF8
07E0
ENDCHAR
STARTCHAR 277B
ENCODING 10107
SWIDTH 960 0
DWIDTH 16 0
BBX 16 16 0 -2
BITMAP
07E0
1FF8
3FFC
783E
77DE
F7FF
F7FF
F03F
F7DF
F7DF
F7DF
77DE
783E
3FFC
1FF8
07E0
ENDCHAR
STARTCHAR 277C
ENCODING 10108
SWIDTH 960 0
DWIDTH 16 0
BBX 16 16 0 -2
BITMAP
07E0
1FF8
3FFC
781E
7BDE
FF9F
FFBF
FF3F
FF7F
FE7F
FEFF
7EFE
7EFE
3FFC
1FF8
07E0
ENDCHAR
STARTCHAR 277D
ENCODING 10109
SWIDTH 960 0
DWIDTH 16 0
BBX 16 16 0 -2
BITMAP
07E0
1FF8
3FFC
7C3E
7BDE
FBDF
FBDF
FC3F
FBDF
FBDF
FBDF
7BDE
7C3E
3FFC
1FF8
07E0
ENDCHAR
STARTCHAR 277E
ENCODING 10110
SWIDTH 960 0
DWIDTH 16 0
BBX 16 16 0 -2
BITMAP
07E0
1FF8
3FFC
7C3E
7BDE
FBDF
FBDF
FBDF
FC1F
FFDF
FBDF
7BDE
7C3E
3FFC
1FF8
07E0
ENDCHAR
STARTCHAR 277F
ENCODING 10111
SWIDTH 960 0
DWIDTH 16 0
BBX 16 16 0 -2
BITMAP
07E0
1FF8
3FFC
7B9E
736E
FB6F
FB6F
FB6F
FB6F
FB6F
FB6F
7B6E
719E
3FFC
1FF8
07E0
ENDCHAR
STARTCHAR 2934
ENCODING 10548
SWIDTH 960 0
DWIDTH 16 0
BBX 16 16 0 -2
BITMAP
0000
0008
0008
001C
002A
0008
0008
0008
0010
0010
0020
00C0
7F00
0000
0000
0000
ENDCHAR
STARTCHAR 2935
ENCODING 10549
SWIDTH 960 0
DWIDTH 16 0
BBX 16 16 0 -2
BITMAP
0000
0000
7F00
00C0
0020
0010
0010
0008
0008
0008
002A
001C
0008
0008
0000
0000
ENDCHAR
STARTCHAR 29BF
ENCODING 10687
SWIDTH 960 0
DWIDTH 16 0
BBX 16 16 0 -2
BITMAP
0000
03C0
0C30
1008
2004
2184
43C2
47E2
47E2
43C2
2184
2004
1008
0C30
03C0
0000
ENDCHAR
STARTCHAR 29FA
ENCODING 10746
SWIDTH 960 0
DWIDTH 16 0
BBX 16 16 0 -2
BITMAP
0000
0420
0420
0420
0420
0420
0420
7FFE
0420
0420
0420
0420
0420
0420
0000
0000
ENDCHAR
STARTCHAR 29FB
ENCODING 10747
SWIDTH 960 0
DWIDTH 16 0
BBX 16 16 0 -2
BITMAP
0000
0920
0920
0920
0920
0920
0920
7FFE
0920
0920
0920
0920
0920
0920
0000
0000
ENDCHAR
STARTCHAR 3000
ENCODING 12288
SWIDTH 960 0
DWIDTH 16 0
BBX 16 16 0 -2
BITMAP
0000
0000
0000
0000
0000
0000
0000
0000
0000
0000
0000
0000
0000
0000
0000
0000
ENDCHAR
STARTCHAR 3001
ENCODING 12289
SWIDTH 960 0
DWIDTH 16 0
BBX 16 16 0 -2
BITMAP
0000
0000
0000
0000
0000
0000
0000
0000
0000
0000
0000
0000
0000
6000
3000
1000
ENDCHAR
STARTCHAR 3002
ENCODING 12290
SWIDTH 960 0
DWIDTH 16 0
BBX 16 16 0 -2
BITMAP
0000
0000
0000
0000
0000
0000
0000
0000
0000
0000
0000
0000
6000
9000
9000
6000
ENDCHAR
STARTCHAR 3003
ENCODING 12291
SWIDTH 960 0
DWIDTH 16 0
BBX 16 16 0 -2
BITMAP
0000
0000
0000
0420
0420
0420
0420
0420
0420
0420
0840
0840
1080
0000
0000
0000
ENDCHAR
STARTCHAR 3005
ENCODING 12293
SWIDTH 960 0
DWIDTH 16 0
BBX 16 16 0 -2
BITMAP
0000
0200
0200
0200
07F8
0408
0C18
0810
1830
3360
01C0
0060
0030
0010
0000
0000
ENDCHAR
STARTCHAR 3006
ENCODING 12294
SWIDTH 960 0
DWIDTH 16 0
BBX 16 16 0 -2
BITMAP
0000
0006
000C
0018
0730
09E0
10C0
11E0
3330
2600
2C00
2800
3800
3000
6000
0000
ENDCHAR
STARTCHAR 3007
ENCODING 12295
SWIDTH 960 0
DWIDTH 16 0
BBX 16 16 0 -2
BITMAP
0000
0000
07E0
1C38
300C
2004
6006
4002
4002
6006
2004
300C
1C38
07E0
0000
0000
ENDCHAR
STARTCHAR 3008
ENCODING 12296
SWIDTH 960 0
DWIDTH 16 0
BBX 16 16 0 -2
BITMAP
0008
0010
0010
0020
0040
0040
0080
0100
0100
0080
0040
0040
0020
0010
0010
0008
ENDCHAR
STARTCHAR 3009
ENCODING 12297
SWIDTH 960 0
DWIDTH 16 0
BBX 16 16 0 -2
BITMAP
1000
0800
0800
0400
0200
0200
0100
0080
0080
0100
0200
0200
0400
0800
0800
1000
ENDCHAR
STARTCHAR 300A
ENCODING 12298
SWIDTH 960 0
DWIDTH 16 0
BBX 16 16 0 -2
BITMAP
0012
0024
0024
0048
0090
0090
0120
0240
0240
0120
0090
0090
0048
0024
0024
0012
ENDCHAR
STARTCHAR 300B
ENCODING 12299
SWIDTH 960 0
DWIDTH 16 0
BBX 16 16 0 -2
BITMAP
4800
2400
2400
1200
0900
0900
0480
0240
0240
0480
0900
0900
1200
2400
2400
4800
ENDCHAR
STARTCHAR 300C
ENCODING 12300
SWIDTH 960 0
DWIDTH 16 0
BBX 16 16 0 -2
BITMAP
00F8
0080
0080
0080
0080
0080
0080
0080
0080
0080
0080
0000
0000
0000
0000
0000
ENDCHAR
STARTCHAR 300D
ENCODING 12301
SWIDTH 960 0
DWIDTH 16 0
BBX 16 16 0 -2
BITMAP
0000
0000
0000
0000
0000
0100
0100
0100
0100
0100
0100
0100
0100
0100
0100
1F00
ENDCHAR
STARTCHAR 300E
ENCODING 12302
SWIDTH 960 0
DWIDTH 16 0
BBX 16 16 0 -2
BITMAP
01F8
0108
0178
0140
0140
0140
0140
0140
0140
0140
01C0
0000
0000
0000
0000
0000
ENDCHAR
STARTCHAR 300F
ENCODING 12303
SWIDTH 960 0
DWIDTH 16 0
BBX 16 16 0 -2
BITMAP
0000
0000
0000
0000
0000
0380
0280
0280
0280
0280
0280
0280
0280
1E80
1080
1F80
ENDCHAR
STARTCHAR 3010
ENCODING 12304
SWIDTH 960 0
DWIDTH 16 0
BBX 16 16 0 -2
BITMAP
00F8
00F0
00E0
00C0
00C0
0080
0080
0080
0080
0080
0080
00C0
00C0
00E0
00F0
00F8
ENDCHAR
STARTCHAR 3011
ENCODING 12305
SWIDTH 960 0
DWIDTH 16 0
BBX 16 16 0 -2
BITMAP
1F00
0F00
0700
0300
0300
0100
0100
0100
0100
0100
0100
0300
0300
0700
0F00
1F00
ENDCHAR
STARTCHAR 3012
ENCODING 12306
SWIDTH 960 0
DWIDTH 16 0
BBX 16 16 0 -2
BITMAP
0000
7FFE
7FFE
0000
0000
7FFE
7FFE
0180
0180
0180
0180
0180
0180
0180
0180
0000
ENDCHAR
STARTCHAR 3013
ENCODING 12307
SWIDTH 960 0
DWIDTH 16 0
BBX 16 16 0 -2
BITMAP
0000
0000
7FFE
7FFE
7FFE
7FFE
0000
0000
0000
7FFE
7FFE
7FFE
7FFE
0000
0000
0000
ENDCHAR
STARTCHAR 3014
ENCODING 12308
SWIDTH 960 0
DWIDTH 16 0
BBX 16 16 0 -2
BITMAP
0008
0030
00C0
0080
0080
0080
0080
0080
0080
0080
0080
0080
0080
00C0
0030
0008
ENDCHAR
STARTCHAR 3015
ENCODING 12309
SWIDTH 960 0
DWIDTH 16 0
BBX 16 16 0 -2
BITMAP
1000
0C00
0300
0100
0100
0100
0100
0100
0100
0100
0100
0100
0100
0300
0C00
1000
ENDCHAR
STARTCHAR 3016
ENCODING 12310
SWIDTH 960 0
DWIDTH 16 0
BBX 16 16 0 -2
BITMAP
01FC
0108
0110
0120
0120
0140
0140
0140
0140
0140
0140
0120
0120
0110
0108
01FC
ENDCHAR
STARTCHAR 3017
ENCODING 12311
SWIDTH 960 0
DWIDTH 16 0
BBX 16 16 0 -2
BITMAP
3F80
1080
0880
0480
0480
0280
0280
0280
0280
0280
0280
0480
0480
0880
1080
3F80
ENDCHAR
STARTCHAR 3018
ENCODING 12312
SWIDTH 960 0
DWIDTH 16 0
BBX 16 16 0 -2
BITMAP
001C
0060
018C
0130
0120
0120
0120
0120
0120
0120
0120
0120
0130
018C
0060
001C
ENDCHAR
STARTCHAR 3019
ENCODING 12313
SWIDTH 960 0
DWIDTH 16 0
BBX 16 16 0 -2
BITMAP
3800
0600
3180
0C80
0480
0480
0480
0480
0480
0480
0480
0480
0C80
3180
0600
3800
ENDCHAR
STARTCHAR 301C
ENCODING 12316
SWIDTH 960 0
DWIDTH 16 0
BBX 16 16 0 -2
BITMAP
0000
0000
0000
0000
0000
0000
3C00
4301
80C2
003C
0000
0000
0000
0000
0000
0000
ENDCHAR
STARTCHAR 301D
ENCODING 12317
SWIDTH 960 0
DWIDTH 16 0
BBX 16 16 0 -2
BITMAP
0000
0110
0198
00CC
0044
0000
0000
0000
0000
0000
0000
0000
0000
0000
0000
0000
ENDCHAR
STARTCHAR 301F
ENCODING 12319
SWIDTH 960 0
DWIDTH 16 0
BBX 16 16 0 -2
BITMAP
0000
0000
0000
0000
0000
0000
0000
0000
0000
0000
0000
4400
6600
3300
1100
0000
ENDCHAR
STARTCHAR 3020
ENCODING 12320
SWIDTH 960 0
DWIDTH 16 0
BBX 16 16 0 -2
BITMAP
0000
7FFE
7FFE
0000
7FFE
7FFE
599A
A5A5
A5A5
9999
4182
2424
23C4
1818
07E0
0000
ENDCHAR
STARTCHAR 3033
ENCODING 12339
SWIDTH 960 0
DWIDTH 16 0
BBX 16 16 0 -2
BITMAP
0000
0000
0000
0000
0000
1C00
0700
01C0
0060
0030
0018
000C
0006
0003
0000
0000
ENDCHAR
STARTCHAR 3034
ENCODING 12340
SWIDTH 960 0
DWIDTH 16 0
BBX 16 16 0 -2
BITMAP
0000
0600
0C00
0180
0300
1C00
0700
0180
0060
0030
0018
000C
0006
0003
0000
0000
ENDCHAR
STARTCHAR 3035
ENCODING 12341
SWIDTH 960 0
DWIDTH 16 0
BBX 16 16 0 -2
BITMAP
0000
0000
0000
0000
0000
0018
0070
00C0
0380
0600
0C00
3800
6000
C000
0000
0000
ENDCHAR
STARTCHAR 303B
ENCODING 12347
SWIDTH 960 0
DWIDTH 16 0
BBX 16 16 0 -2
BITMAP
0000
0000
0300
0180
00C0
0060
0180
0200
0300
0180
00C0
0060
0030
0000
0000
0000
ENDCHAR
STARTCHAR 303C
ENCODING 12348
SWIDTH 960 0
DWIDTH 16 0
BBX 16 16 0 -2
BITMAP
0000
7FFE
4006
400A
4012
4022
4042
4082
4102
4202
4402
4802
5002
6002
7FFE
0000
ENDCHAR
STARTCHAR 303D
ENCODING 12349
SWIDTH 960 0
DWIDTH 16 0
BBX 16 16 0 -2
BITMAP
0000
1800
28C0
6520
0620
0020
0030
0010
0010
0018
0008
000C
0004
0004
0000
0000
ENDCHAR
STARTCHAR 3041
ENCODING 12353
SWIDTH 960 0
DWIDTH 16 0
BBX 16 16 0 -2
BITMAP
0000
0000
0000
0000
0100
0100
1FF8
0240
03F0
0658
0A4C
1284
1284
110C
0E18
0060
ENDCHAR
STARTCHAR 3042
ENCODING 12354
SWIDTH 960 0
DWIDTH 16 0
BBX 16 16 0 -2
BITMAP
0200
0200
3FF8
0400
0440
07F0
1C5C
3444
2446
6482
4482
4506
4604
381C
0070
0000
ENDCHAR
STARTCHAR 3043
ENCODING 12355
SWIDTH 960 0
DWIDTH 16 0
BBX 16 16 0 -2
BITMAP
0000
0000
0000
0000
0000
0000
1000
1030
1018
1008
100C
1804
0A04
0E00
0400
0000
ENDCHAR
STARTCHAR 3044
ENCODING 12356
SWIDTH 960 0
DWIDTH 16 0
BBX 16 16 0 -2
BITMAP
0000
0000
2000
2010
2018
200C
2004
2006
2002
2002
3202
1600
1C00
0800
0000
0000
ENDCHAR
STARTCHAR 3045
ENCODING 12357
SWIDTH 960 0
DWIDTH 16 0
BBX 16 16 0 -2
BITMAP
0000
0000
0000
0000
0600
0380
00E0
0000
0FE0
0010
0010
0010
0030
0060
01C0
0700
ENDCHAR
STARTCHAR 3046
ENCODING 12358
SWIDTH 960 0
DWIDTH 16 0
BBX 16 16 0 -2
BITMAP
0600
0380
00E0
0000
0000
1FF0
0018
0008
0008
0008
0018
0030
0060
01C0
0F00
0000
ENDCHAR
STARTCHAR 3047
ENCODING 12359
SWIDTH 960 0
DWIDTH 16 0
BBX 16 16 0 -2
BITMAP
0000
0000
0000
0000
0600
0380
00E0
0000
0FE0
0040
0080
0100
0780
0C80
1880
0078
ENDCHAR
STARTCHAR 3048
ENCODING 12360
SWIDTH 960 0
DWIDTH 16 0
BBX 16 16 0 -2
BITMAP
0600
0380
00E0
0000
1FF0
0020
0040
0080
0100
03C0
0640
0C40
1840
3060
003E
0000
ENDCHAR
STARTCHAR 3049
ENCODING 12361
SWIDTH 960 0
DWIDTH 16 0
BBX 16 16 0 -2
BITMAP
0000
0000
0000
0000
0200
0210
03D8
1E08
0200
03E0
0610
0A08
1208
1218
0C70
0000
ENDCHAR
STARTCHAR 304A
ENCODING 12362
SWIDTH 960 0
DWIDTH 16 0
BBX 16 16 0 -2
BITMAP
0400
0400
040C
07C6
7C02
0400
0400
05F8
070C
1C06
3402
6402
4406
4C0C
3838
0000
ENDCHAR
STARTCHAR 304B
ENCODING 12363
SWIDTH 960 0
DWIDTH 16 0
BBX 16 16 0 -2
BITMAP
0400
0400
0408
040C
7F86
0442
0443
0C41
0841
0840
1840
1040
30C0
6080
0380
0000
ENDCHAR
STARTCHAR 304C
ENCODING 12364
SWIDTH 960 0
DWIDTH 16 0
BBX 16 16 0 -2
BITMAP
0405
0405
0410
0418
7F8C
0444
0446
0C42
0842
0840
1840
1040
30C0
6080
0380
0000
ENDCHAR
STARTCHAR 304D
ENCODING 12365
SWIDTH 960 0
DWIDTH 16 0
BBX 16 16 0 -2
BITMAP
0200
0200
3FF8
0100
0100
3FFC
0080
0040
0FF0
1018
2000
2000
3000
1C00
07F0
0000
ENDCHAR
STARTCHAR 304E
ENCODING 12366
SWIDTH 960 0
DWIDTH 16 0
BBX 16 16 0 -2
BITMAP
0205
0205
3FF0
0100
0100
3FF8
0080
0040
0FF0
1018
2000
2000
3000
1C00
07F0
0000
ENDCHAR
STARTCHAR 304F
ENCODING 12367
SWIDTH 960 0
DWIDTH 16 0
BBX 16 16 0 -2
BITMAP
0010
0030
0060
00C0
0180
0300
0C00
1800
0C00
0600
0300
0180
00C0
0060
0030
0010
ENDCHAR
STARTCHAR 3050
ENCODING 12368
SWIDTH 960 0
DWIDTH 16 0
BBX 16 16 0 -2
BITMAP
0010
0035
0065
00C0
0180
0300
0C00
1800
0C00
0600
0300
0180
00C0
0060
0030
0010
ENDCHAR
STARTCHAR 3051
ENCODING 12369
SWIDTH 960 0
DWIDTH 16 0
BBX 16 16 0 -2
BITMAP
0010
2010
2010
6010
47FF
4010
4010
4010
4010
4010
5010
6030
2020
0060
00C0
0000
ENDCHAR
STARTCHAR 3052
ENCODING 12370
SWIDTH 960 0
DWIDTH 16 0
BBX 16 16 0 -2
BITMAP
0025
2025
2020
6020
47FE
4020
4020
4020
4020
4020
5020
6060
2040
00C0
0180
0000
ENDCHAR
STARTCHAR 3053
ENCODING 12371
SWIDTH 960 0
DWIDTH 16 0
BBX 16 16 0 -2
BITMAP
0000
0000
1FF8
0000
0000
0000
0000
0000
0000
0000
2000
3000
1C00
07FC
0000
0000
ENDCHAR
STARTCHAR 3054
ENCODING 12372
SWIDTH 960 0
DWIDTH 16 0
BBX 16 16 0 -2
BITMAP
0005
0005
1FF0
0000
0000
0000
0000
0000
0000
0000
2000
3000
1C00
07FC
0000
0000
ENDCHAR
STARTCHAR 3055
ENCODING 12373
SWIDTH 960 0
DWIDTH 16 0
BBX 16 16 0 -2
BITMAP
0400
0600
0200
7FFC
0100
0180
00C0
0060
0FF8
100C
2000
2000
3000
1C00
07F0
0000
ENDCHAR
STARTCHAR 3056
ENCODING 12374
SWIDTH 960 0
DWIDTH 16 0
BBX 16 16 0 -2
BITMAP
0405
0605
0200
7FFC
0100
0180
00C0
0060
0FF8
100C
2000
2000
3000
1C00
07F0
0000
ENDCHAR
STARTCHAR 3057
ENCODING 12375
SWIDTH 960 0
DWIDTH 16 0
BBX 16 16 0 -2
BITMAP
0000
0800
0800
0800
0800
0800
0800
0800
0800
0800
0804
080C
0818
0470
03C0
0000
ENDCHAR
STARTCHAR 3058
ENCODING 12376
SWIDTH 960 0
DWIDTH 16 0
BBX 16 16 0 -2
BITMAP
0000
0800
0850
0850
0800
0800
0800
0800
0800
0800
0804
080C
0818
0470
03C0
0000
ENDCHAR
STARTCHAR 3059
ENCODING 12377
SWIDTH 960 0
DWIDTH 16 0
BBX 16 16 0 -2
BITMAP
0080
0080
0080
FFFF
0080
0080
0780
0CC0
0840
0840
0C40
07C0
0080
0180
0300
0E00
ENDCHAR
STARTCHAR 305A
ENCODING 12378
SWIDTH 960 0
DWIDTH 16 0
BBX 16 16 0 -2
BITMAP
0085
0085
0080
FFFF
0080
0080
0780
0CC0
0840
0840
0C40
07C0
0080
0180
0300
0E00
ENDCHAR
STARTCHAR 305B
ENCODING 12379
SWIDTH 960 0
DWIDTH 16 0
BBX 16 16 0 -2
BITMAP
0000
0810
0810
0810
0810
FFFF
0810
0810
0810
0810
0860
0800
0800
0400
03FC
0000
ENDCHAR
STARTCHAR 305C
ENCODING 12380
SWIDTH 960 0
DWIDTH 16 0
BBX 16 16 0 -2
BITMAP
0005
0825
0820
0820
0820
FFFF
0820
0820
0820
0820
08C0
0800
0800
0400
03FC
0000
ENDCHAR
STARTCHAR 305D
ENCODING 12381
SWIDTH 960 0
DWIDTH 16 0
BBX 16 16 0 -2
BITMAP
0000
1FF8
0030
00C0
0180
0300
0C00
7FFE
0180
0300
0600
0400
0400
0600
0380
00F0
ENDCHAR
STARTCHAR 305E
ENCODING 12382
SWIDTH 960 0
DWIDTH 16 0
BBX 16 16 0 -2
BITMAP
0000
1FF0
0065
00C5
0180
0300
0C00
7FFE
0180
0300
0600
0400
0400
0600
0380
00F0
ENDCHAR
STARTCHAR 305F
ENCODING 12383
SWIDTH 960 0
DWIDTH 16 0
BBX 16 16 0 -2
BITMAP
0400
0400
0400
7F80
0800
087C
0800
1800
1000
1000
3000
2000
2080
60C0
407E
0000
ENDCHAR
STARTCHAR 3060
ENCODING 12384
SWIDTH 960 0
DWIDTH 16 0
BBX 16 16 0 -2
BITMAP
040A
040A
0400
7F80
0800
087C
0800
1800
1000
1000
3000
2000
2080
60C0
407E
0000
ENDCHAR
STARTCHAR 3061
ENCODING 12385
SWIDTH 960 0
DWIDTH 16 0
BBX 16 16 0 -2
BITMAP
0100
0100
0100
7FFC
0200
0600
0400
0FF0
1808
3004
0004
0004
000C
0038
07E0
0000
ENDCHAR
STARTCHAR 3062
ENCODING 12386
SWIDTH 960 0
DWIDTH 16 0
BBX 16 16 0 -2
BITMAP
0105
0105
0100
7FFC
0200
0600
0400
0FF0
1808
3004
0004
0004
000C
0038
07E0
0000
ENDCHAR
STARTCHAR 3063
ENCODING 12387
SWIDTH 960 0
DWIDTH 16 0
BBX 16 16 0 -2
BITMAP
0000
0000
0000
0000
0000
0000
0000
01E0
0710
1C08
0008
0008
0018
0030
00E0
0000
ENDCHAR
STARTCHAR 3064
ENCODING 12388
SWIDTH 960 0
DWIDTH 16 0
BBX 16 16 0 -2
BITMAP
0000
0000
0000
03F8
1E04
7002
0002
0002
0002
0006
000C
0038
00E0
0000
0000
0000
ENDCHAR
STARTCHAR 3065
ENCODING 12389
SWIDTH 960 0
DWIDTH 16 0
BBX 16 16 0 -2
BITMAP
0005
0005
0000
03F8
1E04
7002
0002
0002
0002
0006
000C
0038
00E0
0000
0000
0000
ENDCHAR
STARTCHAR 3066
ENCODING 12390
SWIDTH 960 0
DWIDTH 16 0
BBX 16 16 0 -2
BITMAP
0000
0000
7FFE
0060
00C0
0180
0100
0300
0200
0200
0200
0300
0180
00E0
0038
0000
ENDCHAR
STARTCHAR 3067
ENCODING 12391
SWIDTH 960 0
DWIDTH 16 0
BBX 16 16 0 -2
BITMAP
0000
0000
7FFC
0060
00C5
0185
0100
0300
0200
0200
0200
0300
0180
00E0
0038
0000
ENDCHAR
STARTCHAR 3068
ENCODING 12392
SWIDTH 960 0
DWIDTH 16 0
BBX 16 16 0 -2
BITMAP
0000
1000
1800
0800
0C0C
0438
06E0
0380
0600
0C00
1800
1000
1000
1800
0FFC
0000
ENDCHAR
STARTCHAR 3069
ENCODING 12393
SWIDTH 960 0
DWIDTH 16 0
BBX 16 16 0 -2
BITMAP
0005
1005
1800
0800
0C0C
0438
06E0
0380
0600
0C00
1800
1000
1000
1800
0FFC
0000
ENDCHAR
STARTCHAR 306A
ENCODING 12394
SWIDTH 960 0
DWIDTH 16 0
BBX 16 16 0 -2
BITMAP
0800
0800
0818
7F0C
0806
1800
1020
1020
3020
2020
6020
03E0
0438
046C
03C0
0000
ENDCHAR
STARTCHAR 306B
ENCODING 12395
SWIDTH 960 0
DWIDTH 16 0
BBX 16 16 0 -2
BITMAP
0000
1000
1000
31FC
2000
2000
2000
2000
2000
2000
2200
2200
2B00
31FE
1000
0000
ENDCHAR
STARTCHAR 306C
ENCODING 12396
SWIDTH 960 0
DWIDTH 16 0
BBX 16 16 0 -2
BITMAP
0080
0080
2080
2080
37F0
1C9C
1084
3986
2902
6D02
4702
423A
4744
4D4E
383B
0000
ENDCHAR
STARTCHAR 306D
ENCODING 12397
SWIDTH 960 0
DWIDTH 16 0
BBX 16 16 0 -2
BITMAP
0800
0800
0800
08F8
798C
0B06
0E02
0C02
0802
1802
383A
6844
084E
083B
0800
0000
ENDCHAR
STARTCHAR 306E
ENCODING 12398
SWIDTH 960 0
DWIDTH 16 0
BBX 16 16 0 -2
BITMAP
0000
0000
03E0
0EB8
188C
3084
2186
6102
4302
4202
4606
4C04
381C
0070
0000
0000
ENDCHAR
STARTCHAR 306F
ENCODING 12399
SWIDTH 960 0
DWIDTH 16 0
BBX 16 16 0 -2
BITMAP
0000
2020
2020
6020
47FE
4020
4020
4020
4020
4020
43E0
4438
542C
6466
23C0
0000
ENDCHAR
STARTCHAR 3070
ENCODING 12400
SWIDTH 960 0
DWIDTH 16 0
BBX 16 16 0 -2
BITMAP
0005
2025
2020
6020
47FE
4020
4020
4020
4020
4020
43E0
4438
542C
6466
23C0
0000
ENDCHAR
STARTCHAR 3071
ENCODING 12401
SWIDTH 960 0
DWIDTH 16 0
BBX 16 16 0 -2
BITMAP
0000
2040
2046
6049
47F9
4046
4040
4040
4040
4040
43C0
4470
5458
64CC
2380
0000
ENDCHAR
STARTCHAR 3072
ENCODING 12402
SWIDTH 960 0
DWIDTH 16 0
BBX 16 16 0 -2
BITMAP
0000
0210
7E10
0418
0C1C
1816
1013
3010
2010
2010
2010
2030
3020
18E0
0F80
0000
ENDCHAR
STARTCHAR 3073
ENCODING 12403
SWIDTH 960 0
DWIDTH 16 0
BBX 16 16 0 -2
BITMAP
0005
0215
7E10
0418
0C1C
1816
1013
3010
2010
2010
2010
2030
3020
18E0
0F80
0000
ENDCHAR
STARTCHAR 3074
ENCODING 12404
SWIDTH 960 0
DWIDTH 16 0
BBX 16 16 0 -2
BITMAP
0000
0840
F846
1049
3069
2076
2058
6040
4040
4040
4040
4040
60C0
3180
1F00
0000
ENDCHAR
STARTCHAR 3075
ENCODING 12405
SWIDTH 960 0
DWIDTH 16 0
BBX 16 16 0 -2
BITMAP
0000
0400
0600
0380
00C0
0000
0600
0300
018C
4086
40C2
5843
7041
20C0
0380
0000
ENDCHAR
STARTCHAR 3076
ENCODING 12406
SWIDTH 960 0
DWIDTH 16 0
BBX 16 16 0 -2
BITMAP
0000
040A
060A
0380
00C0
0000
0600
0300
018C
4086
40C2
5843
7041
20C0
0380
0000
ENDCHAR
STARTCHAR 3077
ENCODING 12407
SWIDTH 960 0
DWIDTH 16 0
BBX 16 16 0 -2
BITMAP
0000
0400
060C
0392
00D2
000C
0600
0300
018C
4086
40C2
5843
7041
20C0
0380
0000
ENDCHAR
STARTCHAR 3078
ENCODING 12408
SWIDTH 960 0
DWIDTH 16 0
BBX 16 16 0 -2
BITMAP
0000
0000
0000
0600
0900
1980
1080
30C0
6060
0030
0018
000C
0006
0000
0000
0000
ENDCHAR
STARTCHAR 3079
ENCODING 12409
SWIDTH 960 0
DWIDTH 16 0
BBX 16 16 0 -2
BITMAP
0000
0028
0028
0600
0900
1980
1080
30C0
6060
0030
0018
000C
0006
0000
0000
0000
ENDCHAR
STARTCHAR 307A
ENCODING 12410
SWIDTH 960 0
DWIDTH 16 0
BBX 16 16 0 -2
BITMAP
0000
0000
0000
0618
0924
19A4
1098
30C0
6060
0030
0018
000C
0006
0000
0000
0000
ENDCHAR
STARTCHAR 307B
ENCODING 12411
SWIDTH 960 0
DWIDTH 16 0
BBX 16 16 0 -2
BITMAP
0000
2000
27FE
6020
4020
4020
47FE
4020
4020
4020
43E0
4438
542C
6466
23C0
0000
ENDCHAR
STARTCHAR 307C
ENCODING 12412
SWIDTH 960 0
DWIDTH 16 0
BBX 16 16 0 -2
BITMAP
0005
2005
27F8
6020
4020
4020
47FC
4020
4020
4020
43E0
4438
542C
6466
23C0
0000
ENDCHAR
STARTCHAR 307D
ENCODING 12413
SWIDTH 960 0
DWIDTH 16 0
BBX 16 16 0 -2
BITMAP
0000
2000
27F6
6049
4049
4046
47F8
4040
4040
4040
43C0
4470
5458
64CC
2380
0000
ENDCHAR
STARTCHAR 307E
ENCODING 12414
SWIDTH 960 0
DWIDTH 16 0
BBX 16 16 0 -2
BITMAP
0080
0080
0080
3FFC
0080
0080
3FFC
0080
0080
0080
1F80
20E0
20B8
218C
1F00
0000
ENDCHAR
STARTCHAR 307F
ENCODING 12415
SWIDTH 960 0
DWIDTH 16 0
BBX 16 16 0 -2
BITMAP
0000
0000
1F00
0100
0108
0108
0108
1FF8
320E
660B
4418
4C10
5830
3060
00C0
0000
ENDCHAR
STARTCHAR 3080
ENCODING 12416
SWIDTH 960 0
DWIDTH 16 0
BBX 16 16 0 -2
BITMAP
0800
0800
0800
7F18
080C
0806
0802
3800
4800
4800
4800
4808
3808
0C18
07F0
0000
ENDCHAR
STARTCHAR 3081
ENCODING 12417
SWIDTH 960 0
DWIDTH 16 0
BBX 16 16 0 -2
BITMAP
0040
0040
2040
2040
37F0
1C9C
1084
3886
2D82
6502
4702
4206
4F04
391C
0070
0000
ENDCHAR
STARTCHAR 3082
ENCODING 12418
SWIDTH 960 0
DWIDTH 16 0
BBX 16 16 0 -2
BITMAP
0200
0200
0200
3FE0
0200
0200
3FE0
0400
0400
0404
0404
0404
060C
0318
01F0
0000
ENDCHAR
STARTCHAR 3083
ENCODING 12419
SWIDTH 960 0
DWIDTH 16 0
BBX 16 16 0 -2
BITMAP
0000
0000
0000
0000
00C0
0860
0C20
04F8
0784
1E04
3304
0118
0100
0180
0080
0080
ENDCHAR
STARTCHAR 3084
ENCODING 12420
SWIDTH 960 0
DWIDTH 16 0
BBX 16 16 0 -2
BITMAP
0000
10C0
1860
0820
0CFC
0782
3C02
E606
021C
0200
0300
0100
0100
0180
0080
0080
ENDCHAR
STARTCHAR 3085
ENCODING 12421
SWIDTH 960 0
DWIDTH 16 0
BBX 16 16 0 -2
BITMAP
0000
0000
0000
0000
0040
0840
09F0
1248
1444
1444
1844
0A48
09F0
0040
00C0
0180
ENDCHAR
STARTCHAR 3086
ENCODING 12422
SWIDTH 960 0
DWIDTH 16 0
BBX 16 16 0 -2
BITMAP
0000
0040
2040
23F8
664C
4C46
4842
5042
5042
6046
264C
23F8
0040
00C0
0180
0000
ENDCHAR
STARTCHAR 3087
ENCODING 12423
SWIDTH 960 0
DWIDTH 16 0
BBX 16 16 0 -2
BITMAP
0000
0000
0000
0000
0100
0100
0100
01F0
0100
0100
0100
0100
0F00
11E0
1130
0E00
ENDCHAR
STARTCHAR 3088
ENCODING 12424
SWIDTH 960 0
DWIDTH 16 0
BBX 16 16 0 -2
BITMAP
0080
0080
0080
0080
00FC
0080
0080
0080
0080
0080
1F80
20E0
20B8
218C
1F00
0000
ENDCHAR
STARTCHAR 3089
ENCODING 12425
SWIDTH 960 0
DWIDTH 16 0
BBX 16 16 0 -2
BITMAP
0180
00C0
0860
0800
1800
1000
1000
13F8
1E0C
3004
0004
0004
000C
0038
01E0
0000
ENDCHAR
STARTCHAR 308A
ENCODING 12426
SWIDTH 960 0
DWIDTH 16 0
BBX 16 16 0 -2
BITMAP
0000
0808
0808
0808
0808
0808
0808
0A08
0C08
0808
0018
0010
0030
0060
01C0
0000
ENDCHAR
STARTCHAR 308B
ENCODING 12427
SWIDTH 960 0
DWIDTH 16 0
BBX 16 16 0 -2
BITMAP
0000
1FF0
0060
00C0
0180
0300
07F0
0C18
180C
3004
0704
0984
088C
0C98
07F0
0000
ENDCHAR
STARTCHAR 308C
ENCODING 12428
SWIDTH 960 0
DWIDTH 16 0
BBX 16 16 0 -2
BITMAP
0800
0800
0800
08E0
7990
0B10
0E10
0C10
0810
1810
3810
6811
0813
080E
0800
0000
ENDCHAR
STARTCHAR 308D
ENCODING 12429
SWIDTH 960 0
DWIDTH 16 0
BBX 16 16 0 -2
BITMAP
0000
1FF0
0060
00C0
0180
0300
07F0
0C18
180C
3004
0004
000C
0018
0070
03C0
0000
ENDCHAR
STARTCHAR 308E
ENCODING 12430
SWIDTH 960 0
DWIDTH 16 0
BBX 16 16 0 -2
BITMAP
0000
0000
0000
0000
0400
0400
0400
3C70
0588
0604
0404
0C04
1C04
3408
0430
0400
ENDCHAR
STARTCHAR 308F
ENCODING 12431
SWIDTH 960 0
DWIDTH 16 0
BBX 16 16 0 -2
BITMAP
0800
0800
0800
08F8
798C
0B06
0E02
0C02
0802
1802
3802
6806
080C
0838
0800
0000
ENDCHAR
STARTCHAR 3090
ENCODING 12432
SWIDTH 960 0
DWIDTH 16 0
BBX 16 16 0 -2
BITMAP
0000
0F80
0080
0080
0080
03F8
0D0C
1906
3302
2602
6462
4CB2
5896
30CC
0078
0000
ENDCHAR
STARTCHAR 3091
ENCODING 12433
SWIDTH 960 0
DWIDTH 16 0
BBX 16 16 0 -2
BITMAP
0000
1FF0
00C0
0300
0FF0
3818
0008
0E08
1318
1930
0FE0
0800
3E7C
63C6
C083
0000
ENDCHAR
STARTCHAR 3092
ENCODING 12434
SWIDTH 960 0
DWIDTH 16 0
BBX 16 16 0 -2
BITMAP
0200
0200
03E0
3E00
0400
0406
0F9C
1870
31C0
0340
0640
0C40
0800
0C00
07FC
0000
ENDCHAR
STARTCHAR 3093
ENCODING 12435
SWIDTH 960 0
DWIDTH 16 0
BBX 16 16 0 -2
BITMAP
0200
0200
0600
0400
0C00
0800
0800
1B80
1440
1840
3040
2042
2046
604C
4038
0000
ENDCHAR
STARTCHAR 3094
ENCODING 12436
SWIDTH 960 0
DWIDTH 16 0
BBX 16 16 0 -2
BITMAP
0605
0385
00E0
0000
0000
1FF0
0018
0008
0008
0008
0018
0030
0060
01C0
0F00
0000
ENDCHAR
STARTCHAR 3095
ENCODING 12437
SWIDTH 960 0
DWIDTH 16 0
BBX 16 16 0 -2
BITMAP
0000
0000
0000
0000
0200
0200
0210
1F98
0248
024C
0644
0444
0C40
18C0
0080
0380
ENDCHAR
STARTCHAR 3096
ENCODING 12438
SWIDTH 960 0
DWIDTH 16 0
BBX 16 16 0 -2
BITMAP
0000
0000
0000
0000
0020
0820
0820
13FC
1020
1020
1020
1020
1460
0840
00C0
0180
ENDCHAR
STARTCHAR 309B
ENCODING 12443
SWIDTH 960 0
DWIDTH 16 0
BBX 16 16 0 -2
BITMAP
5000
5000
0000
0000
0000
0000
0000
0000
0000
0000
0000
0000
0000
0000
0000
0000
ENDCHAR
STARTCHAR 309C
ENCODING 12444
SWIDTH 960 0
DWIDTH 16 0
BBX 16 16 0 -2
BITMAP
0000
0000
6000
9000
9000
6000
0000
0000
0000
0000
0000
0000
0000
0000
0000
0000
ENDCHAR
STARTCHAR 309D
ENCODING 12445
SWIDTH 960 0
DWIDTH 16 0
BBX 16 16 0 -2
BITMAP
0000
0000
0000
0800
0C00
0600
0300
01C0
0060
0030
0060
01C0
0300
0000
0000
0000
ENDCHAR
STARTCHAR 309E
ENCODING 12446
SWIDTH 960 0
DWIDTH 16 0
BBX 16 16 0 -2
BITMAP
0000
0000
0000
0828
0C28
0600
0300
01C0
0060
0030
0060
01C0
0300
0000
0000
0000
ENDCHAR
STARTCHAR 309F
ENCODING 12447
SWIDTH 960 0
DWIDTH 16 0
BBX 16 16 0 -2
BITMAP
0080
0080
0180
01F8
0300
0200
0200
02F0
0718
0408
0C08
0808
1818
1330
11E0
0000
ENDCHAR
STARTCHAR 30A0
ENCODING 12448
SWIDTH 960 0
DWIDTH 16 0
BBX 16 16 0 -2
BITMAP
0000
0000
0000
0000
0000
0FF0
0000
0000
0000
0FF0
0000
0000
0000
0000
0000
0000
ENDCHAR
STARTCHAR 30A1
ENCODING 12449
SWIDTH 960 0
DWIDTH 16 0
BBX 16 16 0 -2
BITMAP
0000
0000
0000
0000
0000
0000
1FFC
000C
0118
0130
0100
0100
0300
0200
0600
0C00
ENDCHAR
STARTCHAR 30A2
ENCODING 12450
SWIDTH 960 0
DWIDTH 16 0
BBX 16 16 0 -2
BITMAP
0000
0000
7FFE
0006
010C
0118
0130
0100
0100
0100
0300
0200
0600
0C00
3800
0000
ENDCHAR
STARTCHAR 30A3
ENCODING 12451
SWIDTH 960 0
DWIDTH 16 0
BBX 16 16 0 -2
BITMAP
0000
0000
0000
0000
0000
0008
0018
0030
00E0
0380
1E80
0080
0080
0080
0080
0080
ENDCHAR
STARTCHAR 30A4
ENCODING 12452
SWIDTH 960 0
DWIDTH 16 0
BBX 16 16 0 -2
BITMAP
0000
0004
000C
0018
0030
00E0
0380
0E80
7880
0080
0080
0080
0080
0080
0080
0000
ENDCHAR
STARTCHAR 30A5
ENCODING 12453
SWIDTH 960 0
DWIDTH 16 0
BBX 16 16 0 -2
BITMAP
0000
0000
0000
0000
0000
0100
0100
1FF8
1008
1008
0018
0010
0030
0060
01C0
0700
ENDCHAR
STARTCHAR 30A6
ENCODING 12454
SWIDTH 960 0
DWIDTH 16 0
BBX 16 16 0 -2
BITMAP
0100
0100
0100
3FFC
2004
2004
2004
2004
000C
0008
0018
0030
0060
01C0
0700
0000
ENDCHAR
STARTCHAR 30A7
ENCODING 12455
SWIDTH 960 0
DWIDTH 16 0
BBX 16 16 0 -2
BITMAP
0000
0000
0000
0000
0000
0000
0000
0FF0
0100
0100
0100
0100
0100
0100
1FF8
0000
ENDCHAR
STARTCHAR 30A8
ENCODING 12456
SWIDTH 960 0
DWIDTH 16 0
BBX 16 16 0 -2
BITMAP
0000
0000
0000
3FFC
0100
0100
0100
0100
0100
0100
0100
0100
7FFE
0000
0000
0000
ENDCHAR
STARTCHAR 30A9
ENCODING 12457
SWIDTH 960 0
DWIDTH 16 0
BBX 16 16 0 -2
BITMAP
0000
0000
0000
0000
0000
0040
0040
0040
1FFC
0140
0340
0640
0C40
3840
0040
01C0
ENDCHAR
STARTCHAR 30AA
ENCODING 12458
SWIDTH 960 0
DWIDTH 16 0
BBX 16 16 0 -2
BITMAP
0040
0040
0040
0040
7FFE
0140
0340
0240
0640
0C40
1840
3040
6040
0040
01C0
0000
ENDCHAR
STARTCHAR 30AB
ENCODING 12459
SWIDTH 960 0
DWIDTH 16 0
BBX 16 16 0 -2
BITMAP
0100
0100
0100
0100
3FFC
0104
0104
0304
0204
0204
0604
040C
0C08
1808
3078
0000
ENDCHAR
STARTCHAR 30AC
ENCODING 12460
SWIDTH 960 0
DWIDTH 16 0
BBX 16 16 0 -2
BITMAP
0105
0105
0100
0100
3FFC
0104
0104
0304
0204
0204
0604
040C
0C08
1808
3078
0000
ENDCHAR
STARTCHAR 30AD
ENCODING 12461
SWIDTH 960 0
DWIDTH 16 0
BBX 16 16 0 -2
BITMAP
0400
0400
0600
0238
03E0
0F00
7900
011E
01F0
0780
3C80
00C0
0040
0040
0060
0020
ENDCHAR
STARTCHAR 30AE
ENCODING 12462
SWIDTH 960 0
DWIDTH 16 0
BBX 16 16 0 -2
BITMAP
0405
0405
0600
0238
03E0
0F00
7900
011E
01F0
0780
3C80
00C0
0040
0040
0060
0020
ENDCHAR
STARTCHAR 30AF
ENCODING 12463
SWIDTH 960 0
DWIDTH 16 0
BBX 16 16 0 -2
BITMAP
0100
0100
0100
03F8
0208
0608
0C18
1810
0030
0020
0060
00C0
0180
0700
1C00
0000
ENDCHAR
STARTCHAR 30B0
ENCODING 12464
SWIDTH 960 0
DWIDTH 16 0
BBX 16 16 0 -2
BITMAP
0105
0105
0100
03F8
0208
0608
0C18
1810
0030
0020
0060
00C0
0180
0700
1C00
0000
ENDCHAR
STARTCHAR 30B1
ENCODING 12465
SWIDTH 960 0
DWIDTH 16 0
BBX 16 16 0 -2
BITMAP
0400
0400
0C00
0800
1FFE
1020
3020
6020
0020
0060
0040
00C0
0180
0300
0E00
0000
ENDCHAR
STARTCHAR 30B2
ENCODING 12466
SWIDTH 960 0
DWIDTH 16 0
BBX 16 16 0 -2
BITMAP
0405
0405
0C00
0800
1FFE
1020
3020
6020
0020
0060
0040
00C0
0180
0300
0E00
0000
ENDCHAR
STARTCHAR 30B3
ENCODING 12467
SWIDTH 960 0
DWIDTH 16 0
BBX 16 16 0 -2
BITMAP
0000
0000
0000
3FFC
0004
0004
0004
0004
0004
0004
0004
0004
0004
3FFC
0000
0000
ENDCHAR
STARTCHAR 30B4
ENCODING 12468
SWIDTH 960 0
DWIDTH 16 0
BBX 16 16 0 -2
BITMAP
0005
0005
0000
3FFC
0004
0004
0004
0004
0004
0004
0004
0004
0004
3FFC
0000
0000
ENDCHAR
STARTCHAR 30B5
ENCODING 12469
SWIDTH 960 0
DWIDTH 16 0
BBX 16 16 0 -2
BITMAP
0000
0810
0810
0810
FFFF
0810
0810
0810
0810
0030
0020
0060
00C0
0180
0700
0000
ENDCHAR
STARTCHAR 30B6
ENCODING 12470
SWIDTH 960 0
DWIDTH 16 0
BBX 16 16 0 -2
BITMAP
0005
0815
0810
0810
FFFF
0810
0810
0810
0810
0030
0020
0060
00C0
0180
0700
0000
ENDCHAR
STARTCHAR 30B7
ENCODING 12471
SWIDTH 960 0
DWIDTH 16 0
BBX 16 16 0 -2
BITMAP
0000
0000
0C00
0600
0200
0000
3002
1806
080C
0018
0030
0060
01C0
0700
3C00
0000
ENDCHAR
STARTCHAR 30B8
ENCODING 12472
SWIDTH 960 0
DWIDTH 16 0
BBX 16 16 0 -2
BITMAP
0000
000A
0C0A
0600
0200
0000
3002
1806
080C
0018
0030
0060
01C0
0700
3C00
0000
ENDCHAR
STARTCHAR 30B9
ENCODING 12473
SWIDTH 960 0
DWIDTH 16 0
BBX 16 16 0 -2
BITMAP
0000
0000
3FF0
0010
0010
0030
0020
0060
00C0
01C0
0360
0630
0C18
180C
7006
0000
ENDCHAR
STARTCHAR 30BA
ENCODING 12474
SWIDTH 960 0
DWIDTH 16 0
BBX 16 16 0 -2
BITMAP
0005
0005
3FF0
0010
0010
0030
0020
0060
00C0
01C0
0360
0630
0C18
180C
7006
0000
ENDCHAR
STARTCHAR 30BB
ENCODING 12475
SWIDTH 960 0
DWIDTH 16 0
BBX 16 16 0 -2
BITMAP
0000
0800
0800
0800
08FC
0F8C
F818
0830
0800
0800
0800
0800
0C00
07FC
0000
0000
ENDCHAR
STARTCHAR 30BC
ENCODING 12476
SWIDTH 960 0
DWIDTH 16 0
BBX 16 16 0 -2
BITMAP
0005
0805
0800
0800
08FC
0F8C
F818
0830
0800
0800
0800
0800
0C00
07FC
0000
0000
ENDCHAR
STARTCHAR 30BD
ENCODING 12477
SWIDTH 960 0
DWIDTH 16 0
BBX 16 16 0 -2
BITMAP
0000
0000
2004
3004
1004
1804
080C
0008
0018
0010
0030
0060
00C0
0380
0E00
0000
ENDCHAR
STARTCHAR 30BE
ENCODING 12478
SWIDTH 960 0
DWIDTH 16 0
BBX 16 16 0 -2
BITMAP
0005
0005
2000
3008
1008
1808
0818
0010
0030
0020
0060
00C0
0180
0700
1C00
0000
ENDCHAR
STARTCHAR 30BF
ENCODING 12479
SWIDTH 960 0
DWIDTH 16 0
BBX 16 16 0 -2
BITMAP
0100
0100
0100
03FC
0204
060C
0D88
18D8
0050
0030
0060
00C0
0180
0700
1C00
0000
ENDCHAR
STARTCHAR 30C0
ENCODING 12480
SWIDTH 960 0
DWIDTH 16 0
BBX 16 16 0 -2
BITMAP
0205
0205
0200
07F8
0408
0C18
1B10
31B0
00A0
0060
00C0
0180
0300
0E00
3800
0000
ENDCHAR
STARTCHAR 30C1
ENCODING 12481
SWIDTH 960 0
DWIDTH 16 0
BBX 16 16 0 -2
BITMAP
0000
0018
00F0
1F80
0080
0080
0080
7FFE
0080
0080
0180
0100
0300
0600
1C00
0000
ENDCHAR
STARTCHAR 30C2
ENCODING 12482
SWIDTH 960 0
DWIDTH 16 0
BBX 16 16 0 -2
BITMAP
0005
0035
00E0
1F80
0080
0080
0080
7FFE
0080
0080
0180
0100
0300
0600
1C00
0000
ENDCHAR
STARTCHAR 30C3
ENCODING 12483
SWIDTH 960 0
DWIDTH 16 0
BBX 16 16 0 -2
BITMAP
0000
0000
0000
0000
0000
0000
0200
1308
1908
0818
0010
0030
0060
00C0
0180
0700
ENDCHAR
STARTCHAR 30C4
ENCODING 12484
SWIDTH 960 0
DWIDTH 16 0
BBX 16 16 0 -2
BITMAP
0000
0000
0400
4602
6202
2306
3104
100C
0008
0018
0030
0060
00C0
0380
0E00
0000
ENDCHAR
STARTCHAR 30C5
ENCODING 12485
SWIDTH 960 0
DWIDTH 16 0
BBX 16 16 0 -2
BITMAP
0005
0005
0400
4604
6204
2304
310C
1008
0018
0010
0030
0060
00C0
0380
0E00
0000
ENDCHAR
STARTCHAR 30C6
ENCODING 12486
SWIDTH 960 0
DWIDTH 16 0
BBX 16 16 0 -2
BITMAP
0000
0000
3FFC
0000
0000
0000
7FFE
0080
0080
0080
0180
0100
0300
0600
1C00
0000
ENDCHAR
STARTCHAR 30C7
ENCODING 12487
SWIDTH 960 0
DWIDTH 16 0
BBX 16 16 0 -2
BITMAP
0005
0005
3FF8
0000
0000
0000
7FFC
0080
0080
0080
0180
0100
0300
0600
1C00
0000
ENDCHAR
STARTCHAR 30C8
ENCODING 12488
SWIDTH 960 0
DWIDTH 16 0
BBX 16 16 0 -2
BITMAP
0000
0200
0200
0200
0200
0200
03C0
0270
021C
0200
0200
0200
0200
0200
0200
0000
ENDCHAR
STARTCHAR 30C9
ENCODING 12489
SWIDTH 960 0
DWIDTH 16 0
BBX 16 16 0 -2
BITMAP
0000
020A
020A
0200
0200
0200
03C0
0270
021C
0200
0200
0200
0200
0200
0200
0000
ENDCHAR
STARTCHAR 30CA
ENCODING 12490
SWIDTH 960 0
DWIDTH 16 0
BBX 16 16 0 -2
BITMAP
0000
0080
0080
0080
0080
7FFE
0080
0080
0080
0080
0180
0100
0300
0600
1C00
0000
ENDCHAR
STARTCHAR 30CB
ENCODING 12491
SWIDTH 960 0
DWIDTH 16 0
BBX 16 16 0 -2
BITMAP
0000
0000
0000
0000
1FF8
0000
0000
0000
0000
0000
0000
0000
7FFE
0000
0000
0000
ENDCHAR
STARTCHAR 30CC
ENCODING 12492
SWIDTH 960 0
DWIDTH 16 0
BBX 16 16 0 -2
BITMAP
0000
0000
1FF8
0008
0018
0010
0C30
0760
01C0
00E0
01B0
0318
0608
0C00
3800
0000
ENDCHAR
STARTCHAR 30CD
ENCODING 12493
SWIDTH 960 0
DWIDTH 16 0
BBX 16 16 0 -2
BITMAP
0100
0100
0100
3FF8
0030
0060
00C0
0180
0730
1D1C
7106
0100
0100
0100
0100
0000
ENDCHAR
STARTCHAR 30CE
ENCODING 12494
SWIDTH 960 0
DWIDTH 16 0
BBX 16 16 0 -2
BITMAP
0000
0000
0008
0008
0018
0010
0030
0060
0040
00C0
0180
0300
0600
0C00
3800
0000
ENDCHAR
STARTCHAR 30CF
ENCODING 12495
SWIDTH 960 0
DWIDTH 16 0
BBX 16 16 0 -2
BITMAP
0000
0000
0000
0420
0430
0410
0C18
0808
080C
0804
1804
1006
3002
6002
0000
0000
ENDCHAR
STARTCHAR 30D0
ENCODING 12496
SWIDTH 960 0
DWIDTH 16 0
BBX 16 16 0 -2
BITMAP
0005
0005
0000
0420
0430
0410
0C18
0808
080C
0804
1804
1006
3002
6002
0000
0000
ENDCHAR
STARTCHAR 30D1
ENCODING 12497
SWIDTH 960 0
DWIDTH 16 0
BBX 16 16 0 -2
BITMAP
0000
0000
0006
0849
0869
0826
1830
1010
1018
1008
3008
200C
6004
C004
0000
0000
ENDCHAR
STARTCHAR 30D2
ENCODING 12498
SWIDTH 960 0
DWIDTH 16 0
BBX 16 16 0 -2
BITMAP
0000
1000
1000
1000
1018
10F0
1F80
1000
1000
1000
1000
1000
1800
0FFC
0000
0000
ENDCHAR
STARTCHAR 30D3
ENCODING 12499
SWIDTH 960 0
DWIDTH 16 0
BBX 16 16 0 -2
BITMAP
0005
1005
1000
1000
1018
10F0
1F80
1000
1000
1000
1000
1000
1800
0FFC
0000
0000
ENDCHAR
STARTCHAR 30D4
ENCODING 12500
SWIDTH 960 0
DWIDTH 16 0
BBX 16 16 0 -2
BITMAP
0000
2000
2006
2009
2069
23C6
3E00
2000
2000
2000
2000
2000
3000
1FF8
0000
0000
ENDCHAR
STARTCHAR 30D5
ENCODING 12501
SWIDTH 960 0
DWIDTH 16 0
BBX 16 16 0 -2
BITMAP
0000
0000
3FFC
0004
000C
0008
0018
0010
0030
0060
00C0
0180
0700
1C00
0000
0000
ENDCHAR
STARTCHAR 30D6
ENCODING 12502
SWIDTH 960 0
DWIDTH 16 0
BBX 16 16 0 -2
BITMAP
0005
0005
7FF8
0008
0018
0010
0030
0020
0060
00C0
0180
0300
0E00
3800
0000
0000
ENDCHAR
STARTCHAR 30D7
ENCODING 12503
SWIDTH 960 0
DWIDTH 16 0
BBX 16 16 0 -2
BITMAP
0000
0000
FFE6
0029
0029
0066
0040
00C0
0080
0180
0300
0600
1C00
7000
0000
0000
ENDCHAR
STARTCHAR 30D8
ENCODING 12504
SWIDTH 960 0
DWIDTH 16 0
BBX 16 16 0 -2
BITMAP
0000
0000
0000
0400
0E00
0B00
1980
10C0
3060
6030
0018
000C
0006
0000
0000
0000
ENDCHAR
STARTCHAR 30D9
ENCODING 12505
SWIDTH 960 0
DWIDTH 16 0
BBX 16 16 0 -2
BITMAP
0000
0050
0050
0400
0E00
0B00
1980
10C0
3060
6030
0018
000C
0006
0000
0000
0000
ENDCHAR
STARTCHAR 30DA
ENCODING 12506
SWIDTH 960 0
DWIDTH 16 0
BBX 16 16 0 -2
BITMAP
0000
0000
0000
0430
0E48
0B48
19B0
10C0
3060
6030
0018
000C
0006
0000
0000
0000
ENDCHAR
STARTCHAR 30DB
ENCODING 12507
SWIDTH 960 0
DWIDTH 16 0
BBX 16 16 0 -2
BITMAP
0000
0100
0100
0100
7FFE
0100
0100
0910
0918
190C
1104
3106
6102
0100
0700
0000
ENDCHAR
STARTCHAR 30DC
ENCODING 12508
SWIDTH 960 0
DWIDTH 16 0
BBX 16 16 0 -2
BITMAP
000A
010A
0100
0100
7FFE
0100
0100
0910
0918
190C
1104
3106
6102
0100
0700
0000
ENDCHAR
STARTCHAR 30DD
ENCODING 12509
SWIDTH 960 0
DWIDTH 16 0
BBX 16 16 0 -2
BITMAP
0000
0100
0106
0109
7FF9
0106
0100
0920
0930
1918
1108
310C
6104
0100
0700
0000
ENDCHAR
STARTCHAR 30DE
ENCODING 12510
SWIDTH 960 0
DWIDTH 16 0
BBX 16 16 0 -2
BITMAP
0000
0000
0000
7FFE
000C
0018
0030
0C60
06C0
0380
0180
00C0
0060
0020
0000
0000
ENDCHAR
STARTCHAR 30DF
ENCODING 12511
SWIDTH 960 0
DWIDTH 16 0
BBX 16 16 0 -2
BITMAP
0000
0700
01E0
0030
0000
0000
0700
01C0
0060
0000
0000
0E00
0380
00E0
0030
0000
ENDCHAR
STARTCHAR 30E0
ENCODING 12512
SWIDTH 960 0
DWIDTH 16 0
BBX 16 16 0 -2
BITMAP
0000
0100
0100
0300
0200
0200
0600
0410
0410
0C18
0808
08FC
1F84
7006
0000
0000
ENDCHAR
STARTCHAR 30E1
ENCODING 12513
SWIDTH 960 0
DWIDTH 16 0
BBX 16 16 0 -2
BITMAP
0000
0008
0008
0018
0010
0C30
0760
01C0
00E0
01B0
0318
0608
0C00
1800
7000
0000
ENDCHAR
STARTCHAR 30E2
ENCODING 12514
SWIDTH 960 0
DWIDTH 16 0
BBX 16 16 0 -2
BITMAP
0000
0000
3FF8
0200
0200
0200
0200
7FFC
0200
0200
0200
0200
0300
01FC
0000
0000
ENDCHAR
STARTCHAR 30E3
ENCODING 12515
SWIDTH 960 0
DWIDTH 16 0
BBX 16 16 0 -2
BITMAP
0000
0000
0000
0000
0000
0400
0600
023C
03E4
0F0C
3908
0180
0080
00C0
0040
0040
ENDCHAR
STARTCHAR 30E4
ENCODING 12516
SWIDTH 960 0
DWIDTH 16 0
BBX 16 16 0 -2
BITMAP
0000
0800
0C00
041E
05F2
1F06
F20C
0308
0100
0180
0080
0080
00C0
0040
0040
0000
ENDCHAR
STARTCHAR 30E5
ENCODING 12517
SWIDTH 960 0
DWIDTH 16 0
BBX 16 16 0 -2
BITMAP
0000
0000
0000
0000
0000
0000
0000
0FC0
0040
0040
0040
0040
0040
0040
1FF8
0000
ENDCHAR
STARTCHAR 30E6
ENCODING 12518
SWIDTH 960 0
DWIDTH 16 0
BBX 16 16 0 -2
BITMAP
0000
0000
0000
1FE0
0020
0020
0020
0020
0020
0020
0020
0020
7FFE
0000
0000
0000
ENDCHAR
STARTCHAR 30E7
ENCODING 12519
SWIDTH 960 0
DWIDTH 16 0
BBX 16 16 0 -2
BITMAP
0000
0000
0000
0000
0000
0000
0FF0
0010
0010
0010
0FF0
0010
0010
0010
0FF0
0000
ENDCHAR
STARTCHAR 30E8
ENCODING 12520
SWIDTH 960 0
DWIDTH 16 0
BBX 16 16 0 -2
BITMAP
0000
0000
1FF8
0008
0008
0008
0008
1FF8
0008
0008
0008
0008
0008
1FF8
0000
0000
ENDCHAR
STARTCHAR 30E9
ENCODING 12521
SWIDTH 960 0
DWIDTH 16 0
BBX 16 16 0 -2
BITMAP
0000
0000
1FF8
0000
0000
0000
3FFC
0004
000C
0008
0018
0030
0060
01C0
0F00
0000
ENDCHAR
STARTCHAR 30EA
ENCODING 12522
SWIDTH 960 0
DWIDTH 16 0
BBX 16 16 0 -2
BITMAP
0000
0808
0808
0808
0808
0808
0808
0808
0808
0008
0018
0010
0030
0060
01C0
0000
ENDCHAR
STARTCHAR 30EB
ENCODING 12523
SWIDTH 960 0
DWIDTH 16 0
BBX 16 16 0 -2
BITMAP
0000
0040
0840
0840
0840
0840
0840
0841
0843
0846
184C
1058
3070
6060
0000
0000
ENDCHAR
STARTCHAR 30EC
ENCODING 12524
SWIDTH 960 0
DWIDTH 16 0
BBX 16 16 0 -2
BITMAP
0000
0000
0800
0800
0800
0800
0800
0802
0806
080C
0818
0870
09C0
0F00
0000
0000
ENDCHAR
STARTCHAR 30ED
ENCODING 12525
SWIDTH 960 0
DWIDTH 16 0
BBX 16 16 0 -2
BITMAP
0000
0000
0000
1FF8
1008
1008
1008
1008
1008
1008
1008
1008
1FF8
0000
0000
0000
ENDCHAR
STARTCHAR 30EE
ENCODING 12526
SWIDTH 960 0
DWIDTH 16 0
BBX 16 16 0 -2
BITMAP
0000
0000
0000
0000
0000
0000
1FF8
1008
1008
1008
0018
0010
0030
0060
01C0
0700
ENDCHAR
STARTCHAR 30EF
ENCODING 12527
SWIDTH 960 0
DWIDTH 16 0
BBX 16 16 0 -2
BITMAP
0000
0000
3FFC
2004
2004
2004
0004
000C
0008
0018
0030
0060
01C0
0700
0000
0000
ENDCHAR
STARTCHAR 30F0
ENCODING 12528
SWIDTH 960 0
DWIDTH 16 0
BBX 16 16 0 -2
BITMAP
0000
0040
0040
0040
3FFC
0840
0840
0840
0840
0840
7FFE
0040
0040
0040
0040
0000
ENDCHAR
STARTCHAR 30F1
ENCODING 12529
SWIDTH 960 0
DWIDTH 16 0
BBX 16 16 0 -2
BITMAP
0000
0000
0000
3FFC
000C
0018
0130
0100
0100
0100
0100
0100
7FFE
0000
0000
0000
ENDCHAR
STARTCHAR 30F2
ENCODING 12530
SWIDTH 960 0
DWIDTH 16 0
BBX 16 16 0 -2
BITMAP
0000
0000
1FFC
0004
0004
0004
1FFC
0008
0018
0030
0060
00C0
0380
0E00
0000
0000
ENDCHAR
STARTCHAR 30F3
ENCODING 12531
SWIDTH 960 0
DWIDTH 16 0
BBX 16 16 0 -2
BITMAP
0000
0000
3000
1C00
0600
0002
0006
000C
0018
0030
0060
01C0
0700
3C00
0000
0000
ENDCHAR
STARTCHAR 30F4
ENCODING 12532
SWIDTH 960 0
DWIDTH 16 0
BBX 16 16 0 -2
BITMAP
0105
0105
0100
3FFC
2004
2004
2004
2004
000C
0008
0018
0030
0060
01C0
0700
0000
ENDCHAR
STARTCHAR 30F5
ENCODING 12533
SWIDTH 960 0
DWIDTH 16 0
BBX 16 16 0 -2
BITMAP
0000
0000
0000
0000
0000
0100
0100
0100
1FF8
0108
0108
0308
0208
0618
0C10
1870
ENDCHAR
STARTCHAR 30F6
ENCODING 12534
SWIDTH 960 0
DWIDTH 16 0
BBX 16 16 0 -2
BITMAP
0000
0000
0000
0000
0000
0400
0400
0400
0FFC
0820
1820
3060
0040
00C0
0180
0300
ENDCHAR
STARTCHAR 30F7
ENCODING 12535
SWIDTH 960 0
DWIDTH 16 0
BBX 16 16 0 -2
BITMAP
0005
0005
0000
3FFC
2004
2004
2004
000C
0008
0018
0030
0060
01C0
0700
0000
0000
ENDCHAR
STARTCHAR 30F8
ENCODING 12536
SWIDTH 960 0
DWIDTH 16 0
BBX 16 16 0 -2
BITMAP
0005
0045
0040
0040
3FFC
0840
0840
0840
0840
0840
7FFE
0040
0040
0040
0040
0000
ENDCHAR
STARTCHAR 30F9
ENCODING 12537
SWIDTH 960 0
DWIDTH 16 0
BBX 16 16 0 -2
BITMAP
0005
0005
0000
3FFC
000C
0018
0130
0100
0100
0100
0100
0100
7FFE
0000
0000
0000
ENDCHAR
STARTCHAR 30FA
ENCODING 12538
SWIDTH 960 0
DWIDTH 16 0
BBX 16 16 0 -2
BITMAP
0005
0005
0000
1FFC
0004
0004
1FFC
0008
0018
0030
0060
00C0
0380
0E00
0000
0000
ENDCHAR
STARTCHAR 30FB
ENCODING 12539
SWIDTH 960 0
DWIDTH 16 0
BBX 16 16 0 -2
BITMAP
0000
0000
0000
0000
0000
0000
0000
0180
0180
0000
0000
0000
0000
0000
0000
0000
ENDCHAR
STARTCHAR 30FC
ENCODING 12540
SWIDTH 960 0
DWIDTH 16 0
BBX 16 16 0 -2
BITMAP
0000
0000
0000
0000
0000
0000
4000
3FFE
0000
0000
0000
0000
0000
0000
0000
0000
ENDCHAR
STARTCHAR 30FD
ENCODING 12541
SWIDTH 960 0
DWIDTH 16 0
BBX 16 16 0 -2
BITMAP
0000
0000
0000
0000
0600
0300
0180
00C0
0060
0020
0030
0010
0000
0000
0000
0000
ENDCHAR
STARTCHAR 30FE
ENCODING 12542
SWIDTH 960 0
DWIDTH 16 0
BBX 16 16 0 -2
BITMAP
0000
0000
0000
0050
0C50
0600
0300
0180
00C0
0040
0060
0020
0000
0000
0000
0000
ENDCHAR
STARTCHAR 30FF
ENCODING 12543
SWIDTH 960 0
DWIDTH 16 0
BBX 16 16 0 -2
BITMAP
0000
0000
1FF8
0008
0008
0008
0008
0008
0008
0008
0008
0008
0008
0008
0008
0000
ENDCHAR
STARTCHAR 31F0
ENCODING 12784
SWIDTH 960 0
DWIDTH 16 0
BBX 16 16 0 -2
BITMAP
0000
0000
0000
0000
0000
0100
0100
03F8
0608
0C18
0010
0030
0060
00C0
0380
1E00
ENDCHAR
STARTCHAR 31F1
ENCODING 12785
SWIDTH 960 0
DWIDTH 16 0
BBX 16 16 0 -2
BITMAP
0000
0000
0000
0000
0000
0000
0600
0300
0104
1804
0C0C
0418
0030
0060
01C0
0F00
ENDCHAR
STARTCHAR 31F2
ENCODING 12786
SWIDTH 960 0
DWIDTH 16 0
BBX 16 16 0 -2
BITMAP
0000
0000
0000
0000
0000
0000
0FF0
0010
0030
0020
0060
00C0
0180
0360
0630
1C1C
ENDCHAR
STARTCHAR 31F3
ENCODING 12787
SWIDTH 960 0
DWIDTH 16 0
BBX 16 16 0 -2
BITMAP
0000
0000
0000
0000
0000
0400
0400
0400
0400
0780
04E0
0430
0400
0400
0400
0400
ENDCHAR
STARTCHAR 31F4
ENCODING 12788
SWIDTH 960 0
DWIDTH 16 0
BBX 16 16 0 -2
BITMAP
0000
0000
0000
0000
0000
0000
0FF0
0010
0030
0620
0360
01C0
00E0
01B0
0710
1C00
ENDCHAR
STARTCHAR 31F5
ENCODING 12789
SWIDTH 960 0
DWIDTH 16 0
BBX 16 16 0 -2
BITMAP
0000
0000
0000
0000
0000
0000
0240
0240
0260
0220
0630
0410
0418
0C08
1808
0000
ENDCHAR
STARTCHAR 31F6
ENCODING 12790
SWIDTH 960 0
DWIDTH 16 0
BBX 16 16 0 -2
BITMAP
0000
0000
0000
0000
0000
0800
0800
0830
09E0
0F00
0800
0800
0800
0800
0C00
07F8
ENDCHAR
STARTCHAR 31F7
ENCODING 12791
SWIDTH 960 0
DWIDTH 16 0
BBX 16 16 0 -2
BITMAP
0000
0000
0000
0000
0000
0000
1FF8
0008
0008
0018
0010
0030
0060
00C0
0380
0E00
ENDCHAR
STARTCHAR 31F8
ENCODING 12792
SWIDTH 960 0
DWIDTH 16 0
BBX 16 16 0 -2
BITMAP
0000
0000
0000
0000
0000
0000
0100
0380
0280
06C0
0460
0C20
1830
0018
000C
0000
ENDCHAR
STARTCHAR 31F9
ENCODING 12793
SWIDTH 960 0
DWIDTH 16 0
BBX 16 16 0 -2
BITMAP
0000
0000
0000
0000
0000
0080
0080
1FFC
0080
0080
0290
0698
0C88
188C
0084
0380
ENDCHAR
STARTCHAR 31FA
ENCODING 12794
SWIDTH 960 0
DWIDTH 16 0
BBX 16 16 0 -2
BITMAP
0000
0000
0000
0000
0000
0100
0100
0100
0300
0200
0210
0610
0418
0C08
08FC
1F04
ENDCHAR
STARTCHAR 31FB
ENCODING 12795
SWIDTH 960 0
DWIDTH 16 0
BBX 16 16 0 -2
BITMAP
0000
0000
0000
0000
0000
0FF0
0000
0000
1FF8
0008
0008
0018
0030
0060
01C0
0700
ENDCHAR
STARTCHAR 31FC
ENCODING 12796
SWIDTH 960 0
DWIDTH 16 0
BBX 16 16 0 -2
BITMAP
0000
0000
0000
0000
0000
0810
0810
0810
0810
0810
0810
0030
0020
0060
00C0
0380
ENDCHAR
STARTCHAR 31FD
ENCODING 12797
SWIDTH 960 0
DWIDTH 16 0
BBX 16 16 0 -2
BITMAP
0000
0000
0000
0000
0000
0040
0440
0440
0440
0440
0440
0444
044C
0C58
0870
1860
ENDCHAR
STARTCHAR 31FE
ENCODING 12798
SWIDTH 960 0
DWIDTH 16 0
BBX 16 16 0 -2
BITMAP
0000
0000
0000
0000
0000
0000
0800
0800
0800
0800
0808
0818
0830
0860
09C0
0F00
ENDCHAR
STARTCHAR 31FF
ENCODING 12799
SWIDTH 960 0
DWIDTH 16 0
BBX 16 16 0 -2
BITMAP
0000
0000
0000
0000
0000
0000
1FF8
1008
1008
1008
1008
1008
1008
1008
1FF8
0000
ENDCHAR
STARTCHAR 3231
ENCODING 12849
SWIDTH 960 0
DWIDTH 16 0
BBX 16 16 0 -2
BITMAP
2004
4822
48A2
BEA1
88F9
8921
9C21
9A21
99FD
A8A9
A8A9
88AD
89A5
4926
4B22
2004
ENDCHAR
STARTCHAR 3232
ENCODING 12850
SWIDTH 960 0
DWIDTH 16 0
BBX 16 16 0 -2
BITMAP
2004
4202
4202
BFFD
8201
8601
87F9
8C09
9C09
B7F9
8409
87F9
8409
440A
443A
2004
ENDCHAR
STARTCHAR 3239
ENCODING 12857
SWIDTH 960 0
DWIDTH 16 0
BBX 16 16 0 -2
BITMAP
2004
4442
4452
8C59
8849
9BFD
9041
B041
9061
9021
9021
9021
9031
501A
5012
2004
ENDCHAR
STARTCHAR 3251
ENCODING 12881
SWIDTH 960 0
DWIDTH 16 0
BBX 16 16 0 -2
BITMAP
07E0
1818
2004
4622
4962
8921
8121
8221
8421
8421
8821
4822
4F72
2004
1818
07E0
ENDCHAR
STARTCHAR 3252
ENCODING 12882
SWIDTH 960 0
DWIDTH 16 0
BBX 16 16 0 -2
BITMAP
07E0
1818
2004
4632
494A
8949
8109
8211
8421
8421
8841
4842
4F7A
2004
1818
07E0
ENDCHAR
STARTCHAR 3253
ENCODING 12883
SWIDTH 960 0
DWIDTH 16 0
BBX 16 16 0 -2
BITMAP
07E0
1818
2004
4632
494A
8949
8109
8231
8409
8409
8849
484A
4F32
2004
1818
07E0
ENDCHAR
STARTCHAR 3254
ENCODING 12884
SWIDTH 960 0
DWIDTH 16 0
BBX 16 16 0 -2
BITMAP
07E0
1818
2004
4612
4932
8931
8151
8251
8491
84F9
8811
4812
4F3A
2004
1818
07E0
ENDCHAR
STARTCHAR 3255
ENCODING 12885
SWIDTH 960 0
DWIDTH 16 0
BBX 16 16 0 -2
BITMAP
07E0
1818
2004
467A
4942
8941
8141
8271
8409
8409
8849
484A
4F32
2004
1818
07E0
ENDCHAR
STARTCHAR 3256
ENCODING 12886
SWIDTH 960 0
DWIDTH 16 0
BBX 16 16 0 -2
BITMAP
07E0
1818
2004
4632
494A
8949
8141
8271
8449
8449
8849
484A
4F32
2004
1818
07E0
ENDCHAR
STARTCHAR 3257
ENCODING 12887
SWIDTH 960 0
DWIDTH 16 0
BBX 16 16 0 -2
BITMAP
07E0
1818
2004
46FA
498A
8919
8111
8211
8431
8421
8821
4822
4F22
2004
1818
07E0
ENDCHAR
STARTCHAR 3258
ENCODING 12888
SWIDTH 960 0
DWIDTH 16 0
BBX 16 16 0 -2
BITMAP
07E0
1818
2004
4632
494A
8949
8149
8231
8449
8449
8849
484A
4F32
2004
1818
07E0
ENDCHAR
STARTCHAR 3259
ENCODING 12889
SWIDTH 960 0
DWIDTH 16 0
BBX 16 16 0 -2
BITMAP
07E0
1818
2004
4632
494A
8949
8149
8239
8409
8409
8809
484A
4F32
2004
1818
07E0
ENDCHAR
STARTCHAR 325A
ENCODING 12890
SWIDTH 960 0
DWIDTH 16 0
BBX 16 16 0 -2
BITMAP
07E0
1818
2004
4632
494A
8949
8149
8649
8149
8149
8949
494A
4632
2004
1818
07E0
ENDCHAR
STARTCHAR 325B
ENCODING 12891
SWIDTH 960 0
DWIDTH 16 0
BBX 16 16 0 -2
BITMAP
07E0
1818
2004
4622
4962
8921
8121
8621
8121
8121
8921
4922
4672
2004
1818
07E0
ENDCHAR
STARTCHAR 325C
ENCODING 12892
SWIDTH 960 0
DWIDTH 16 0
BBX 16 16 0 -2
BITMAP
07E0
1818
2004
4632
494A
8949
8109
8611
8121
8121
8941
4942
467A
2004
1818
07E0
ENDCHAR
STARTCHAR 325D
ENCODING 12893
SWIDTH 960 0
DWIDTH 16 0
BBX 16 16 0 -2
BITMAP
07E0
1818
2004
4632
494A
8949
8109
8631
8109
8109
8949
494A
4632
2004
1818
07E0
ENDCHAR
STARTCHAR 325E
ENCODING 12894
SWIDTH 960 0
DWIDTH 16 0
BBX 16 16 0 -2
BITMAP
07E0
1818
2004
4612
4932
8931
8151
8651
8191
81F9
8911
4912
463A
2004
1818
07E0
ENDCHAR
STARTCHAR 325F
ENCODING 12895
SWIDTH 960 0
DWIDTH 16 0
BBX 16 16 0 -2
BITMAP
07E0
1818
2004
467A
4942
8941
8141
8671
8109
8109
8949
494A
4632
2004
1818
07E0
ENDCHAR
STARTCHAR 32A4
ENCODING 12964
SWIDTH 960 0
DWIDTH 16 0
BBX 16 16 0 -2
BITMAP
07E0
1818
2104
4102
4102
8101
81F1
8101
8101
8101
8101
7FFE
4002
2004
1818
07E0
ENDCHAR
STARTCHAR 32A5
ENCODING 12965
SWIDTH 960 0
DWIDTH 16 0
BBX 16 16 0 -2
BITMAP
07E0
1818
2104
4102
4102
9FF9
9109
9109
9109
9FF9
8101
4102
4102
2104
1818
07E0
ENDCHAR
STARTCHAR 32A6
ENCODING 12966
SWIDTH 960 0
DWIDTH 16 0
BBX 16 16 0 -2
BITMAP
07E0
1818
2004
7FFE
4102
8101
81C1
8161
8131
8111
8101
4102
4102
2104
1818
07E0
ENDCHAR
STARTCHAR 32A7
ENCODING 12967
SWIDTH 960 0
DWIDTH 16 0
BBX 16 16 0 -2
BITMAP
07E0
1818
2204
4202
7FFE
8401
8401
8FF9
8841
9841
9041
7042
47FE
2004
1818
07E0
ENDCHAR
STARTCHAR 32A8
ENCODING 12968
SWIDTH 960 0
DWIDTH 16 0
BBX 16 16 0 -2
BITMAP
07E0
1818
2204
4202
4202
BFFD
8401
8FF1
8A11
8A11
9A11
7212
43F2
2004
1818
07E0
ENDCHAR
STARTCHAR 32B1
ENCODING 12977
SWIDTH 960 0
DWIDTH 16 0
BBX 16 16 0 -2
BITMAP
07E0
1818
2004
4632
494A
8949
8141
8671
8149
8149
8949
494A
4632
2004
1818
07E0
ENDCHAR
STARTCHAR 32B2
ENCODING 12978
SWIDTH 960 0
DWIDTH 16 0
BBX 16 16 0 -2
BITMAP
07E0
1818
2004
46FA
498A
8919
8111
8611
8131
8121
8921
4922
4622
2004
1818
07E0
ENDCHAR
STARTCHAR 32B3
ENCODING 12979
SWIDTH 960 0
DWIDTH 16 0
BBX 16 16 0 -2
BITMAP
07E0
1818
2004
4632
494A
8949
8149
8631
8149
8149
8949
494A
4632
2004
1818
07E0
ENDCHAR
STARTCHAR 32B4
ENCODING 12980
SWIDTH 960 0
DWIDTH 16 0
BBX 16 16 0 -2
BITMAP
07E0
1818
2004
4632
494A
8949
8149
8639
8109
8109
8909
494A
4632
2004
1818
07E0
ENDCHAR
STARTCHAR 32B5
ENCODING 12981
SWIDTH 960 0
DWIDTH 16 0
BBX 16 16 0 -2
BITMAP
07E0
1818
2004
4232
464A
8649
8A49
8A49
9249
9F49
8249
424A
4732
2004
1818
07E0
ENDCHAR
STARTCHAR 32B6
ENCODING 12982
SWIDTH 960 0
DWIDTH 16 0
BBX 16 16 0 -2
BITMAP
07E0
1818
2004
4222
4662
8621
8A21
8A21
9221
9F21
8221
4222
4772
2004
1818
07E0
ENDCHAR
STARTCHAR 32B7
ENCODING 12983
SWIDTH 960 0
DWIDTH 16 0
BBX 16 16 0 -2
BITMAP
07E0
1818
2004
4232
464A
8649
8A09
8A11
9221
9F21
8241
4242
477A
2004
1818
07E0
ENDCHAR
STARTCHAR 32B8
ENCODING 12984
SWIDTH 960 0
DWIDTH 16 0
BBX 16 16 0 -2
BITMAP
07E0
1818
2004
4232
464A
8649
8A09
8A31
9209
9F09
8249
424A
4732
2004
1818
07E0
ENDCHAR
STARTCHAR 32B9
ENCODING 12985
SWIDTH 960 0
DWIDTH 16 0
BBX 16 16 0 -2
BITMAP
07E0
1818
2004
4212
4632
8631
8A51
8A51
9291
9FF9
8211
4212
473A
2004
1818
07E0
ENDCHAR
STARTCHAR 32BA
ENCODING 12986
SWIDTH 960 0
DWIDTH 16 0
BBX 16 16 0 -2
BITMAP
07E0
1818
2004
427A
4642
8641
8A41
8A71
9209
9F09
8249
424A
4732
2004
1818
07E0
ENDCHAR
STARTCHAR 32BB
ENCODING 12987
SWIDTH 960 0
DWIDTH 16 0
BBX 16 16 0 -2
BITMAP
07E0
1818
2004
4232
464A
8649
8A41
8A71
9249
9F49
8249
424A
4732
2004
1818
07E0
ENDCHAR
STARTCHAR 32BC
ENCODING 12988
SWIDTH 960 0
DWIDTH 16 0
BBX 16 16 0 -2
BITMAP
07E0
1818
2004
42FA
468A
8619
8A11
8A11
9231
9F21
8221
4222
4722
2004
1818
07E0
ENDCHAR
STARTCHAR 32BD
ENCODING 12989
SWIDTH 960 0
DWIDTH 16 0
BBX 16 16 0 -2
BITMAP
07E0
1818
2004
4232
464A
8649
8A49
8A31
9249
9F49
8249
424A
4732
2004
1818
07E0
ENDCHAR
STARTCHAR 32BE
ENCODING 12990
SWIDTH 960 0
DWIDTH 16 0
BBX 16 16 0 -2
BITMAP
07E0
1818
2004
4232
464A
8649
8A49
8A39
9209
9F09
8209
424A
4732
2004
1818
07E0
ENDCHAR
STARTCHAR 32BF
ENCODING 12991
SWIDTH 960 0
DWIDTH 16 0
BBX 16 16 0 -2
BITMAP
07E0
1818
2004
5F32
504A
9049
9049
9E49
8149
8149
9149
514A
4E32
2004
1818
07E0
ENDCHAR
STARTCHAR 32D0
ENCODING 13008
SWIDTH 960 0
DWIDTH 16 0
BBX 16 16 0 -2
BITMAP
07E0
1818
2004
4002
4FFA
8009
8091
80A1
8081
8081
8181
4102
4302
2004
1818
07E0
ENDCHAR
STARTCHAR 32D1
ENCODING 13009
SWIDTH 960 0
DWIDTH 16 0
BBX 16 16 0 -2
BITMAP
07E0
1818
2004
4002
4032
8061
81C1
8781
8C81
8081
8081
4082
4082
2004
1818
07E0
ENDCHAR
STARTCHAR 32D2
ENCODING 13010
SWIDTH 960 0
DWIDTH 16 0
BBX 16 16 0 -2
BITMAP
07E0
1818
2004
4102
4102
8FF1
8811
8811
8011
8021
8021
4042
4382
2004
1818
07E0
ENDCHAR
STARTCHAR 32D3
ENCODING 13011
SWIDTH 960 0
DWIDTH 16 0
BBX 16 16 0 -2
BITMAP
07E0
1818
2004
4002
4002
8FE1
8101
8101
8101
8101
8101
5FF2
4002
2004
1818
07E0
ENDCHAR
STARTCHAR 32D4
ENCODING 13012
SWIDTH 960 0
DWIDTH 16 0
BBX 16 16 0 -2
BITMAP
07E0
1818
2004
4042
4042
9FF1
8141
8341
8241
8641
9C41
4042
40C2
2004
1818
07E0
ENDCHAR
STARTCHAR 32D5
ENCODING 13013
SWIDTH 960 0
DWIDTH 16 0
BBX 16 16 0 -2
BITMAP
07E0
1818
2004
4102
4102
8FF1
8111
8111
8211
8211
8431
4422
4862
2004
1818
07E0
ENDCHAR
STARTCHAR 32D6
ENCODING 13014
SWIDTH 960 0
DWIDTH 16 0
BBX 16 16 0 -2
BITMAP
07E0
1818
2004
4202
4232
83E1
8F01
8119
81F1
8F81
8081
40C2
4042
2044
1818
07E0
ENDCHAR
STARTCHAR 32D7
ENCODING 13015
SWIDTH 960 0
DWIDTH 16 0
BBX 16 16 0 -2
BITMAP
07E0
1818
2104
4102
43F2
8211
8611
8C31
8021
8061
80C1
4182
4702
2004
1818
07E0
ENDCHAR
STARTCHAR 32D8
ENCODING 13016
SWIDTH 960 0
DWIDTH 16 0
BBX 16 16 0 -2
BITMAP
07E0
1818
2204
4202
4202
87F9
8C41
8841
9841
80C1
8081
4182
4302
2004
1818
07E0
ENDCHAR
STARTCHAR 32D9
ENCODING 13017
SWIDTH 960 0
DWIDTH 16 0
BBX 16 16 0 -2
BITMAP
07E0
1818
2004
4002
4002
8FE1
8021
8021
8021
8021
8021
4FE2
4002
2004
1818
07E0
ENDCHAR
STARTCHAR 32DA
ENCODING 13018
SWIDTH 960 0
DWIDTH 16 0
BBX 16 16 0 -2
BITMAP
07E0
1818
2004
4002
4422
8421
9FF9
8421
8421
8461
8041
40C2
4382
2004
1818
07E0
ENDCHAR
STARTCHAR 32DB
ENCODING 13019
SWIDTH 960 0
DWIDTH 16 0
BBX 16 16 0 -2
BITMAP
07E0
1818
2004
4002
4602
8301
8011
8C11
8631
8061
80C1
4182
4702
2004
1818
07E0
ENDCHAR
STARTCHAR 32DC
ENCODING 13020
SWIDTH 960 0
DWIDTH 16 0
BBX 16 16 0 -2
BITMAP
07E0
1818
2004
4002
4FF2
8011
8061
80C1
81C1
8361
8631
4C1A
4002
2004
1818
07E0
ENDCHAR
STARTCHAR 32DD
ENCODING 13021
SWIDTH 960 0
DWIDTH 16 0
BBX 16 16 0 -2
BITMAP
07E0
1818
2004
4402
4402
84F9
8711
9C21
8401
8401
8601
43F2
4002
2004
1818
07E0
ENDCHAR
STARTCHAR 32DE
ENCODING 13022
SWIDTH 960 0
DWIDTH 16 0
BBX 16 16 0 -2
BITMAP
07E0
1818
2004
4002
4812
8C11
8411
8431
8021
8061
80C1
4182
4702
2004
1818
07E0
ENDCHAR
STARTCHAR 32DF
ENCODING 13023
SWIDTH 960 0
DWIDTH 16 0
BBX 16 16 0 -2
BITMAP
07E0
1818
2004
4202
43F2
8611
8431
8B21
80E1
8041
80C1
4182
4702
2004
1818
07E0
ENDCHAR
STARTCHAR 32E0
ENCODING 13024
SWIDTH 960 0
DWIDTH 16 0
BBX 16 16 0 -2
BITMAP
07E0
1818
2004
4062
4182
8E81
8081
9FF9
8081
8181
8101
4302
4602
2004
1818
07E0
ENDCHAR
STARTCHAR 32E1
ENCODING 13025
SWIDTH 960 0
DWIDTH 16 0
BBX 16 16 0 -2
BITMAP
07E0
1818
2004
4102
490A
8989
8C89
8419
8011
8031
8061
40C2
4382
2004
1818
07E0
ENDCHAR
STARTCHAR 32E2
ENCODING 13026
SWIDTH 960 0
DWIDTH 16 0
BBX 16 16 0 -2
BITMAP
07E0
1818
2004
4002
47E2
8001
8001
8FF9
8081
8081
8181
4302
4602
2004
1818
07E0
ENDCHAR
STARTCHAR 32E3
ENCODING 13027
SWIDTH 960 0
DWIDTH 16 0
BBX 16 16 0 -2
BITMAP
07E0
1818
2004
4202
4202
8201
8201
83C1
8271
8201
8201
4202
4202
2004
1818
07E0
ENDCHAR
STARTCHAR 32E5
ENCODING 13029
SWIDTH 960 0
DWIDTH 16 0
BBX 16 16 0 -2
BITMAP
07E0
1818
2004
4002
4002
87E1
8001
8001
8001
8001
8001
4FF2
4002
2004
1818
07E0
ENDCHAR
STARTCHAR 32E9
ENCODING 13033
SWIDTH 960 0
DWIDTH 16 0
BBX 16 16 0 -2
BITMAP
07E0
1818
2004
4002
4242
8241
8261
8221
8631
8411
8C19
580A
4002
2004
1818
07E0
ENDCHAR
STARTCHAR 32EC
ENCODING 13036
SWIDTH 960 0
DWIDTH 16 0
BBX 16 16 0 -2
BITMAP
07E0
1818
2004
4002
4202
8701
8581
8CC1
9861
8031
8019
4002
4002
2004
1818
07E0
ENDCHAR
STARTCHAR 32ED
ENCODING 13037
SWIDTH 960 0
DWIDTH 16 0
BBX 16 16 0 -2
BITMAP
07E0
1818
2004
4102
4102
9FF1
8101
8521
8531
8D11
9919
4102
4302
2004
1818
07E0
ENDCHAR
STARTCHAR 32FA
ENCODING 13050
SWIDTH 960 0
DWIDTH 16 0
BBX 16 16 0 -2
BITMAP
07E0
1818
2004
4002
4002
8FF1
8811
8811
8811
8811
8811
4FF2
4002
2004
1818
07E0
ENDCHAR
STARTCHAR 3303
ENCODING 13059
SWIDTH 960 0
DWIDTH 16 0
BBX 16 16 0 -2
BITMAP
0000
7F00
0100
0A00
087E
1800
1000
3000
0000
0400
2400
2440
24C0
2580
6700
C600
ENDCHAR
STARTCHAR 330D
ENCODING 13069
SWIDTH 960 0
DWIDTH 16 0
BBX 16 16 0 -2
BITMAP
2000
20FC
FC84
2484
2484
2484
4484
8CFC
0000
4400
4400
4400
44FE
0C00
0800
1000
ENDCHAR
STARTCHAR 3314
ENCODING 13076
SWIDTH 960 0
DWIDTH 16 0
BBX 16 16 0 -2
BITMAP
1000
1000
1E00
F800
0800
0F00
7800
0C00
047E
0442
0042
0042
0042
007E
0000
0000
ENDCHAR
STARTCHAR 3318
ENCODING 13080
SWIDTH 960 0
DWIDTH 16 0
BBX 16 16 0 -2
BITMAP
0280
22BC
3C00
247E
4402
8402
0804
3038
0000
0800
1800
1000
3200
2200
4F00
7900
ENDCHAR
STARTCHAR 3322
ENCODING 13090
SWIDTH 960 0
DWIDTH 16 0
BBX 16 16 0 -2
BITMAP
2000
2000
3E60
E231
2403
2002
300C
1E38
0000
0600
1C00
0400
7F80
0400
0C00
0800
ENDCHAR
STARTCHAR 3323
ENCODING 13091
SWIDTH 960 0
DWIDTH 16 0
BBX 16 16 0 -2
BITMAP
2000
2060
3E30
E201
2403
2006
301C
1E70
2000
2000
2000
3C00
2600
2000
2000
2000
ENDCHAR
STARTCHAR 3326
ENCODING 13094
SWIDTH 960 0
DWIDTH 16 0
BBX 16 16 0 -2
BITMAP
0000
2500
2500
2000
3C00
2600
2000
2000
2120
0120
0122
0126
012C
0338
0630
0000
ENDCHAR
STARTCHAR 3327
ENCODING 13095
SWIDTH 960 0
DWIDTH 16 0
BBX 16 16 0 -2
BITMAP
0000
2000
2000
2000
3C00
2600
2000
2000
20C0
0060
0002
0006
000C
0038
00E0
0000
ENDCHAR
STARTCHAR 332B
ENCODING 13099
SWIDTH 960 0
DWIDTH 16 0
BBX 16 16 0 -2
BITMAP
01C0
4540
45C0
4400
467E
4200
8200
0000
4008
5B08
E988
482E
502B
4068
40C8
3988
ENDCHAR
STARTCHAR 3336
ENCODING 13110
SWIDTH 960 0
DWIDTH 16 0
BBX 16 16 0 -2
BITMAP
0020
103E
1822
2C42
2446
4604
030C
0018
7800
4828
C828
A829
2BAB
182E
302C
6028
ENDCHAR
STARTCHAR 333B
ENCODING 13115
SWIDTH 960 0
DWIDTH 16 0
BBX 16 16 0 -2
BITMAP
0000
2380
3280
5B80
483E
8C00
0600
0000
0280
6280
1000
C200
2600
0C00
1800
7000
ENDCHAR
STARTCHAR 3349
ENCODING 13129
SWIDTH 960 0
DWIDTH 16 0
BBX 16 16 0 -2
BITMAP
0000
7000
1C00
0600
7000
1C00
0622
7022
1C22
0622
0022
0002
0006
0004
000C
0018
ENDCHAR
STARTCHAR 334A
ENCODING 13130
SWIDTH 960 0
DWIDTH 16 0
BBX 16 16 0 -2
BITMAP
6044
1844
4444
3044
0C44
600C
1C08
0010
0A04
4A14
5014
51D4
5814
8815
8816
8014
ENDCHAR
STARTCHAR 334D
ENCODING 13133
SWIDTH 960 0
DWIDTH 16 0
BBX 16 16 0 -2
BITMAP
0200
0200
3600
1C00
087E
1C00
6200
0000
2000
2020
20A0
38A2
2CA6
20AC
21B8
2330
ENDCHAR
STARTCHAR 3351
ENCODING 13137
SWIDTH 960 0
DWIDTH 16 0
BBX 16 16 0 -2
BITMAP
0000
4400
4400
4450
4452
0802
0804
1018
2000
20A0
20A0
3CA2
26A6
20AC
21B8
2330
ENDCHAR
STARTCHAR 3357
ENCODING 13143
SWIDTH 960 0
DWIDTH 16 0
BBX 16 16 0 -2
BITMAP
0000
7E00
4200
4250
0652
0402
0C04
1818
2000
2000
2000
3C00
2600
2000
2000
2000
ENDCHAR
STARTCHAR 337B
ENCODING 13179
SWIDTH 960 0
DWIDTH 16 0
BBX 16 16 0 -2
BITMAP
0000
0014
FF16
1012
52FF
5690
5490
1089
FFE9
10AA
10AA
10AE
1124
1125
126A
0000
ENDCHAR
STARTCHAR 337C
ENCODING 13180
SWIDTH 960 0
DWIDTH 16 0
BBX 16 16 0 -2
BITMAP
0000
1F37
E565
A5A5
A525
A9FD
A925
F135
A36D
A0A5
AF25
A925
E925
0925
0F27
0000
ENDCHAR
STARTCHAR 337D
ENCODING 13181
SWIDTH 960 0
DWIDTH 16 0
BBX 16 16 0 -2
BITMAP
0000
08FF
0808
0808
0808
FF48
0848
1C4E
1448
1448
1448
3648
2248
6248
C3FF
0000
ENDCHAR
STARTCHAR 337E
ENCODING 13182
SWIDTH 960 0
DWIDTH 16 0
BBX 16 16 0 -2
BITMAP
0000
0E88
EA48
AA4A
AA12
AF17
EAB9
AA41
AA00
AE00
AA7E
EAA2
12A2
12A2
273E
0000
ENDCHAR
STARTCHAR 338E
ENCODING 13198
SWIDTH 960 0
DWIDTH 16 0
BBX 16 16 0 -2
BITMAP
0000
0000
0000
0000
0000
0000
DA3B
6D44
4944
4944
4938
4940
497E
DA81
0081
007E
ENDCHAR
STARTCHAR 338F
ENCODING 13199
SWIDTH 960 0
DWIDTH 16 0
BBX 16 16 0 -2
BITMAP
0000
C000
4000
4000
4000
4000
4E76
4488
4C88
7088
4870
4480
42FC
C702
0102
00FC
ENDCHAR
STARTCHAR 339C
ENCODING 13212
SWIDTH 960 0
DWIDTH 16 0
BBX 16 16 0 -2
BITMAP
0000
0000
0000
0000
0000
0000
DA5A
6D6D
4949
4949
4949
4949
4949
DB5B
0000
0000
ENDCHAR
STARTCHAR 339D
ENCODING 13213
SWIDTH 960 0
DWIDTH 16 0
BBX 16 16 0 -2
BITMAP
0000
0000
0000
0000
0000
0000
3CB4
42DA
8092
8092
8092
8092
4292
3CB7
0000
0000
ENDCHAR
STARTCHAR 339E
ENCODING 13214
SWIDTH 960 0
DWIDTH 16 0
BBX 16 16 0 -2
BITMAP
0000
C000
4000
4000
4000
4000
4EB4
44DA
4C92
7092
4892
4492
4292
C7B7
0000
0000
ENDCHAR
STARTCHAR 33A1
ENCODING 13217
SWIDTH 960 0
DWIDTH 16 0
BBX 16 16 0 -2
BITMAP
001C
0022
0002
001C
0020
003E
6CC0
3320
2220
2220
2220
2220
2220
7770
0000
0000
ENDCHAR
STARTCHAR 33C4
ENCODING 13252
SWIDTH 960 0
DWIDTH 16 0
BBX 16 16 0 -2
BITMAP
0000
0000
0000
0000
0000
0000
3C3C
4242
8080
8080
8080
8080
4242
3C3C
0000
0000
ENDCHAR
STARTCHAR 33CB
ENCODING 13259
SWIDTH 960 0
DWIDTH 16 0
BBX 16 16 0 -2
BITMAP
0000
79F8
2084
2082
2082
2082
2084
3FF8
2080
2080
2080
2080
2080
79E0
0000
0000
ENDCHAR
STARTCHAR 33CD
ENCODING 13261
SWIDTH 960 0
DWIDTH 16 0
BBX 16 16 0 -2
BITMAP
0000
CECE
4444
4C4C
4848
5858
5050
7070
5050
5050
5858
4848
4949
DD6D
0000
0000
ENDCHAR
STARTCHAR 3402
ENCODING 13314
SWIDTH 960 0
DWIDTH 16 0
BBX 16 16 0 -2
BITMAP
0400
041E
05F0
7F00
0402
0606
03FC
0000
2020
2323
2E2E
F0F0
2020
2121
2323
1E1E
ENDCHAR
STARTCHAR 3406
ENCODING 13318
SWIDTH 960 0
DWIDTH 16 0
BBX 16 16 0 -2
BITMAP
0018
0FF0
0800
0FF8
0808
0FF8
0808
0FF8
0800
0FF8
0808
0808
1818
1010
3010
6070
ENDCHAR
STARTCHAR 342C
ENCODING 13356
SWIDTH 960 0
DWIDTH 16 0
BBX 16 16 0 -2
BITMAP
0100
0100
FFFF
0400
0410
09F8
1F0C
0004
0888
0888
0888
0888
0888
1889
308B
E00E
ENDCHAR
STARTCHAR 342E
ENCODING 13358
SWIDTH 960 0
DWIDTH 16 0
BBX 16 16 0 -2
BITMAP
0100
0100
FFFF
0810
300C
C423
3FFC
0420
3FFC
0420
FFFF
0444
0C68
F830
0F9C
7807
ENDCHAR
STARTCHAR 3468
ENCODING 13416
SWIDTH 960 0
DWIDTH 16 0
BBX 16 16 0 -2
BITMAP
0800
09FC
1904
1104
3104
21FC
6100
A3FE
2620
2020
27FF
2050
20D8
218C
2306
2603
ENDCHAR
STARTCHAR 346A
ENCODING 13418
SWIDTH 960 0
DWIDTH 16 0
BBX 16 16 0 -2
BITMAP
0820
0820
1FFF
1104
30D8
2070
61DC
A707
2104
21FC
2104
21FC
2104
2304
2204
2604
ENDCHAR
STARTCHAR 3492
ENCODING 13458
SWIDTH 960 0
DWIDTH 16 0
BBX 16 16 0 -2
BITMAP
1050
1252
1154
37FF
2104
6088
63FE
A020
21FC
2020
27FF
20A8
21AC
2326
2623
2020
ENDCHAR
STARTCHAR 34B5
ENCODING 13493
SWIDTH 960 0
DWIDTH 16 0
BBX 16 16 0 -2
BITMAP
0100
0200
3FFC
2004
2004
2004
3FFC
2004
2004
2004
3FFC
0000
0810
1818
300C
6006
ENDCHAR
STARTCHAR 34BC
ENCODING 13500
SWIDTH 960 0
DWIDTH 16 0
BBX 16 16 0 -2
BITMAP
0420
0420
7FFE
0420
0420
07E0
0100
3FFC
2104
2D64
2524
2524
2B54
318C
2104
211C
ENDCHAR
STARTCHAR 34C1
ENCODING 13505
SWIDTH 960 0
DWIDTH 16 0
BBX 16 16 0 -2
BITMAP
0000
0000
0000
0000
7FFE
4442
4442
0440
0C40
0840
1862
703E
0000
0000
0000
0000
ENDCHAR
STARTCHAR 34C7
ENCODING 13511
SWIDTH 960 0
DWIDTH 16 0
BBX 16 16 0 -2
BITMAP
000C
6038
31E0
1020
0020
0020
07FF
0020
1020
1070
3050
2050
60D8
4088
C18C
0707
ENDCHAR
STARTCHAR 34DB
ENCODING 13531
SWIDTH 960 0
DWIDTH 16 0
BBX 16 16 0 -2
BITMAP
0000
03FE
0042
FC42
1042
1042
1042
1042
1042
10C2
1C82
7082
C186
0104
0304
061C
ENDCHAR
STARTCHAR 351F
ENCODING 13599
SWIDTH 960 0
DWIDTH 16 0
BBX 16 16 0 -2
BITMAP
4820
4820
7F20
C8FC
8824
3EA4
0864
0845
1F65
F0A3
0100
7FFE
0102
0202
0C06
F01C
ENDCHAR
STARTCHAR 355D
ENCODING 13661
SWIDTH 960 0
DWIDTH 16 0
BBX 16 16 0 -2
BITMAP
0100
0100
FFFF
0100
0100
1FF8
1008
1008
1FF8
0000
3FFC
0818
0670
03C0
1E78
F00F
ENDCHAR
STARTCHAR 355E
ENCODING 13662
SWIDTH 960 0
DWIDTH 16 0
BBX 16 16 0 -2
BITMAP
0000
7FFE
40A2
40A2
7FA2
4422
4436
5F94
5494
549C
5488
5488
D49C
9594
8436
0463
ENDCHAR
STARTCHAR 3563
ENCODING 13667
SWIDTH 960 0
DWIDTH 16 0
BBX 16 16 0 -2
BITMAP
0000
03E0
0820
0830
1810
1018
300C
6006
C003
1FF8
1008
1008
1008
1008
1008
1FF8
ENDCHAR
STARTCHAR 356E
ENCODING 13678
SWIDTH 960 0
DWIDTH 16 0
BBX 16 16 0 -2
BITMAP
0088
0088
F98C
8904
8B06
8E8B
8888
8888
89D8
8A50
8830
F820
0070
00D8
018C
0707
ENDCHAR
STARTCHAR 35A6
ENCODING 13734
SWIDTH 960 0
DWIDTH 16 0
BBX 16 16 0 -2
BITMAP
0020
0020
FBFF
8820
89FE
8922
89FE
8922
8922
89FE
88A8
F8A8
00AC
01A6
0323
0020
ENDCHAR
STARTCHAR 35A8
ENCODING 13736
SWIDTH 960 0
DWIDTH 16 0
BBX 16 16 0 -2
BITMAP
0080
00FC
F984
890C
89F8
8808
8FFF
8820
8922
89A6
88B4
F878
00AC
01A6
0723
00E0
ENDCHAR
STARTCHAR 35C5
ENCODING 13765
SWIDTH 960 0
DWIDTH 16 0
BBX 16 16 0 -2
BITMAP
0100
011F
F111
9111
9FF1
911F
9111
9111
97D1
945F
9451
F451
0451
0451
07D1
0027
ENDCHAR
STARTCHAR 35DA
ENCODING 13786
SWIDTH 960 0
DWIDTH 16 0
BBX 16 16 0 -2
BITMAP
0000
07FF
F090
9090
93FE
9292
9292
93FE
9020
97FF
90A8
F1AC
0124
0326
0623
0020
ENDCHAR
STARTCHAR 35F4
ENCODING 13812
SWIDTH 960 0
DWIDTH 16 0
BBX 16 16 0 -2
BITMAP
0000
07DF
F451
97DF
9451
97DF
9401
94F9
9489
9489
94F9
F489
0489
04F9
0401
0407
ENDCHAR
STARTCHAR 3605
ENCODING 13829
SWIDTH 960 0
DWIDTH 16 0
BBX 16 16 0 -2
BITMAP
0440
0CEF
E8A0
B5B0
A710
ADEF
A842
B842
ABFA
A842
AA4A
EB5A
0952
08FA
0B82
0806
ENDCHAR
STARTCHAR 364A
ENCODING 13898
SWIDTH 960 0
DWIDTH 16 0
BBX 16 16 0 -2
BITMAP
2000
21FE
2100
21FC
F900
21FC
2100
2100
27FF
2122
3936
E114
0118
010C
01E6
0703
ENDCHAR
STARTCHAR 3691
ENCODING 13969
SWIDTH 960 0
DWIDTH 16 0
BBX 16 16 0 -2
BITMAP
0000
3FF8
0008
0008
FFFF
0008
0008
3FF8
0100
0100
FFFF
0280
06C0
0C70
381C
6007
ENDCHAR
STARTCHAR 3696
ENCODING 13974
SWIDTH 960 0
DWIDTH 16 0
BBX 16 16 0 -2
BITMAP
0080
0100
1FF8
1008
1008
1FF8
1008
1008
1FF8
0100
FFFF
0280
06C0
0C70
381C
E007
ENDCHAR
STARTCHAR 3699
ENCODING 13977
SWIDTH 960 0
DWIDTH 16 0
BBX 16 16 0 -2
BITMAP
1000
103E
FF22
1122
1122
3122
2122
673E
C000
0100
FFFF
0280
06C0
0C70
381C
6007
ENDCHAR
STARTCHAR 36CF
ENCODING 14031
SWIDTH 960 0
DWIDTH 16 0
BBX 16 16 0 -2
BITMAP
1024
1026
1022
13FF
FC20
2522
25A6
24AC
6420
4C30
48B8
F9AC
1526
3723
6020
C0E0
ENDCHAR
STARTCHAR 3761
ENCODING 14177
SWIDTH 960 0
DWIDTH 16 0
BBX 16 16 0 -2
BITMAP
0100
0100
7FFE
4002
0002
7F80
227E
2202
3E42
2246
3E64
222C
2218
3E3C
E2E7
0200
ENDCHAR
STARTCHAR 3762
ENCODING 14178
SWIDTH 960 0
DWIDTH 16 0
BBX 16 16 0 -2
BITMAP
0100
0100
7FFE
4002
407A
1FC0
0100
1FF8
1108
1FF8
0100
3FFC
2124
21F4
2F14
200C
ENDCHAR
STARTCHAR 376B
ENCODING 14187
SWIDTH 960 0
DWIDTH 16 0
BBX 16 16 0 -2
BITMAP
0100
0100
7FFE
4002
0042
78FC
4B88
4870
51DC
56F7
4920
49FC
4A20
59FC
4020
43FE
ENDCHAR
STARTCHAR 376C
ENCODING 14188
SWIDTH 960 0
DWIDTH 16 0
BBX 16 16 0 -2
BITMAP
1010
1010
FE10
82FE
9210
7C10
1010
7C10
11FF
FE10
1038
7C28
446C
4444
44C6
7D83
ENDCHAR
STARTCHAR 3775
ENCODING 14197
SWIDTH 960 0
DWIDTH 16 0
BBX 16 16 0 -2
BITMAP
1FF8
1008
1008
1FF8
1008
1008
1FF8
0000
7FFE
0020
FFFF
0420
0620
0220
0020
00E0
ENDCHAR
STARTCHAR 378D
ENCODING 14221
SWIDTH 960 0
DWIDTH 16 0
BBX 16 16 0 -2
BITMAP
0000
3FFE
2002
2002
3FFE
2000
2100
2100
2FF8
2108
2108
2D08
6708
4389
C689
1C07
ENDCHAR
STARTCHAR 37C1
ENCODING 14273
SWIDTH 960 0
DWIDTH 16 0
BBX 16 16 0 -2
BITMAP
2000
23FF
2200
2200
AAFE
AA10
AA10
AA10
ABFF
AA10
AA10
FA10
0610
0410
0C10
0010
ENDCHAR
STARTCHAR 37E2
ENCODING 14306
SWIDTH 960 0
DWIDTH 16 0
BBX 16 16 0 -2
BITMAP
0100
2104
2104
3FFC
0100
7FFC
0380
0C60
3018
FFFF
0008
1F88
1088
1088
1F88
0038
ENDCHAR
STARTCHAR 37E8
ENCODING 14312
SWIDTH 960 0
DWIDTH 16 0
BBX 16 16 0 -2
BITMAP
2010
2111
2111
2111
A5FF
A400
A5FF
A410
A420
A5FF
A549
FD49
0149
0149
0149
014B
ENDCHAR
STARTCHAR 37F4
ENCODING 14324
SWIDTH 960 0
DWIDTH 16 0
BBX 16 16 0 -2
BITMAP
2020
2040
23FE
2222
AA22
ABFE
AA22
AA22
ABFE
A890
A894
F895
019F
0110
0311
0E0F
ENDCHAR
STARTCHAR 37FD
ENCODING 14333
SWIDTH 960 0
DWIDTH 16 0
BBX 16 16 0 -2
BITMAP
2000
27FF
2090
23FE
AA92
AA92
ABFE
A800
ABFE
A800
AFFF
F820
0124
0326
0623
00E0
ENDCHAR
STARTCHAR 3800
ENCODING 14336
SWIDTH 960 0
DWIDTH 16 0
BBX 16 16 0 -2
BITMAP
0400
1FF0
1010
1FF0
1010
1FF0
1000
1FFF
1000
1FFE
4922
C496
0100
4102
4102
7FFE
ENDCHAR
STARTCHAR 382F
ENCODING 14383
SWIDTH 960 0
DWIDTH 16 0
BBX 16 16 0 -2
BITMAP
0000
1FF8
1008
1008
1008
1008
1FF8
1000
1000
1FFC
1004
1004
1004
1004
1FFC
0000
ENDCHAR
STARTCHAR 3836
ENCODING 14390
SWIDTH 960 0
DWIDTH 16 0
BBX 16 16 0 -2
BITMAP
2010
2030
2020
FCFC
A484
A484
A484
A484
A484
A484
AC84
2084
2084
2185
2105
2303
ENDCHAR
STARTCHAR 3840
ENCODING 14400
SWIDTH 960 0
DWIDTH 16 0
BBX 16 16 0 -2
BITMAP
0000
0920
1930
311C
6106
0100
3FFC
2104
2544
2564
2D24
2934
2914
2104
2104
201C
ENDCHAR
STARTCHAR 385C
ENCODING 14428
SWIDTH 960 0
DWIDTH 16 0
BBX 16 16 0 -2
BITMAP
2100
21DE
2322
FEA6
A554
A488
A504
A6FB
A400
A400
AFFE
2020
2124
2326
2623
20E0
ENDCHAR
STARTCHAR 3861
ENCODING 14433
SWIDTH 960 0
DWIDTH 16 0
BBX 16 16 0 -2
BITMAP
2000
27FF
2400
FC02
A7F2
A402
A5EF
A522
A52A
A5EA
AC0A
2522
2522
25A2
28F2
238E
ENDCHAR
STARTCHAR 38FA
ENCODING 14586
SWIDTH 960 0
DWIDTH 16 0
BBX 16 16 0 -2
BITMAP
0000
0000
0200
0200
0200
0218
220C
22C6
2262
6232
4210
C200
0200
0E00
0000
0000
ENDCHAR
STARTCHAR 3917
ENCODING 14615
SWIDTH 960 0
DWIDTH 16 0
BBX 16 16 0 -2
BITMAP
0100
0100
7FFE
0100
3FFC
0240
FFFF
0810
310C
E107
0100
110C
1166
3132
6110
0700
ENDCHAR
STARTCHAR 391A
ENCODING 14618
SWIDTH 960 0
DWIDTH 16 0
BBX 16 16 0 -2
BITMAP
1080
109E
1180
5100
5B00
5680
D4BF
9184
1104
1304
1104
1104
1104
1104
1104
111C
ENDCHAR
STARTCHAR 396F
ENCODING 14703
SWIDTH 960 0
DWIDTH 16 0
BBX 16 16 0 -2
BITMAP
001C
1FF0
3118
620C
5FF4
0080
7FFE
0004
FFFF
0004
3FFC
0080
24C6
244B
6619
C3F0
ENDCHAR
STARTCHAR 3A6E
ENCODING 14958
SWIDTH 960 0
DWIDTH 16 0
BBX 16 16 0 -2
BITMAP
21A0
2336
2222
2336
FA52
2356
2252
27FF
3904
E2FA
2421
21FC
2020
23FE
2020
60E0
ENDCHAR
STARTCHAR 3A73
ENCODING 14963
SWIDTH 960 0
DWIDTH 16 0
BBX 16 16 0 -2
BITMAP
2252
2294
23DF
26B4
FBDE
2294
23DE
2294
3BDF
E000
23FE
210C
20D8
2070
21DC
6707
ENDCHAR
STARTCHAR 3AD6
ENCODING 15062
SWIDTH 960 0
DWIDTH 16 0
BBX 16 16 0 -2
BITMAP
0100
0100
0100
01FC
0100
0100
0100
FFFF
0000
1FF8
1008
1008
1FF8
1008
1008
1FF8
ENDCHAR
STARTCHAR 3AD7
ENCODING 15063
SWIDTH 960 0
DWIDTH 16 0
BBX 16 16 0 -2
BITMAP
0000
1FF8
1008
1FF8
1008
1FF8
0000
3FF8
0060
0180
0100
FFFF
0100
0100
0100
0700
ENDCHAR
STARTCHAR 3AEA
ENCODING 15082
SWIDTH 960 0
DWIDTH 16 0
BBX 16 16 0 -2
BITMAP
0100
0100
7FFE
0100
3FFC
0240
FFFF
0420
0810
39FC
E90F
0908
09F8
0908
0908
09F8
ENDCHAR
STARTCHAR 3B0E
ENCODING 15118
SWIDTH 960 0
DWIDTH 16 0
BBX 16 16 0 -2
BITMAP
0000
1FF8
1008
1FF8
1008
1FF8
1020
2244
1428
0810
1224
7D7E
0002
2444
6666
C223
ENDCHAR
STARTCHAR 3B1A
ENCODING 15130
SWIDTH 960 0
DWIDTH 16 0
BBX 16 16 0 -2
BITMAP
0108
0108
FFE8
920F
929A
94D2
974A
F00A
97CA
944E
97C4
9444
F7CE
044A
044A
04DB
ENDCHAR
STARTCHAR 3B1C
ENCODING 15132
SWIDTH 960 0
DWIDTH 16 0
BBX 16 16 0 -2
BITMAP
0000
FEFE
2020
4442
FEFF
1211
7C7E
1010
FEFF
0000
1FF8
1008
1FF8
1008
1008
1FF8
ENDCHAR
STARTCHAR 3B22
ENCODING 15138
SWIDTH 960 0
DWIDTH 16 0
BBX 16 16 0 -2
BITMAP
0104
0088
FBFE
8820
89FC
8820
8FFF
F804
8B92
8910
8FFF
8912
F9D4
0709
0115
0323
ENDCHAR
STARTCHAR 3B6D
ENCODING 15213
SWIDTH 960 0
DWIDTH 16 0
BBX 16 16 0 -2
BITMAP
1001
13E9
1229
FE29
1229
13E9
3909
3509
35E9
5129
5129
9121
1321
1261
1241
16C7
ENDCHAR
STARTCHAR 3B77
ENCODING 15223
SWIDTH 960 0
DWIDTH 16 0
BBX 16 16 0 -2
BITMAP
1000
11FE
1122
FD22
11FE
1122
3922
35FE
3000
5020
51FE
9022
1062
1046
10C4
139C
ENDCHAR
STARTCHAR 3B87
ENCODING 15239
SWIDTH 960 0
DWIDTH 16 0
BBX 16 16 0 -2
BITMAP
2006
203C
23E0
F840
2040
27FF
2088
718C
6B06
AE43
A040
2252
225B
2649
2448
20C0
ENDCHAR
STARTCHAR 3B88
ENCODING 15240
SWIDTH 960 0
DWIDTH 16 0
BBX 16 16 0 -2
BITMAP
2020
2020
27FF
F850
20D8
218C
2707
70F8
6800
A800
A7FF
2020
2124
2326
2623
20E0
ENDCHAR
STARTCHAR 3B8D
ENCODING 15245
SWIDTH 960 0
DWIDTH 16 0
BBX 16 16 0 -2
BITMAP
0420
FFFF
0000
3E44
3244
2E44
3244
2E04
221C
0100
FFFF
0520
0D30
391C
E107
0100
ENDCHAR
STARTCHAR 3BA4
ENCODING 15268
SWIDTH 960 0
DWIDTH 16 0
BBX 16 16 0 -2
BITMAP
0100
0100
7FFE
4812
310C
06C0
383C
EFF7
0810
0810
0FF0
0100
FFFF
0540
3938
E10F
ENDCHAR
STARTCHAR 3BB6
ENCODING 15286
SWIDTH 960 0
DWIDTH 16 0
BBX 16 16 0 -2
BITMAP
2440
26DF
2291
FFF1
2111
211F
2551
7551
6D51
AD5F
A551
27D1
2111
2311
2611
2C27
ENDCHAR
STARTCHAR 3BC3
ENCODING 15299
SWIDTH 960 0
DWIDTH 16 0
BBX 16 16 0 -2
BITMAP
2020
2020
27FF
F8A8
21AC
2727
2070
71DC
6F07
A820
A124
20A8
2070
21AC
2727
2060
ENDCHAR
STARTCHAR 3BCD
ENCODING 15309
SWIDTH 960 0
DWIDTH 16 0
BBX 16 16 0 -2
BITMAP
2090
249F
24B1
FCEB
24D6
278C
2098
70F2
6F82
A4BF
A482
2492
249A
248A
2882
208E
ENDCHAR
STARTCHAR 3BF0
ENCODING 15344
SWIDTH 960 0
DWIDTH 16 0
BBX 16 16 0 -2
BITMAP
1000
11FE
112A
FDFE
1010
13FF
3810
34FE
3682
52FE
5282
92FE
1282
12FE
1200
13FF
ENDCHAR
STARTCHAR 3C0F
ENCODING 15375
SWIDTH 960 0
DWIDTH 16 0
BBX 16 16 0 -2
BITMAP
1108
11EF
1294
FC42
1010
13FF
3800
34FC
3484
50FC
5000
93FF
1201
12FD
1285
12FF
ENDCHAR
STARTCHAR 3C26
ENCODING 15398
SWIDTH 960 0
DWIDTH 16 0
BBX 16 16 0 -2
BITMAP
0820
0820
0820
7F7F
0841
08D3
0812
0810
FF10
1010
1038
3228
222C
2764
3D46
61C3
ENDCHAR
STARTCHAR 3CC3
ENCODING 15555
SWIDTH 960 0
DWIDTH 16 0
BBX 16 16 0 -2
BITMAP
0040
6040
33F8
1048
00C8
C089
6189
2707
0020
1020
13FE
3020
2020
6020
4020
C020
ENDCHAR
STARTCHAR 3CD2
ENCODING 15570
SWIDTH 960 0
DWIDTH 16 0
BBX 16 16 0 -2
BITMAP
0040
6040
3040
17FF
0090
C198
6108
230C
0246
1643
10C0
3084
2184
611E
41F2
C703
ENDCHAR
ENDFONT
